<svg width="689.136" height="350.68" viewBox="98.6281 77.954 516.852 263.01" xmlns="http://www.w3.org/2000/svg" xmlns:xlink="http://www.w3.org/1999/xlink" overflow="hidden"><g transform="matrix(1 0 0 -1 0 841)"><g stroke="#000000" stroke-linecap="round" stroke-linejoin="round" stroke-miterlimit="3" fill="none" fill-rule="evenodd" font-weight="400" baseline-shift="0"><g transform="matrix(0.75 0 0 0.75 0 841.65)"><g font-family="CalibriUnicode" font-size="10" transform="scale(1.0012 -1.00411)"><rect x="142" y="115" width="667" height="328" stroke="#9A8484"/><rect x="177" y="144" width="200" height="104" stroke="none" fill="#D0D0D0"/><rect x="174" y="141" width="199" height="103" stroke="none" fill="#FFD700"/><rect x="174" y="141" width="199" height="104" stroke="#9A8484"/><rect x="174" y="141" width="199" height="103" stroke="#9A8484"/><text stroke="none" fill="#595959" transform="translate(247 147)"><tspan x="0" y="10" dx="0">«</tspan><tspan x="5.33333" y="10" dx="0">O</tspan><tspan x="12.3333" y="10" dx="0">b</tspan><tspan x="17.6667" y="10" dx="0">j</tspan><tspan x="20" y="10" dx="0">e</tspan><tspan x="25" y="10" dx="0">c</tspan><tspan x="29.3333" y="10" dx="0 0">tt</tspan><tspan x="36" y="10" dx="0">y</tspan><tspan x="40.6667" y="10" dx="0">p</tspan><tspan x="46" y="10" dx="0">e</tspan><tspan x="51" y="10" dx="0">»</tspan></text><text stroke="none" fill="#595959" font-weight="700" transform="translate(237 160)"><tspan x="0" y="10" dx="0">S</tspan><tspan x="5" y="10" dx="0">y</tspan><tspan x="10" y="10" dx="0">m</tspan><tspan x="18.3333" y="10" dx="0">b</tspan><tspan x="24" y="10" dx="0">o</tspan><tspan x="29.6667" y="10" dx="0">l</tspan><tspan x="32" y="10" dx="0">i</tspan><tspan x="34.3333" y="10" dx="0">s</tspan><tspan x="38.3333" y="10" dx="0">a</tspan><tspan x="43.3333" y="10" dx="0 0">ti</tspan><tspan x="49" y="10" dx="0">e</tspan><tspan x="54" y="10" dx="0">I</tspan><tspan x="56.6667" y="10" dx="0">t</tspan><tspan x="60" y="10" dx="0">e</tspan><tspan x="65" y="10" dx="0">m</tspan></text><path d="M174 178 373 178" stroke="#9A8484"/><text stroke="none" fill="#595959" transform="translate(186 186)"><tspan x="0" y="10" dx="0">«</tspan><tspan x="4.66667" y="10" dx="0">A</tspan><tspan x="10" y="10" dx="0 0">tt</tspan><tspan x="16.6667" y="10" dx="0">r</tspan><tspan x="20" y="10" dx="0">i</tspan><tspan x="22.3333" y="10" dx="0">b</tspan><tspan x="27.6667" y="10" dx="0">u</tspan><tspan x="33" y="10" dx="0">u</tspan><tspan x="38.3333" y="10" dx="0">t</tspan><tspan x="41.6667" y="10" dx="0">s</tspan><tspan x="45.6667" y="10" dx="0">o</tspan><tspan x="51" y="10" dx="0">o</tspan><tspan x="56.3333" y="10" dx="0">r</tspan><tspan x="59.6667" y="10" dx="0">t</tspan><tspan x="63" y="10" dx="0">»</tspan></text><text stroke="none" fill="#66413F" transform="translate(179 199)"><tspan x="0" y="10" dx="0">+</tspan></text><text stroke="none" fill="#66413F" transform="translate(196 199)"><tspan x="0" y="10" dx="0">symboolcode: CharacterString</tspan></text><rect x="176" y="372" width="203" height="58" stroke="none" fill="#D0D0D0"/><rect x="173" y="369" width="202" height="57" stroke="none" fill="#CCFFCC"/><rect x="173" y="369" width="202" height="58" stroke="#9A8484"/><rect x="173" y="369" width="202" height="57" stroke="#9A8484"/><text stroke="none" fill="#595959" transform="translate(229 375)"><tspan x="0" y="10" dx="0">«Gegevensgroeptype»</tspan></text><text stroke="none" fill="#595959" font-weight="700" transform="translate(208 388)"><tspan x="0" y="10" dx="0">R</tspan><tspan x="6" y="10" dx="0">e</tspan><tspan x="11.3333" y="10" dx="0">g</tspan><tspan x="16" y="10" dx="0">e</tspan><tspan x="21.3333" y="10" dx="0">l</tspan><tspan x="23.6667" y="10" dx="0">s</tspan><tspan x="27.6667" y="10" dx="0">O</tspan><tspan x="34.6667" y="10" dx="0">p</tspan><tspan x="40.3333" y="10" dx="0">L</tspan><tspan x="44.6667" y="10" dx="0">o</tspan><tspan x="50.3333" y="10" dx="0">c</tspan><tspan x="54.6667" y="10" dx="0">a</tspan><tspan x="60" y="10" dx="0 0">ti</tspan><tspan x="65.6667" y="10" dx="0">e</tspan><tspan x="71" y="10" dx="0">:</tspan><tspan x="73.6667" y="10" dx="0">:</tspan><tspan x="76.3333" y="10" dx="0">N</tspan><tspan x="83.3333" y="10" dx="0">o</tspan><tspan x="89" y="10" dx="0">r</tspan><tspan x="92.6667" y="10" dx="0">m</tspan><tspan x="101" y="10" dx="0">w</tspan><tspan x="108.667" y="10" dx="0">a</tspan><tspan x="114" y="10" dx="0">a</tspan><tspan x="119" y="10" dx="0">r</tspan><tspan x="122.667" y="10" dx="0">d</tspan><tspan x="128" y="10" dx="0">e</tspan></text><rect x="581" y="167" width="203" height="58" stroke="none" fill="#D0D0D0"/><rect x="578" y="164" width="202" height="57" stroke="none" fill="#CCFFCC"/><rect x="578" y="164" width="202" height="58" stroke="#9A8484"/><rect x="578" y="164" width="202" height="57" stroke="#9A8484"/><text stroke="none" fill="#595959" font-style="italic" transform="translate(736 167)"><tspan x="0" y="10" dx="0">OWobject</tspan></text><text stroke="none" fill="#595959" transform="translate(652 186)"><tspan x="0" y="10" dx="0">«</tspan><tspan x="5.33333" y="10" dx="0">O</tspan><tspan x="12.3333" y="10" dx="0">b</tspan><tspan x="17.6667" y="10" dx="0">j</tspan><tspan x="20" y="10" dx="0">e</tspan><tspan x="25" y="10" dx="0">c</tspan><tspan x="29.3333" y="10" dx="0 0">tt</tspan><tspan x="36" y="10" dx="0">y</tspan><tspan x="40.6667" y="10" dx="0">p</tspan><tspan x="46" y="10" dx="0">e</tspan><tspan x="51" y="10" dx="0">»</tspan></text><text stroke="none" fill="#595959" font-weight="700" transform="translate(597 199)"><tspan x="0" y="10" dx="0">GebiedsAanwijzing::Gebiedsaanwijzing</tspan></text><rect x="497" y="362" width="203" height="58" stroke="none" fill="#D0D0D0"/><rect x="494" y="359" width="202" height="57" stroke="none" fill="#CCFFCC"/><rect x="494" y="359" width="202" height="58" stroke="#9A8484"/><rect x="494" y="359" width="202" height="57" stroke="#9A8484"/><text stroke="none" fill="#595959" transform="translate(568 365)"><tspan x="0" y="10" dx="0">«</tspan><tspan x="5.33333" y="10" dx="0">O</tspan><tspan x="12.3333" y="10" dx="0">b</tspan><tspan x="17.6667" y="10" dx="0">j</tspan><tspan x="20" y="10" dx="0">e</tspan><tspan x="25" y="10" dx="0">c</tspan><tspan x="29.3333" y="10" dx="0 0">tt</tspan><tspan x="36" y="10" dx="0">y</tspan><tspan x="40.6667" y="10" dx="0">p</tspan><tspan x="46" y="10" dx="0">e</tspan><tspan x="51" y="10" dx="0">»</tspan></text><text stroke="none" fill="#595959" font-weight="700" transform="translate(524 378)"><tspan x="0" y="10" dx="0">R</tspan><tspan x="6" y="10" dx="0">e</tspan><tspan x="11.3333" y="10" dx="0">g</tspan><tspan x="16.3333" y="10" dx="0">e</tspan><tspan x="21.6667" y="10" dx="0">l</tspan><tspan x="24" y="10" dx="0">:</tspan><tspan x="26.6667" y="10" dx="0">:</tspan><tspan x="29.3333" y="10" dx="0">A</tspan><tspan x="35.3333" y="10" dx="0">c</tspan><tspan x="39.6667" y="10" dx="0 0">ti</tspan><tspan x="45.3333" y="10" dx="0">v</tspan><tspan x="50" y="10" dx="0">i</tspan><tspan x="52.3333" y="10" dx="0">t</tspan><tspan x="55.6667" y="10" dx="0">e</tspan><tspan x="60.6667" y="10" dx="0">i</tspan><tspan x="63" y="10" dx="0">t</tspan><tspan x="66.3333" y="10" dx="0">L</tspan><tspan x="70.6667" y="10" dx="0">o</tspan><tspan x="76" y="10" dx="0">c</tspan><tspan x="80.3333" y="10" dx="0">a</tspan><tspan x="85.3333" y="10" dx="0 0">ti</tspan><tspan x="91" y="10" dx="0">e</tspan><tspan x="96" y="10" dx="0">a</tspan><tspan x="101" y="10" dx="0">a</tspan><tspan x="106" y="10" dx="0">n</tspan><tspan x="111.333" y="10" dx="0">d</tspan><tspan x="116.667" y="10" dx="0">u</tspan><tspan x="122" y="10" dx="0">i</tspan><tspan x="124.333" y="10" dx="0">d</tspan><tspan x="129.667" y="10" dx="0">i</tspan><tspan x="132" y="10" dx="0">n</tspan><tspan x="137.333" y="10" dx="0">g</tspan></text><path d="M344 245 344 283M344 283 568 283M568 283 568 359M568 359 562 344M568 359 574 344" stroke="#69738C"/><path d="M374 193 578 193M578 193 563 199M578 193 563 187" stroke="#69738C"/><path d="M273 245 273 369M273 369 267 354M273 369 279 354" stroke="#69738C"/><g transform="matrix(1 0 0 -1 438 214)"><rect x="0" y="-13" width="135" height="13" stroke="none" fill="#FFFFFF"/></g><text stroke="none" fill="#595959" transform="translate(438 214)"><tspan x="0" y="10" dx="0">+</tspan><tspan x="5.33333" y="10" dx="0">g</tspan><tspan x="10.3333" y="10" dx="0">e</tspan><tspan x="15.6667" y="10" dx="0">b</tspan><tspan x="21.3333" y="10" dx="0">i</tspan><tspan x="23.6667" y="10" dx="0">e</tspan><tspan x="29" y="10" dx="0">d</tspan><tspan x="34.6667" y="10" dx="0">s</tspan><tspan x="38.6667" y="10" dx="0">a</tspan><tspan x="43.6667" y="10" dx="0">a</tspan><tspan x="48.6667" y="10" dx="0">n</tspan><tspan x="54.3333" y="10" dx="0">w</tspan><tspan x="61.6667" y="10" dx="0">i</tspan><tspan x="64" y="10" dx="0">j</tspan><tspan x="66.3333" y="10" dx="0">z</tspan><tspan x="70.3333" y="10" dx="0">i</tspan><tspan x="72.6667" y="10" dx="0">n</tspan><tspan x="78.3333" y="10" dx="0">g</tspan><tspan x="83" y="10" dx="0">S</tspan><tspan x="87.6667" y="10" dx="0">y</tspan><tspan x="92.3333" y="10" dx="0">m</tspan><tspan x="100.333" y="10" dx="0">b</tspan><tspan x="105.667" y="10" dx="0">o</tspan><tspan x="111" y="10" dx="0">l</tspan><tspan x="113.333" y="10" dx="0">i</tspan><tspan x="115.667" y="10" dx="0">s</tspan><tspan x="119.667" y="10" dx="0">a</tspan><tspan x="124.333" y="10" dx="0 0">ti</tspan><tspan x="130" y="10" dx="0">e</tspan></text><g transform="matrix(1 0 0 -1 524 227)"><rect x="0" y="-13" width="49" height="13" stroke="none" fill="#FFFFFF"/></g><text stroke="none" fill="#595959" transform="translate(524 227)"><tspan x="0" y="10" dx="0">«</tspan><tspan x="5" y="10" dx="0">R</tspan><tspan x="10.3333" y="10" dx="0">e</tspan><tspan x="15.3333" y="10" dx="0">l</tspan><tspan x="17.6667" y="10" dx="0">a</tspan><tspan x="22.3333" y="10" dx="0 0">ti</tspan><tspan x="28" y="10" dx="0">e</tspan><tspan x="33" y="10" dx="0">r</tspan><tspan x="36.3333" y="10" dx="0">o</tspan><tspan x="41.6667" y="10" dx="0">l</tspan><tspan x="44" y="10" dx="0">»</tspan></text><g transform="matrix(1 0 0 -1 559 198)"><rect x="0" y="-13" width="17" height="13" stroke="none" fill="#FFFFFF"/></g><text stroke="none" fill="#595959" transform="translate(559 198)"><tspan x="0" y="10" dx="0">0..*</tspan></text><g transform="matrix(1 0 0 -1 153 330)"><rect x="0" y="-13" width="112" height="13" stroke="none" fill="#FFFFFF"/></g><text stroke="none" fill="#595959" transform="translate(153 330)"><tspan x="0" y="10" dx="0">+</tspan><tspan x="5.33333" y="10" dx="0">n</tspan><tspan x="11" y="10" dx="0">o</tspan><tspan x="16.6667" y="10" dx="0">r</tspan><tspan x="20" y="10" dx="0">m</tspan><tspan x="28.3333" y="10" dx="0">w</tspan><tspan x="35.6667" y="10" dx="0">a</tspan><tspan x="40.3333" y="10" dx="0">a</tspan><tspan x="45" y="10" dx="0">r</tspan><tspan x="48.3333" y="10" dx="0">d</tspan><tspan x="54" y="10" dx="0">e</tspan><tspan x="59.3333" y="10" dx="0">S</tspan><tspan x="64" y="10" dx="0">y</tspan><tspan x="68.6667" y="10" dx="0">m</tspan><tspan x="77" y="10" dx="0">b</tspan><tspan x="82.6667" y="10" dx="0">o</tspan><tspan x="88" y="10" dx="0">l</tspan><tspan x="90.3333" y="10" dx="0">i</tspan><tspan x="92.6667" y="10" dx="0">s</tspan><tspan x="96.6667" y="10" dx="0">a</tspan><tspan x="101.333" y="10" dx="0 0">ti</tspan><tspan x="107" y="10" dx="0">e</tspan></text><g transform="matrix(1 0 0 -1 216 343)"><rect x="0" y="-13" width="49" height="13" stroke="none" fill="#FFFFFF"/></g><text stroke="none" fill="#595959" transform="translate(216 343)"><tspan x="0" y="10" dx="0">«</tspan><tspan x="5" y="10" dx="0">R</tspan><tspan x="10.3333" y="10" dx="0">e</tspan><tspan x="15.3333" y="10" dx="0">l</tspan><tspan x="17.6667" y="10" dx="0">a</tspan><tspan x="22.3333" y="10" dx="0 0">ti</tspan><tspan x="28" y="10" dx="0">e</tspan><tspan x="33" y="10" dx="0">r</tspan><tspan x="36.3333" y="10" dx="0">o</tspan><tspan x="41.6667" y="10" dx="0">l</tspan><tspan x="44" y="10" dx="0">»</tspan></text><g transform="matrix(1 0 0 -1 281 351)"><rect x="0" y="-13" width="17" height="13" stroke="none" fill="#FFFFFF"/></g><text stroke="none" fill="#595959" transform="translate(281 351)"><tspan x="0" y="10" dx="0">0..*</tspan></text><g transform="matrix(1 0 0 -1 514 297)"><rect x="0" y="-13" width="169" height="13" stroke="none" fill="#FFFFFF"/></g><text stroke="none" fill="#595959" transform="translate(514 297)"><tspan x="0" y="10" dx="0">+</tspan><tspan x="5.33333" y="10" dx="0">a</tspan><tspan x="10.3333" y="10" dx="0">c</tspan><tspan x="15" y="10" dx="0 0">ti</tspan><tspan x="20.6667" y="10" dx="0">v</tspan><tspan x="25.6667" y="10" dx="0">i</tspan><tspan x="28" y="10" dx="0">t</tspan><tspan x="31.3333" y="10" dx="0">e</tspan><tspan x="36.6667" y="10" dx="0">i</tspan><tspan x="39" y="10" dx="0">t</tspan><tspan x="42.3333" y="10" dx="0">L</tspan><tspan x="46.6667" y="10" dx="0">o</tspan><tspan x="52" y="10" dx="0">c</tspan><tspan x="56.3333" y="10" dx="0">a</tspan><tspan x="61" y="10" dx="0 0">ti</tspan><tspan x="66.6667" y="10" dx="0">e</tspan><tspan x="71.6667" y="10" dx="0">a</tspan><tspan x="76.3333" y="10" dx="0">a</tspan><tspan x="81" y="10" dx="0">n</tspan><tspan x="86.3333" y="10" dx="0">d</tspan><tspan x="91.6667" y="10" dx="0">u</tspan><tspan x="97" y="10" dx="0">i</tspan><tspan x="99.3333" y="10" dx="0">d</tspan><tspan x="104.667" y="10" dx="0">i</tspan><tspan x="107" y="10" dx="0">n</tspan><tspan x="112.333" y="10" dx="0">g</tspan><tspan x="117" y="10" dx="0">S</tspan><tspan x="121.667" y="10" dx="0">y</tspan><tspan x="126.333" y="10" dx="0">m</tspan><tspan x="134.333" y="10" dx="0">b</tspan><tspan x="139.667" y="10" dx="0">o</tspan><tspan x="145" y="10" dx="0">l</tspan><tspan x="147.333" y="10" dx="0">i</tspan><tspan x="149.667" y="10" dx="0">s</tspan><tspan x="153.667" y="10" dx="0">a</tspan><tspan x="158.333" y="10" dx="0 0">ti</tspan><tspan x="164" y="10" dx="0">e</tspan></text><g transform="matrix(1 0 0 -1 571 310)"><rect x="0" y="-13" width="49" height="13" stroke="none" fill="#FFFFFF"/></g><text stroke="none" fill="#595959" transform="translate(571 310)"><tspan x="0" y="10" dx="0">«</tspan><tspan x="5" y="10" dx="0">R</tspan><tspan x="10.3333" y="10" dx="0">e</tspan><tspan x="15.3333" y="10" dx="0">l</tspan><tspan x="17.6667" y="10" dx="0">a</tspan><tspan x="22.3333" y="10" dx="0 0">ti</tspan><tspan x="28" y="10" dx="0">e</tspan><tspan x="33" y="10" dx="0">r</tspan><tspan x="36.3333" y="10" dx="0">o</tspan><tspan x="41.6667" y="10" dx="0">l</tspan><tspan x="44" y="10" dx="0">»</tspan></text><g transform="matrix(1 0 0 -1 576 341)"><rect x="0" y="-13" width="17" height="13" stroke="none" fill="#FFFFFF"/></g><text stroke="none" fill="#595959" transform="translate(576 341)"><tspan x="0" y="10" dx="0">0..*</tspan></text></g></g></g></g></svg>