<svg width="258.619" height="168.937" viewBox="142.18 419.099 193.964 126.703" xmlns="http://www.w3.org/2000/svg" xmlns:xlink="http://www.w3.org/1999/xlink" overflow="hidden"><g transform="matrix(1 0 0 -1 0 841)"><g stroke="#000000" stroke-linecap="round" stroke-linejoin="round" stroke-miterlimit="3" fill="none" fill-rule="evenodd" font-weight="400" baseline-shift="0"><g transform="matrix(0.75 0 0 0.75 0 841.65)"><g font-family="CalibriUnicode" font-size="13" transform="scale(1.0012 -1.00411)"><rect x="200" y="568" width="237" height="147" stroke="#9A8484"/><rect x="219" y="583" width="191" height="124" stroke="none" fill="#D0D0D0"/><rect x="216" y="580" width="190" height="123" stroke="none" stroke-width="2" fill="#D8BFD8"/><rect x="216" y="580" width="190" height="124" stroke="#9A8484" stroke-width="2"/><rect x="216" y="580" width="190" height="123" stroke="#9A8484" stroke-width="2"/><text stroke="none" fill="#000000" transform="translate(275 586)"><tspan x="0" y="12" dx="0">«</tspan><tspan x="6" y="12" dx="0">O</tspan><tspan x="15" y="12" dx="0">b</tspan><tspan x="22" y="12" dx="0">j</tspan><tspan x="25" y="12" dx="0">e</tspan><tspan x="32" y="12" dx="0">c</tspan><tspan x="38" y="12" dx="0 0">tt</tspan><tspan x="46" y="12" dx="0">y</tspan><tspan x="51" y="12" dx="0">p</tspan><tspan x="58" y="12" dx="0">e</tspan><tspan x="66" y="12" dx="0">»</tspan></text><text stroke="none" fill="#000000" font-weight="700" transform="translate(284 601)"><tspan x="0" y="12" dx="0">Geometrie</tspan></text><path d="M216 621 406 621" stroke="#9A8484" stroke-width="2"/><text stroke="none" fill="#000000" transform="translate(229 629)"><tspan x="0" y="12" dx="0">«</tspan><tspan x="6" y="12" dx="0">A</tspan><tspan x="14" y="12" dx="0 0">tt</tspan><tspan x="22" y="12" dx="0">r</tspan><tspan x="26" y="12" dx="0">i</tspan><tspan x="30" y="12" dx="0">b</tspan><tspan x="38" y="12" dx="0">u</tspan><tspan x="45" y="12" dx="0">u</tspan><tspan x="52" y="12" dx="0">t</tspan><tspan x="56" y="12" dx="0">s</tspan><tspan x="63" y="12" dx="0">o</tspan><tspan x="70" y="12" dx="0">o</tspan><tspan x="77" y="12" dx="0">r</tspan><tspan x="81" y="12" dx="0">t</tspan><tspan x="86" y="12" dx="0">»</tspan></text><text stroke="none" fill="#66413F" transform="translate(221 644)"><tspan x="0" y="12" dx="0">+</tspan></text><text stroke="none" fill="#66413F" transform="translate(242 644)"><tspan x="0" y="12" dx="0">id: CharacterString {id}</tspan></text><text stroke="none" fill="#66413F" transform="translate(221 659)"><tspan x="0" y="12" dx="0">+</tspan></text><text stroke="none" fill="#66413F" transform="translate(242 659)"><tspan x="0" y="12" dx="0">geometrie: GM_Object</tspan></text></g></g></g></g></svg>