<svg width="1049.84" height="576.52" viewBox="2.52563 24.9305 787.378 432.39" xmlns="http://www.w3.org/2000/svg" xmlns:xlink="http://www.w3.org/1999/xlink" overflow="hidden"><g transform="matrix(1 0 0 -1 0 768)"><g stroke="#000000" stroke-linecap="round" stroke-linejoin="round" stroke-miterlimit="3" fill="none" fill-rule="evenodd" font-weight="400" baseline-shift="0"><g transform="matrix(0.75 0 0 0.75 0 768.2)"><g font-family="CalibriUnicode" font-size="13" transform="scale(1.00244 -1.00395)"><rect x="14" y="44" width="1026" height="553" stroke="#9A8484"/><rect x="345" y="444" width="218" height="100" stroke="none" fill="#D0D0D0"/><rect x="342" y="441" width="217" height="99" stroke="none" stroke-width="2" fill="#CCFFCC"/><rect x="342" y="441" width="217" height="100" stroke="#9A8484" stroke-width="2"/><rect x="342" y="441" width="217" height="99" stroke="#9A8484" stroke-width="2"/><text stroke="none" fill="#000000" transform="translate(415 447)"><tspan x="0" y="12" dx="0">«</tspan><tspan x="6" y="12" dx="0">O</tspan><tspan x="15" y="12" dx="0">b</tspan><tspan x="22" y="12" dx="0">j</tspan><tspan x="25" y="12" dx="0">e</tspan><tspan x="32" y="12" dx="0">c</tspan><tspan x="38" y="12" dx="0 0">tt</tspan><tspan x="46" y="12" dx="0">y</tspan><tspan x="51" y="12" dx="0">p</tspan><tspan x="58" y="12" dx="0">e</tspan><tspan x="66" y="12" dx="0">»</tspan></text><text stroke="none" fill="#000000" font-weight="700" transform="translate(402 462)"><tspan x="0" y="12" dx="0">Omgevingswaarde</tspan></text><path d="M342 482 559 482" stroke="#9A8484" stroke-width="2"/><text stroke="none" fill="#000000" transform="translate(355 490)"><tspan x="0" y="12" dx="0">«</tspan><tspan x="6" y="12" dx="0">A</tspan><tspan x="14" y="12" dx="0 0">tt</tspan><tspan x="22" y="12" dx="0">r</tspan><tspan x="26" y="12" dx="0">i</tspan><tspan x="30" y="12" dx="0">b</tspan><tspan x="38" y="12" dx="0">u</tspan><tspan x="45" y="12" dx="0">u</tspan><tspan x="52" y="12" dx="0">t</tspan><tspan x="56" y="12" dx="0">s</tspan><tspan x="63" y="12" dx="0">o</tspan><tspan x="70" y="12" dx="0">o</tspan><tspan x="77" y="12" dx="0">r</tspan><tspan x="81" y="12" dx="0">t</tspan><tspan x="85" y="12" dx="0">»</tspan></text><text stroke="none" fill="#66413F" transform="translate(347 505)"><tspan x="0" y="12" dx="0">+</tspan></text><text stroke="none" fill="#66413F" transform="translate(368 505)"><tspan x="0" y="12" dx="0">groep: Omgevingswaardegroep</tspan></text><rect x="41" y="84" width="185" height="157" stroke="none" fill="#D0D0D0"/><rect x="38" y="81" width="184" height="156" stroke="none" stroke-width="2" fill="#CCFFFF"/><rect x="38" y="81" width="184" height="157" stroke="#9A8484" stroke-width="2"/><rect x="38" y="81" width="184" height="156" stroke="#9A8484" stroke-width="2"/><text stroke="none" fill="#000000" transform="translate(94 87)"><tspan x="0" y="12" dx="0">«</tspan><tspan x="6" y="12" dx="0">O</tspan><tspan x="15" y="12" dx="0">b</tspan><tspan x="22" y="12" dx="0">j</tspan><tspan x="25" y="12" dx="0">e</tspan><tspan x="32" y="12" dx="0">c</tspan><tspan x="38" y="12" dx="0 0">tt</tspan><tspan x="46" y="12" dx="0">y</tspan><tspan x="51" y="12" dx="0">p</tspan><tspan x="58" y="12" dx="0">e</tspan><tspan x="66" y="12" dx="0">»</tspan></text><text stroke="none" fill="#000000" font-style="italic" font-weight="700" transform="translate(91 102)"><tspan x="0" y="12" dx="0">JuridischeRegel</tspan></text><path d="M38 122 222 122" stroke="#9A8484" stroke-width="2"/><text stroke="none" fill="#000000" transform="translate(51 130)"><tspan x="0" y="12" dx="0">«</tspan><tspan x="6" y="12" dx="0">A</tspan><tspan x="14" y="12" dx="0 0">tt</tspan><tspan x="22" y="12" dx="0">r</tspan><tspan x="26" y="12" dx="0">i</tspan><tspan x="30" y="12" dx="0">b</tspan><tspan x="38" y="12" dx="0">u</tspan><tspan x="45" y="12" dx="0">u</tspan><tspan x="52" y="12" dx="0">t</tspan><tspan x="56" y="12" dx="0">s</tspan><tspan x="63" y="12" dx="0">o</tspan><tspan x="70" y="12" dx="0">o</tspan><tspan x="77" y="12" dx="0">r</tspan><tspan x="81" y="12" dx="0">t</tspan><tspan x="85" y="12" dx="0">»</tspan></text><text stroke="none" fill="#66413F" transform="translate(43 145)"><tspan x="0" y="12" dx="0">+</tspan></text><text stroke="none" fill="#66413F" transform="translate(64 145)"><tspan x="0" y="12" dx="0">i</tspan><tspan x="4" y="12" dx="0">d</tspan><tspan x="11" y="12" dx="0">e</tspan><tspan x="19" y="12" dx="0">n</tspan><tspan x="26" y="12" dx="0 0">ti</tspan><tspan x="34" y="12" dx="0 0">fi</tspan></text><text stroke="none" fill="#66413F" transform="translate(107 145)"><tspan x="0" y="12" dx="0">c</tspan><tspan x="5" y="12" dx="0">a</tspan><tspan x="11" y="12" dx="0 0">ti</tspan><tspan x="19" y="12" dx="0">e</tspan><tspan x="26" y="12" dx="0">:</tspan><tspan x="29" y="12" dx="0"> </tspan><tspan x="32" y="12" dx="0">N</tspan><tspan x="39" y="12" dx="0">E</tspan><tspan x="44" y="12" dx="0">N</tspan><tspan x="52" y="12" dx="0">3</tspan><tspan x="58" y="12" dx="0">6</tspan><tspan x="64" y="12" dx="0">1</tspan><tspan x="70" y="12" dx="0">0</tspan><tspan x="76" y="12" dx="0">I</tspan><tspan x="79" y="12" dx="0">D</tspan><tspan x="87" y="12" dx="0"> </tspan><tspan x="90" y="12" dx="0">{</tspan><tspan x="94" y="12" dx="0">i</tspan><tspan x="98" y="12" dx="0">d</tspan><tspan x="105" y="12" dx="0">}</tspan></text><text stroke="none" fill="#66413F" transform="translate(43 160)"><tspan x="0" y="12" dx="0">+</tspan></text><text stroke="none" fill="#66413F" transform="translate(64 160)"><tspan x="0" y="12" dx="0">i</tspan><tspan x="4" y="12" dx="0">d</tspan><tspan x="11" y="12" dx="0">e</tspan><tspan x="19" y="12" dx="0">a</tspan><tspan x="26" y="12" dx="0">l</tspan><tspan x="30" y="12" dx="0">i</tspan><tspan x="34" y="12" dx="0">s</tspan><tspan x="41" y="12" dx="0">a</tspan><tspan x="48" y="12" dx="0 0">ti</tspan><tspan x="56" y="12" dx="0">e</tspan><tspan x="64" y="12" dx="0">:</tspan><tspan x="67" y="12" dx="0"> </tspan><tspan x="70" y="12" dx="0">I</tspan><tspan x="74" y="12" dx="0">d</tspan><tspan x="81" y="12" dx="0">e</tspan><tspan x="89" y="12" dx="0">a</tspan><tspan x="96" y="12" dx="0">l</tspan><tspan x="100" y="12" dx="0">i</tspan><tspan x="104" y="12" dx="0">s</tspan><tspan x="110" y="12" dx="0">a</tspan><tspan x="118" y="12" dx="0 0">ti</tspan><tspan x="126" y="12" dx="0">e</tspan></text><text stroke="none" fill="#66413F" transform="translate(43 175)"><tspan x="0" y="12" dx="0">+</tspan></text><text stroke="none" fill="#66413F" transform="translate(64 175)"><tspan x="0" y="12" dx="0">thema: Thema [0..*]</tspan></text><rect x="681" y="104" width="211" height="117" stroke="none" fill="#D0D0D0"/><rect x="678" y="101" width="210" height="116" stroke="none" fill="#FFE4E1"/><rect x="678" y="101" width="210" height="117" stroke="#9A8484"/><rect x="678" y="101" width="210" height="116" stroke="#9A8484"/><text stroke="none" fill="#000000" transform="translate(747 107)"><tspan x="0" y="12" dx="0">«</tspan><tspan x="6" y="12" dx="0">O</tspan><tspan x="15" y="12" dx="0">b</tspan><tspan x="22" y="12" dx="0">j</tspan><tspan x="25" y="12" dx="0">e</tspan><tspan x="32" y="12" dx="0">c</tspan><tspan x="38" y="12" dx="0 0">tt</tspan><tspan x="46" y="12" dx="0">y</tspan><tspan x="51" y="12" dx="0">p</tspan><tspan x="58" y="12" dx="0">e</tspan><tspan x="66" y="12" dx="0">»</tspan></text><text stroke="none" fill="#000000" font-style="italic" font-weight="700" transform="translate(765 122)"><tspan x="0" y="12" dx="0">L</tspan><tspan x="5" y="12" dx="0">o</tspan><tspan x="11" y="12" dx="0">c</tspan><tspan x="17" y="12" dx="0">a</tspan><tspan x="23" y="12" dx="0 0">ti</tspan><tspan x="30" y="12" dx="0">e</tspan></text><path d="M678 142 888 142" stroke="#9A8484"/><text stroke="none" fill="#000000" transform="translate(691 150)"><tspan x="0" y="12" dx="0">«</tspan><tspan x="6" y="12" dx="0">A</tspan><tspan x="14" y="12" dx="0 0">tt</tspan><tspan x="22" y="12" dx="0">r</tspan><tspan x="26" y="12" dx="0">i</tspan><tspan x="30" y="12" dx="0">b</tspan><tspan x="38" y="12" dx="0">u</tspan><tspan x="45" y="12" dx="0">u</tspan><tspan x="52" y="12" dx="0">t</tspan><tspan x="56" y="12" dx="0">s</tspan><tspan x="63" y="12" dx="0">o</tspan><tspan x="70" y="12" dx="0">o</tspan><tspan x="77" y="12" dx="0">r</tspan><tspan x="81" y="12" dx="0">t</tspan><tspan x="85" y="12" dx="0">»</tspan></text><text stroke="none" fill="#66413F" transform="translate(683 165)"><tspan x="0" y="12" dx="0">+</tspan></text><text stroke="none" fill="#66413F" transform="translate(704 165)"><tspan x="0" y="12" dx="0">i</tspan><tspan x="4" y="12" dx="0">d</tspan><tspan x="11" y="12" dx="0">e</tspan><tspan x="19" y="12" dx="0">n</tspan><tspan x="26" y="12" dx="0 0">ti</tspan><tspan x="34" y="12" dx="0 0">fi</tspan><tspan x="43" y="12" dx="0">c</tspan><tspan x="48" y="12" dx="0">a</tspan><tspan x="55" y="12" dx="0 0">ti</tspan><tspan x="64" y="12" dx="0">e</tspan><tspan x="71" y="12" dx="0">:</tspan><tspan x="74" y="12" dx="0"> </tspan><tspan x="77" y="12" dx="0">N</tspan><tspan x="85" y="12" dx="0">E</tspan><tspan x="92" y="12" dx="0">N</tspan><tspan x="100" y="12" dx="0">3</tspan><tspan x="106" y="12" dx="0">6</tspan><tspan x="113" y="12" dx="0">1</tspan><tspan x="119" y="12" dx="0">0</tspan><tspan x="125" y="12" dx="0">I</tspan><tspan x="129" y="12" dx="0">D</tspan><tspan x="138" y="12" dx="0">_</tspan><tspan x="144" y="12" dx="0">L</tspan></text><text stroke="none" fill="#66413F" transform="translate(853 165)"><tspan x="0" y="12" dx="0">o</tspan><tspan x="7" y="12" dx="0">c</tspan><tspan x="11" y="12" dx="0">a</tspan><tspan x="17" y="12" dx="0 0">ti</tspan><tspan x="25" y="12" dx="0">e</tspan></text><text stroke="none" fill="#66413F" transform="translate(683 180)"><tspan x="0" y="12" dx="0">+</tspan></text><text stroke="none" fill="#66413F" transform="translate(704 180)"><tspan x="0" y="12" dx="0">noemer: CharacterString [0..1]</tspan></text><rect x="318" y="187" width="273" height="206" stroke="none" fill="#D0D0D0"/><rect x="315" y="184" width="272" height="205" stroke="none" stroke-width="2" fill="#CCFFCC"/><rect x="315" y="184" width="272" height="206" stroke="#9A8484" stroke-width="2"/><rect x="315" y="184" width="272" height="205" stroke="#9A8484" stroke-width="2"/><text stroke="none" fill="#000000" transform="translate(415 190)"><tspan x="0" y="12" dx="0">«</tspan><tspan x="6" y="12" dx="0">O</tspan><tspan x="15" y="12" dx="0">b</tspan><tspan x="22" y="12" dx="0">j</tspan><tspan x="25" y="12" dx="0">e</tspan><tspan x="32" y="12" dx="0">c</tspan><tspan x="38" y="12" dx="0 0">tt</tspan><tspan x="46" y="12" dx="0">y</tspan><tspan x="51" y="12" dx="0">p</tspan><tspan x="58" y="12" dx="0">e</tspan><tspan x="66" y="12" dx="0">»</tspan></text><text stroke="none" fill="#000000" font-style="italic" font-weight="700" transform="translate(437 205)"><tspan x="0" y="12" dx="0">Norm</tspan></text><path d="M315 225 587 225" stroke="#9A8484" stroke-width="2"/><text stroke="none" fill="#000000" transform="translate(328 233)"><tspan x="0" y="12" dx="0">«</tspan><tspan x="6" y="12" dx="0">A</tspan><tspan x="14" y="12" dx="0 0">tt</tspan><tspan x="22" y="12" dx="0">r</tspan><tspan x="26" y="12" dx="0">i</tspan><tspan x="30" y="12" dx="0">b</tspan><tspan x="38" y="12" dx="0">u</tspan><tspan x="45" y="12" dx="0">u</tspan><tspan x="52" y="12" dx="0">t</tspan><tspan x="56" y="12" dx="0">s</tspan><tspan x="63" y="12" dx="0">o</tspan><tspan x="70" y="12" dx="0">o</tspan><tspan x="77" y="12" dx="0">r</tspan><tspan x="81" y="12" dx="0">t</tspan><tspan x="85" y="12" dx="0">»</tspan></text><text stroke="none" fill="#66413F" transform="translate(320 248)"><tspan x="0" y="12" dx="0">+</tspan></text><text stroke="none" fill="#66413F" transform="translate(341 248)"><tspan x="0" y="12" dx="0">i</tspan><tspan x="4" y="12" dx="0">d</tspan><tspan x="11" y="12" dx="0">e</tspan><tspan x="19" y="12" dx="0">n</tspan><tspan x="26" y="12" dx="0 0">ti</tspan><tspan x="34" y="12" dx="0 0">fi</tspan><tspan x="43" y="12" dx="0">c</tspan><tspan x="48" y="12" dx="0">a</tspan><tspan x="55" y="12" dx="0 0">ti</tspan><tspan x="64" y="12" dx="0">e</tspan><tspan x="71" y="12" dx="0">:</tspan><tspan x="74" y="12" dx="0"> </tspan><tspan x="77" y="12" dx="0">N</tspan><tspan x="85" y="12" dx="0">E</tspan><tspan x="92" y="12" dx="0">N</tspan><tspan x="100" y="12" dx="0">3</tspan><tspan x="106" y="12" dx="0">6</tspan><tspan x="113" y="12" dx="0">1</tspan><tspan x="119" y="12" dx="0">0</tspan><tspan x="125" y="12" dx="0">I</tspan><tspan x="129" y="12" dx="0">D</tspan><tspan x="138" y="12" dx="0"> </tspan><tspan x="141" y="12" dx="0">{</tspan><tspan x="145" y="12" dx="0">i</tspan><tspan x="149" y="12" dx="0">d</tspan><tspan x="156" y="12" dx="0">}</tspan></text><text stroke="none" fill="#66413F" transform="translate(320 263)"><tspan x="0" y="12" dx="0">+</tspan></text><text stroke="none" fill="#66413F" transform="translate(341 263)"><tspan x="0" y="12" dx="0">naam: CharacterString</tspan></text><text stroke="none" fill="#66413F" transform="translate(320 278)"><tspan x="0" y="12" dx="0">+</tspan></text><text stroke="none" fill="#66413F" transform="translate(341 278)"><tspan x="0" y="12" dx="0">type: Typenorm</tspan></text><text stroke="none" fill="#66413F" transform="translate(320 293)"><tspan x="0" y="12" dx="0">+</tspan></text><text stroke="none" fill="#66413F" transform="translate(341 293)"><tspan x="0" y="12" dx="0">eenheid: Eenheid [0..1]</tspan></text><text stroke="none" fill="#000000" transform="translate(328 312)"><tspan x="0" y="12" dx="0">«Gegevensgroep»</tspan></text><text stroke="none" fill="#66413F" transform="translate(320 327)"><tspan x="0" y="12" dx="0">+</tspan></text><text stroke="none" fill="#66413F" transform="translate(341 327)"><tspan x="0" y="12" dx="0">normwaarde: Normwaarde [1..*]</tspan></text><path d="M315 346 587 346" stroke="#9A8484" stroke-width="2"/><text stroke="none" fill="#000000" font-style="italic" transform="translate(422 350)"><tspan x="0" y="12" dx="0">constraints</tspan></text><text stroke="none" fill="#000000" transform="translate(320 365)"><tspan x="0" y="12" dx="0">{</tspan><tspan x="4" y="12" dx="0">e</tspan><tspan x="11" y="12" dx="0">e</tspan><tspan x="19" y="12" dx="0">n</tspan><tspan x="26" y="12" dx="0">h</tspan><tspan x="33" y="12" dx="0">e</tspan><tspan x="41" y="12" dx="0">i</tspan><tspan x="45" y="12" dx="0">d</tspan><tspan x="52" y="12" dx="0"> </tspan><tspan x="55" y="12" dx="0">a</tspan><tspan x="63" y="12" dx="0">l</tspan><tspan x="67" y="12" dx="0">l</tspan><tspan x="71" y="12" dx="0">e</tspan><tspan x="78" y="12" dx="0">e</tspan><tspan x="85" y="12" dx="0">n</tspan><tspan x="93" y="12" dx="0"> </tspan><tspan x="96" y="12" dx="0">b</tspan><tspan x="103" y="12" dx="0">i</tspan><tspan x="107" y="12" dx="0">j</tspan><tspan x="110" y="12" dx="0"> </tspan><tspan x="114" y="12" dx="0">k</tspan><tspan x="120" y="12" dx="0">w</tspan><tspan x="129" y="12" dx="0">a</tspan><tspan x="137" y="12" dx="0">n</tspan><tspan x="144" y="12" dx="0 0">ti</tspan></text><text stroke="none" fill="#000000" transform="translate(472 365)"><tspan x="0" y="12" dx="0">t</tspan><tspan x="4" y="12" dx="0">a</tspan><tspan x="10" y="12" dx="0 0">ti</tspan><tspan x="18" y="12" dx="0">e</tspan><tspan x="24" y="12" dx="0">v</tspan><tspan x="28" y="12" dx="0">e</tspan><tspan x="35" y="12" dx="0"> </tspan><tspan x="38" y="12" dx="0">n</tspan><tspan x="44" y="12" dx="0">o</tspan><tspan x="50" y="12" dx="0">r</tspan><tspan x="53" y="12" dx="0">m</tspan><tspan x="62" y="12" dx="0">w</tspan><tspan x="70" y="12" dx="0">a</tspan><tspan x="76" y="12" dx="0">a</tspan><tspan x="82" y="12" dx="0">r</tspan><tspan x="85" y="12" dx="0">d</tspan><tspan x="91" y="12" dx="0">e</tspan><tspan x="97" y="12" dx="0">n</tspan><tspan x="104" y="12" dx="0">}</tspan></text><rect x="600" y="371" width="364" height="187" stroke="none" fill="#D0D0D0"/><rect x="597" y="368" width="363" height="186" stroke="none" stroke-width="2" fill="#CCFFCC"/><rect x="597" y="368" width="363" height="187" stroke="#9A8484" stroke-width="2"/><rect x="597" y="368" width="363" height="186" stroke="#9A8484" stroke-width="2"/><text stroke="none" fill="#000000" transform="translate(719 374)"><tspan x="0" y="12" dx="0">«Gegevensgroeptype»</tspan></text><text stroke="none" fill="#000000" font-weight="700" transform="translate(745 389)"><tspan x="0" y="12" dx="0">Normwaarde</tspan></text><path d="M597 409 960 409" stroke="#9A8484" stroke-width="2"/><text stroke="none" fill="#000000" transform="translate(610 417)"><tspan x="0" y="12" dx="0">«</tspan><tspan x="6" y="12" dx="0">A</tspan><tspan x="14" y="12" dx="0 0">tt</tspan><tspan x="22" y="12" dx="0">r</tspan><tspan x="26" y="12" dx="0">i</tspan><tspan x="30" y="12" dx="0">b</tspan><tspan x="38" y="12" dx="0">u</tspan><tspan x="45" y="12" dx="0">u</tspan><tspan x="52" y="12" dx="0">t</tspan><tspan x="56" y="12" dx="0">s</tspan><tspan x="63" y="12" dx="0">o</tspan><tspan x="70" y="12" dx="0">o</tspan><tspan x="77" y="12" dx="0">r</tspan><tspan x="81" y="12" dx="0">t</tspan><tspan x="85" y="12" dx="0">»</tspan></text><text stroke="none" fill="#66413F" transform="translate(602 432)"><tspan x="0" y="12" dx="0">+</tspan></text><text stroke="none" fill="#66413F" transform="translate(623 432)"><tspan x="0" y="12" dx="0">i</tspan><tspan x="4" y="12" dx="0">d</tspan><tspan x="11" y="12" dx="0">e</tspan><tspan x="19" y="12" dx="0">n</tspan><tspan x="26" y="12" dx="0 0">ti</tspan><tspan x="34" y="12" dx="0 0">fi</tspan><tspan x="43" y="12" dx="0">c</tspan><tspan x="48" y="12" dx="0">a</tspan><tspan x="55" y="12" dx="0 0">ti</tspan><tspan x="64" y="12" dx="0">e</tspan><tspan x="71" y="12" dx="0">:</tspan><tspan x="74" y="12" dx="0"> </tspan><tspan x="77" y="12" dx="0">N</tspan><tspan x="85" y="12" dx="0">E</tspan><tspan x="92" y="12" dx="0">N</tspan><tspan x="100" y="12" dx="0">3</tspan><tspan x="106" y="12" dx="0">6</tspan><tspan x="113" y="12" dx="0">1</tspan><tspan x="119" y="12" dx="0">0</tspan><tspan x="125" y="12" dx="0">I</tspan><tspan x="129" y="12" dx="0">D</tspan><tspan x="138" y="12" dx="0"> </tspan><tspan x="141" y="12" dx="0">{</tspan><tspan x="145" y="12" dx="0">i</tspan><tspan x="149" y="12" dx="0">d</tspan><tspan x="156" y="12" dx="0">}</tspan></text><text stroke="none" fill="#66413F" transform="translate(602 447)"><tspan x="0" y="12" dx="0">+</tspan></text><text stroke="none" fill="#66413F" transform="translate(623 447)"><tspan x="0" y="12" dx="0">k</tspan><tspan x="6" y="12" dx="0">w</tspan><tspan x="16" y="12" dx="0">a</tspan><tspan x="23" y="12" dx="0">l</tspan><tspan x="27" y="12" dx="0">i</tspan><tspan x="31" y="12" dx="0">t</tspan><tspan x="35" y="12" dx="0">a</tspan><tspan x="43" y="12" dx="0 0">ti</tspan><tspan x="51" y="12" dx="0">e</tspan><tspan x="58" y="12" dx="0">v</tspan><tspan x="64" y="12" dx="0">e</tspan><tspan x="71" y="12" dx="0">W</tspan><tspan x="82" y="12" dx="0">a</tspan><tspan x="90" y="12" dx="0">a</tspan><tspan x="97" y="12" dx="0">r</tspan><tspan x="101" y="12" dx="0">d</tspan><tspan x="108" y="12" dx="0">e</tspan><tspan x="116" y="12" dx="0">:</tspan><tspan x="119" y="12" dx="0"> </tspan><tspan x="122" y="12" dx="0">C</tspan><tspan x="128" y="12" dx="0">h</tspan><tspan x="135" y="12" dx="0">a</tspan><tspan x="143" y="12" dx="0">r</tspan><tspan x="147" y="12" dx="0">a</tspan><tspan x="154" y="12" dx="0">c</tspan><tspan x="159" y="12" dx="0">t</tspan><tspan x="164" y="12" dx="0">e</tspan><tspan x="171" y="12" dx="0">r</tspan><tspan x="175" y="12" dx="0">S</tspan><tspan x="181" y="12" dx="0">t</tspan><tspan x="185" y="12" dx="0">r</tspan><tspan x="190" y="12" dx="0">i</tspan><tspan x="194" y="12" dx="0">n</tspan><tspan x="201" y="12" dx="0">g</tspan><tspan x="207" y="12" dx="0"> </tspan><tspan x="210" y="12" dx="0">[</tspan><tspan x="215" y="12" dx="0">0</tspan><tspan x="221" y="12" dx="0">.</tspan><tspan x="224" y="12" dx="0">.</tspan><tspan x="227" y="12" dx="0">1</tspan><tspan x="233" y="12" dx="0">]</tspan></text><text stroke="none" fill="#66413F" transform="translate(602 462)"><tspan x="0" y="12" dx="0">+</tspan></text><text stroke="none" fill="#66413F" transform="translate(623 462)"><tspan x="0" y="12" dx="0">k</tspan><tspan x="6" y="12" dx="0">w</tspan><tspan x="16" y="12" dx="0">a</tspan><tspan x="23" y="12" dx="0">n</tspan><tspan x="30" y="12" dx="0 0">ti</tspan><tspan x="39" y="12" dx="0">t</tspan><tspan x="43" y="12" dx="0">a</tspan><tspan x="50" y="12" dx="0 0">ti</tspan><tspan x="58" y="12" dx="0">e</tspan><tspan x="66" y="12" dx="0">v</tspan><tspan x="71" y="12" dx="0">e</tspan><tspan x="78" y="12" dx="0">W</tspan><tspan x="90" y="12" dx="0">a</tspan><tspan x="97" y="12" dx="0">a</tspan><tspan x="104" y="12" dx="0">r</tspan><tspan x="108" y="12" dx="0">d</tspan><tspan x="116" y="12" dx="0">e</tspan><tspan x="123" y="12" dx="0">:</tspan><tspan x="126" y="12" dx="0"> </tspan><tspan x="129" y="12" dx="0">R</tspan><tspan x="137" y="12" dx="0">e</tspan><tspan x="144" y="12" dx="0">a</tspan><tspan x="151" y="12" dx="0">l</tspan><tspan x="155" y="12" dx="0"> </tspan><tspan x="158" y="12" dx="0">[</tspan><tspan x="163" y="12" dx="0">0</tspan><tspan x="169" y="12" dx="0">.</tspan><tspan x="172" y="12" dx="0">.</tspan><tspan x="175" y="12" dx="0">1</tspan><tspan x="181" y="12" dx="0">]</tspan></text><text stroke="none" fill="#66413F" transform="translate(602 477)"><tspan x="0" y="12" dx="0">+</tspan></text><text stroke="none" fill="#66413F" transform="translate(623 477)"><tspan x="0" y="12" dx="0">waardeInRegeltekst: CharacterString [0..1]</tspan></text><path d="M597 496 960 496" stroke="#9A8484" stroke-width="2"/><text stroke="none" fill="#000000" font-style="italic" transform="translate(750 500)"><tspan x="0" y="12" dx="0">constraints</tspan></text><text stroke="none" fill="#000000" transform="translate(602 515)"><tspan x="0" y="12" dx="0">{</tspan><tspan x="4" y="12" dx="0">w</tspan><tspan x="14" y="12" dx="0">a</tspan><tspan x="21" y="12" dx="0">a</tspan><tspan x="28" y="12" dx="0">r</tspan><tspan x="32" y="12" dx="0">d</tspan><tspan x="40" y="12" dx="0">e</tspan><tspan x="47" y="12" dx="0"> </tspan><tspan x="50" y="12" dx="0">i</tspan><tspan x="54" y="12" dx="0">s</tspan><tspan x="60" y="12" dx="0"> </tspan><tspan x="64" y="12" dx="0">k</tspan><tspan x="70" y="12" dx="0">w</tspan><tspan x="79" y="12" dx="0">a</tspan><tspan x="86" y="12" dx="0">l</tspan><tspan x="91" y="12" dx="0">i</tspan><tspan x="95" y="12" dx="0">t</tspan><tspan x="99" y="12" dx="0">a</tspan><tspan x="106" y="12" dx="0 0">ti</tspan><tspan x="115" y="12" dx="0">e</tspan><tspan x="122" y="12" dx="0">f</tspan><tspan x="126" y="12" dx="0"> </tspan><tspan x="129" y="12" dx="0">o</tspan><tspan x="137" y="12" dx="0">f</tspan><tspan x="141" y="12" dx="0"> </tspan><tspan x="144" y="12" dx="0">k</tspan><tspan x="150" y="12" dx="0">w</tspan><tspan x="159" y="12" dx="0">a</tspan><tspan x="167" y="12" dx="0">n</tspan><tspan x="174" y="12" dx="0 0">ti</tspan><tspan x="182" y="12" dx="0">t</tspan><tspan x="187" y="12" dx="0">a</tspan><tspan x="194" y="12" dx="0 0">ti</tspan><tspan x="202" y="12" dx="0">e</tspan><tspan x="209" y="12" dx="0">f</tspan><tspan x="214" y="12" dx="0"> </tspan><tspan x="217" y="12" dx="0">o</tspan><tspan x="224" y="12" dx="0">f</tspan><tspan x="228" y="12" dx="0"> </tspan><tspan x="231" y="12" dx="0">w</tspan><tspan x="241" y="12" dx="0">a</tspan><tspan x="248" y="12" dx="0">a</tspan><tspan x="255" y="12" dx="0">r</tspan><tspan x="259" y="12" dx="0">d</tspan><tspan x="267" y="12" dx="0">e</tspan><tspan x="274" y="12" dx="0">I</tspan><tspan x="278" y="12" dx="0">n</tspan><tspan x="286" y="12" dx="0">R</tspan><tspan x="293" y="12" dx="0">e</tspan><tspan x="300" y="12" dx="0">g</tspan><tspan x="306" y="12" dx="0">e</tspan><tspan x="314" y="12" dx="0">l</tspan><tspan x="318" y="12" dx="0">t</tspan><tspan x="322" y="12" dx="0">e</tspan><tspan x="329" y="12" dx="0">k</tspan><tspan x="336" y="12" dx="0">s</tspan><tspan x="342" y="12" dx="0">t</tspan><tspan x="346" y="12" dx="0">}</tspan></text><rect x="56" y="447" width="146" height="94" stroke="none" fill="#D0D0D0"/><rect x="53" y="444" width="145" height="93" stroke="none" fill="#CCFFFF"/><rect x="53" y="444" width="145" height="94" stroke="#9A8484"/><rect x="53" y="444" width="145" height="93" stroke="#9A8484"/><text stroke="none" fill="#000000" font-size="14" transform="translate(88 450)"><tspan x="0" y="13" dx="0">«</tspan><tspan x="7" y="13" dx="0">O</tspan><tspan x="17" y="13" dx="0">b</tspan><tspan x="24" y="13" dx="0">j</tspan><tspan x="28" y="13" dx="0">e</tspan><tspan x="34" y="13" dx="0">c</tspan><tspan x="41" y="13" dx="0 0">tt</tspan><tspan x="49" y="13" dx="0">y</tspan><tspan x="55" y="13" dx="0">p</tspan><tspan x="63" y="13" dx="0">e</tspan><tspan x="69" y="13" dx="0">»</tspan></text><text stroke="none" fill="#000000" font-weight="700" font-size="14" transform="translate(78 467)"><tspan x="0" y="13" dx="0">JuridischeRegel::</tspan><tspan x="-19" y="30" dx="0">Omgevingswaarderegel</tspan></text><path d="M776 367 778 218M778 218 784 233M778 218 772 233" stroke="#69738C" stroke-width="2"/><path d="M224 147 678 148M678 148 663 154M678 148 663 142" stroke="#69738C" stroke-width="2"/><path d="M126 444 126 238" stroke="#69738C" stroke-width="2"/><path d="M132 254 120 254 126 238 132 254" stroke="#69738C" stroke-width="2" fill="#FAF1EC"/><path d="M199 484 342 484M342 484 327 490M342 484 327 478" stroke="#69738C" stroke-width="2"/><path d="M445 440 445 391" stroke="#69738C" stroke-width="2"/><path d="M451 407 439 407 445 391 451 407" stroke="#69738C" stroke-width="2" fill="#FAF1EC"/><g transform="matrix(1 0 0 -1 210 453)"><rect x="0" y="-13" width="128" height="13" stroke="none" fill="#FFFFFF"/></g><text stroke="none" fill="#595959" font-size="10" transform="translate(210 453)"><tspan x="0" y="10" dx="0">+omgevingswaardeaanduiding</tspan></text><g transform="matrix(1 0 0 -1 210 466)"><rect x="0" y="-13" width="49" height="13" stroke="none" fill="#FFFFFF"/></g><text stroke="none" fill="#595959" font-size="10" transform="translate(210 466)"><tspan x="0" y="10" dx="0">«</tspan><tspan x="5" y="10" dx="0">R</tspan><tspan x="10.3333" y="10" dx="0">e</tspan><tspan x="15.3333" y="10" dx="0">l</tspan><tspan x="17.6667" y="10" dx="0">a</tspan><tspan x="22.3333" y="10" dx="0 0">ti</tspan><tspan x="28" y="10" dx="0">e</tspan><tspan x="33" y="10" dx="0">r</tspan><tspan x="36.3333" y="10" dx="0">o</tspan><tspan x="41.6667" y="10" dx="0">l</tspan><tspan x="44" y="10" dx="0">»</tspan></text><g transform="matrix(1 0 0 -1 323 489)"><rect x="0" y="-13" width="17" height="13" stroke="none" fill="#FFFFFF"/></g><text stroke="none" fill="#595959" font-size="10" transform="translate(323 489)"><tspan x="0" y="10" dx="0">0..*</tspan></text><g transform="matrix(1 0 0 -1 575 114)"><rect x="0" y="-13" width="78" height="13" stroke="none" fill="#FFFFFF"/></g><text stroke="none" fill="#595959" font-size="10" transform="translate(575 114)"><tspan x="0" y="10" dx="0">+</tspan><tspan x="5.33333" y="10" dx="0">l</tspan><tspan x="7.66667" y="10" dx="0">o</tspan><tspan x="13" y="10" dx="0">c</tspan><tspan x="17.3333" y="10" dx="0">a</tspan><tspan x="22" y="10" dx="0 0">ti</tspan><tspan x="27.6667" y="10" dx="0">e</tspan><tspan x="32.6667" y="10" dx="0">a</tspan><tspan x="37.3333" y="10" dx="0">a</tspan><tspan x="42" y="10" dx="0">n</tspan><tspan x="47.3333" y="10" dx="0">d</tspan><tspan x="52.6667" y="10" dx="0">u</tspan><tspan x="58" y="10" dx="0">i</tspan><tspan x="60.3333" y="10" dx="0">d</tspan><tspan x="65.6667" y="10" dx="0">i</tspan><tspan x="68" y="10" dx="0">n</tspan><tspan x="73.3333" y="10" dx="0">g</tspan></text><g transform="matrix(1 0 0 -1 604 127)"><rect x="0" y="-13" width="49" height="13" stroke="none" fill="#FFFFFF"/></g><text stroke="none" fill="#595959" font-size="10" transform="translate(604 127)"><tspan x="0" y="10" dx="0">«</tspan><tspan x="5" y="10" dx="0">R</tspan><tspan x="10.3333" y="10" dx="0">e</tspan><tspan x="15.3333" y="10" dx="0">l</tspan><tspan x="17.6667" y="10" dx="0">a</tspan><tspan x="22.3333" y="10" dx="0 0">ti</tspan><tspan x="28" y="10" dx="0">e</tspan><tspan x="33" y="10" dx="0">r</tspan><tspan x="36.3333" y="10" dx="0">o</tspan><tspan x="41.6667" y="10" dx="0">l</tspan><tspan x="44" y="10" dx="0">»</tspan></text><g transform="matrix(1 0 0 -1 633 155)"><rect x="0" y="-13" width="17" height="13" stroke="none" fill="#FFFFFF"/></g><text stroke="none" fill="#595959" font-size="10" transform="translate(633 155)"><tspan x="0" y="10" dx="0">1..*</tspan></text><g transform="matrix(1 0 0 -1 791 245)"><rect x="0" y="-13" width="78" height="13" stroke="none" fill="#FFFFFF"/></g><text stroke="none" fill="#595959" font-size="10" transform="translate(791 245)"><tspan x="0" y="10" dx="0">+</tspan><tspan x="5.33333" y="10" dx="0">l</tspan><tspan x="7.66667" y="10" dx="0">o</tspan><tspan x="13" y="10" dx="0">c</tspan><tspan x="17.3333" y="10" dx="0">a</tspan><tspan x="22" y="10" dx="0 0">ti</tspan><tspan x="27.6667" y="10" dx="0">e</tspan><tspan x="32.6667" y="10" dx="0">a</tspan><tspan x="37.3333" y="10" dx="0">a</tspan><tspan x="42" y="10" dx="0">n</tspan><tspan x="47.3333" y="10" dx="0">d</tspan><tspan x="52.6667" y="10" dx="0">u</tspan><tspan x="58" y="10" dx="0">i</tspan><tspan x="60.3333" y="10" dx="0">d</tspan><tspan x="65.6667" y="10" dx="0">i</tspan><tspan x="68" y="10" dx="0">n</tspan><tspan x="73.3333" y="10" dx="0">g</tspan></text><g transform="matrix(1 0 0 -1 791 258)"><rect x="0" y="-13" width="49" height="13" stroke="none" fill="#FFFFFF"/></g><text stroke="none" fill="#595959" font-size="10" transform="translate(791 258)"><tspan x="0" y="10" dx="0">«</tspan><tspan x="5" y="10" dx="0">R</tspan><tspan x="10.3333" y="10" dx="0">e</tspan><tspan x="15.3333" y="10" dx="0">l</tspan><tspan x="17.6667" y="10" dx="0">a</tspan><tspan x="22.3333" y="10" dx="0 0">ti</tspan><tspan x="28" y="10" dx="0">e</tspan><tspan x="33" y="10" dx="0">r</tspan><tspan x="36.3333" y="10" dx="0">o</tspan><tspan x="41.6667" y="10" dx="0">l</tspan><tspan x="44" y="10" dx="0">»</tspan></text><g transform="matrix(1 0 0 -1 798 230)"><rect x="0" y="-13" width="17" height="13" stroke="none" fill="#FFFFFF"/></g><text stroke="none" fill="#595959" font-size="10" transform="translate(798 230)"><tspan x="0" y="10" dx="0">1..*</tspan></text></g></g></g></g></svg>