<svg width="704.572" height="565.558" viewBox="227.928 114.102 528.429 424.169" xmlns="http://www.w3.org/2000/svg" xmlns:xlink="http://www.w3.org/1999/xlink" overflow="hidden"><g transform="matrix(1 0 0 -1 0 841)"><g stroke="#000000" stroke-linecap="round" stroke-linejoin="round" stroke-miterlimit="3" fill="none" fill-rule="evenodd" font-weight="400" baseline-shift="0"><g transform="matrix(0.75 0 0 0.75 0 841.65)"><g font-family="CalibriUnicode" font-size="10" transform="scale(1.00182 -1.00411)"><rect x="314" y="163" width="682" height="542" stroke="#9A8484"/><rect x="740" y="446" width="222" height="147" stroke="none" fill="#D0D0D0"/><rect x="737" y="443" width="221" height="146" stroke="none" stroke-width="2" fill="#FFE4E1"/><rect x="737" y="443" width="221" height="147" stroke="#9A8484" stroke-width="2"/><rect x="737" y="443" width="221" height="146" stroke="#9A8484" stroke-width="2"/><text stroke="none" fill="#000000" font-size="14" transform="translate(810 449)"><tspan x="0" y="13" dx="0">«</tspan><tspan x="7" y="13" dx="0">O</tspan><tspan x="17" y="13" dx="0">b</tspan><tspan x="24" y="13" dx="0">j</tspan><tspan x="28" y="13" dx="0">e</tspan><tspan x="34" y="13" dx="0">c</tspan><tspan x="41" y="13" dx="0 0">tt</tspan><tspan x="49" y="13" dx="0">y</tspan><tspan x="55" y="13" dx="0">p</tspan><tspan x="63" y="13" dx="0">e</tspan><tspan x="69" y="13" dx="0">»</tspan></text><text stroke="none" fill="#000000" font-style="italic" font-weight="700" font-size="14" transform="translate(827 466)"><tspan x="0" y="13" dx="0">L</tspan><tspan x="6" y="13" dx="0">o</tspan><tspan x="14" y="13" dx="0">c</tspan><tspan x="19" y="13" dx="0">a</tspan><tspan x="26" y="13" dx="0 0">ti</tspan><tspan x="34" y="13" dx="0">e</tspan></text><path d="M737 488 958 488" stroke="#9A8484" stroke-width="2"/><text stroke="none" fill="#000000" font-size="14" transform="translate(751 496)"><tspan x="0" y="13" dx="0">«</tspan><tspan x="7" y="13" dx="0">A</tspan><tspan x="15" y="13" dx="0 0">tt</tspan><tspan x="23" y="13" dx="0">r</tspan><tspan x="28" y="13" dx="0">i</tspan><tspan x="32" y="13" dx="0">b</tspan><tspan x="40" y="13" dx="0">u</tspan><tspan x="47" y="13" dx="0">u</tspan><tspan x="54" y="13" dx="0">t</tspan><tspan x="58" y="13" dx="0">s</tspan><tspan x="65" y="13" dx="0">o</tspan><tspan x="72" y="13" dx="0">o</tspan><tspan x="79" y="13" dx="0">r</tspan><tspan x="84" y="13" dx="0">t</tspan><tspan x="89" y="13" dx="0">»</tspan></text><text stroke="none" fill="#66413F" font-size="14" transform="translate(742 513)"><tspan x="0" y="13" dx="0">+</tspan></text><text stroke="none" fill="#66413F" font-size="14" transform="translate(766 513)"><tspan x="0" y="13" dx="0">i</tspan><tspan x="4" y="13" dx="0">d</tspan><tspan x="11" y="13" dx="0">e</tspan><tspan x="18" y="13" dx="0">n</tspan><tspan x="25" y="13" dx="0 0">ti</tspan><tspan x="33" y="13" dx="0 0">fi</tspan><tspan x="42" y="13" dx="0">c</tspan><tspan x="48" y="13" dx="0">a</tspan><tspan x="55" y="13" dx="0 0">ti</tspan><tspan x="64" y="13" dx="0">e</tspan><tspan x="70" y="13" dx="0">:</tspan><tspan x="73" y="13" dx="0"> </tspan><tspan x="76" y="13" dx="0">N</tspan><tspan x="84" y="13" dx="0">E</tspan><tspan x="91" y="13" dx="0">N</tspan><tspan x="99" y="13" dx="0">3</tspan><tspan x="106" y="13" dx="0">6</tspan><tspan x="114" y="13" dx="0">1</tspan><tspan x="121" y="13" dx="0">0</tspan><tspan x="128" y="13" dx="0">I</tspan><tspan x="132" y="13" dx="0">D</tspan><tspan x="141" y="13" dx="0">_</tspan><tspan x="147" y="13" dx="0">L</tspan><tspan x="152" y="13" dx="0">o</tspan><tspan x="160" y="13" dx="0">c</tspan><tspan x="166" y="13" dx="0">a</tspan><tspan x="173" y="13" dx="0 0">ti</tspan><tspan x="181" y="13" dx="0">e</tspan></text><text stroke="none" fill="#66413F" font-size="14" transform="translate(742 530)"><tspan x="0" y="13" dx="0">+</tspan></text><text stroke="none" fill="#66413F" font-size="14" transform="translate(766 530)"><tspan x="0" y="13" dx="0">noemer: CharacterString [0..1]</tspan></text><rect x="343" y="446" width="280" height="147" stroke="none" fill="#D0D0D0"/><rect x="340" y="443" width="279" height="146" stroke="none" stroke-width="2" fill="#CCFFCC"/><rect x="340" y="443" width="279" height="147" stroke="#9A8484" stroke-width="2"/><rect x="340" y="443" width="279" height="146" stroke="#9A8484" stroke-width="2"/><text stroke="none" fill="#000000" font-size="13" transform="translate(444 449)"><tspan x="0" y="12" dx="0">«</tspan><tspan x="6" y="12" dx="0">O</tspan><tspan x="15" y="12" dx="0">b</tspan><tspan x="22" y="12" dx="0">j</tspan><tspan x="25" y="12" dx="0">e</tspan><tspan x="32" y="12" dx="0">c</tspan><tspan x="38" y="12" dx="0 0">tt</tspan><tspan x="46" y="12" dx="0">y</tspan><tspan x="51" y="12" dx="0">p</tspan><tspan x="58" y="12" dx="0">e</tspan><tspan x="66" y="12" dx="0">»</tspan></text><text stroke="none" fill="#000000" font-weight="700" font-size="13" transform="translate(431 464)"><tspan x="0" y="12" dx="0">Gebiedsaanwijzing</tspan></text><path d="M340 484 619 484" stroke="#9A8484" stroke-width="2"/><text stroke="none" fill="#000000" font-size="13" transform="translate(353 492)"><tspan x="0" y="12" dx="0">«</tspan><tspan x="6" y="12" dx="0">A</tspan><tspan x="14" y="12" dx="0 0">tt</tspan><tspan x="22" y="12" dx="0">r</tspan><tspan x="26" y="12" dx="0">i</tspan><tspan x="30" y="12" dx="0">b</tspan><tspan x="38" y="12" dx="0">u</tspan><tspan x="45" y="12" dx="0">u</tspan><tspan x="52" y="12" dx="0">t</tspan><tspan x="56" y="12" dx="0">s</tspan><tspan x="63" y="12" dx="0">o</tspan><tspan x="70" y="12" dx="0">o</tspan><tspan x="77" y="12" dx="0">r</tspan><tspan x="81" y="12" dx="0">t</tspan><tspan x="86" y="12" dx="0">»</tspan></text><text stroke="none" fill="#66413F" font-size="13" transform="translate(345 507)"><tspan x="0" y="12" dx="0">+</tspan></text><text stroke="none" fill="#66413F" font-size="13" transform="translate(366 507)"><tspan x="0" y="12" dx="0">i</tspan><tspan x="4" y="12" dx="0">d</tspan><tspan x="11" y="12" dx="0">e</tspan><tspan x="19" y="12" dx="0">n</tspan><tspan x="26" y="12" dx="0 0">ti</tspan><tspan x="34" y="12" dx="0 0">fi</tspan><tspan x="43" y="12" dx="0">c</tspan><tspan x="48" y="12" dx="0">a</tspan><tspan x="55" y="12" dx="0 0">ti</tspan><tspan x="64" y="12" dx="0">e</tspan><tspan x="71" y="12" dx="0">:</tspan><tspan x="74" y="12" dx="0"> </tspan><tspan x="77" y="12" dx="0">N</tspan><tspan x="86" y="12" dx="0">E</tspan><tspan x="92" y="12" dx="0">N</tspan><tspan x="100" y="12" dx="0">3</tspan><tspan x="106" y="12" dx="0">6</tspan><tspan x="113" y="12" dx="0">1</tspan><tspan x="119" y="12" dx="0">0</tspan><tspan x="125" y="12" dx="0">I</tspan><tspan x="129" y="12" dx="0">D</tspan><tspan x="138" y="12" dx="0"> </tspan><tspan x="141" y="12" dx="0">{</tspan><tspan x="145" y="12" dx="0">i</tspan><tspan x="149" y="12" dx="0">d</tspan><tspan x="156" y="12" dx="0">}</tspan></text><text stroke="none" fill="#66413F" font-size="13" transform="translate(345 522)"><tspan x="0" y="12" dx="0">+</tspan></text><text stroke="none" fill="#66413F" font-size="13" transform="translate(366 522)"><tspan x="0" y="12" dx="0">type: TypeGebiedsaanwijzing</tspan></text><text stroke="none" fill="#66413F" font-size="13" transform="translate(345 537)"><tspan x="0" y="12" dx="0">+</tspan></text><text stroke="none" fill="#66413F" font-size="13" transform="translate(366 537)"><tspan x="0" y="12" dx="0">naam: CharacterString</tspan></text><text stroke="none" fill="#66413F" font-size="13" transform="translate(345 552)"><tspan x="0" y="12" dx="0">+</tspan></text><text stroke="none" fill="#66413F" font-size="13" transform="translate(366 552)"><tspan x="0" y="12" dx="0">groep: Gebiedsaanwijzinggroep</tspan></text><rect x="559" y="297" width="195" height="75" stroke="none" fill="#D0D0D0"/><rect x="556" y="294" width="194" height="74" stroke="none" stroke-width="2" fill="#CCFFFF"/><rect x="556" y="294" width="194" height="75" stroke="#9A8484" stroke-width="2"/><rect x="556" y="294" width="194" height="74" stroke="#9A8484" stroke-width="2"/><text stroke="none" fill="#000000" font-size="14" transform="translate(615 300)"><tspan x="0" y="13" dx="0">«</tspan><tspan x="7" y="13" dx="0">O</tspan><tspan x="17" y="13" dx="0">b</tspan><tspan x="24" y="13" dx="0">j</tspan><tspan x="28" y="13" dx="0">e</tspan><tspan x="34" y="13" dx="0">c</tspan><tspan x="41" y="13" dx="0 0">tt</tspan><tspan x="49" y="13" dx="0">y</tspan><tspan x="55" y="13" dx="0">p</tspan><tspan x="63" y="13" dx="0">e</tspan><tspan x="69" y="13" dx="0">»</tspan></text><text stroke="none" fill="#000000" font-weight="700" font-size="14" transform="translate(626 317)"><tspan x="0" y="13" dx="0">Tekstdeel</tspan></text><rect x="397" y="625" width="168" height="64" stroke="none" fill="#D0D0D0"/><rect x="394" y="622" width="167" height="63" stroke="none" fill="#F7DDB4"/><rect x="394" y="622" width="167" height="64"/><rect x="394" y="622" width="167" height="63"/><text stroke="none" fill="#000000" font-size="12" transform="translate(449 628)"><tspan x="0" y="11" dx="0">«CodeList»</tspan></text><text stroke="none" fill="#000000" font-weight="700" font-size="12" transform="translate(417 642)"><tspan x="0" y="11" dx="0">TypeGebiedsaanwijzing</tspan></text><rect x="740" y="625" width="146" height="64" stroke="none" fill="#D0D0D0"/><rect x="737" y="622" width="145" height="63" stroke="none" fill="#F7DDB4"/><rect x="737" y="622" width="145" height="64"/><rect x="737" y="622" width="145" height="63"/><text stroke="none" fill="#000000" font-size="12" transform="translate(781 628)"><tspan x="0" y="11" dx="0">«CodeList»</tspan></text><text stroke="none" fill="#000000" font-weight="700" font-size="12" transform="translate(747 642)"><tspan x="0" y="11" dx="0">Gebiedsaanwijzinggroep</tspan></text><rect x="559" y="184" width="195" height="73" stroke="none" fill="#D0D0D0"/><rect x="556" y="181" width="194" height="72" stroke="none" stroke-width="2" fill="#CCFFFF"/><rect x="556" y="181" width="194" height="73" stroke="#9A8484" stroke-width="2"/><rect x="556" y="181" width="194" height="72" stroke="#9A8484" stroke-width="2"/><text stroke="none" fill="#000000" font-size="14" transform="translate(615 187)"><tspan x="0" y="13" dx="0">«</tspan><tspan x="7" y="13" dx="0">O</tspan><tspan x="17" y="13" dx="0">b</tspan><tspan x="24" y="13" dx="0">j</tspan><tspan x="28" y="13" dx="0">e</tspan><tspan x="34" y="13" dx="0">c</tspan><tspan x="41" y="13" dx="0 0">tt</tspan><tspan x="49" y="13" dx="0">y</tspan><tspan x="55" y="13" dx="0">p</tspan><tspan x="63" y="13" dx="0">e</tspan><tspan x="69" y="13" dx="0">»</tspan></text><text stroke="none" fill="#000000" font-style="italic" font-weight="700" font-size="14" transform="translate(611 204)"><tspan x="0" y="13" dx="0">JuridischeRegel</tspan></text><path d="M751 217 874 217M874 217 874 443M874 443 868 428M874 443 880 428" stroke="#69738C" stroke-width="2"/><path d="M621 506 736 507M736 507 721 513M736 507 721 501" stroke="#69738C" stroke-width="2"/><path d="M556 217 430 217M430 217 430 443M430 443 424 428M430 443 436 428" stroke="#69738C" stroke-width="2"/><path d="M556 343 486 343M486 343 486 443M486 443 480 428M486 443 492 428" stroke="#69738C" stroke-width="2"/><path d="M751 333 823 333M823 333 823 443M823 443 817 428M823 443 829 428" stroke="#69738C" stroke-width="2"/><g transform="matrix(1 0 0 -1 888 381)"><rect x="0" y="-13" width="78" height="13" stroke="none" fill="#FFFFFF"/></g><text stroke="none" fill="#595959" transform="translate(888 381)"><tspan x="0" y="10" dx="0">+</tspan><tspan x="5.33333" y="10" dx="0">l</tspan><tspan x="7.66667" y="10" dx="0">o</tspan><tspan x="13" y="10" dx="0">c</tspan><tspan x="17.3333" y="10" dx="0">a</tspan><tspan x="22" y="10" dx="0 0">ti</tspan><tspan x="27.6667" y="10" dx="0">e</tspan><tspan x="32.6667" y="10" dx="0">a</tspan><tspan x="37.3333" y="10" dx="0">a</tspan><tspan x="42" y="10" dx="0">n</tspan><tspan x="47.3333" y="10" dx="0">d</tspan><tspan x="52.6667" y="10" dx="0">u</tspan><tspan x="58" y="10" dx="0">i</tspan><tspan x="60.3333" y="10" dx="0">d</tspan><tspan x="65.6667" y="10" dx="0">i</tspan><tspan x="68" y="10" dx="0">n</tspan><tspan x="73.3333" y="10" dx="0">g</tspan></text><g transform="matrix(1 0 0 -1 888 394)"><rect x="0" y="-13" width="49" height="13" stroke="none" fill="#FFFFFF"/></g><text stroke="none" fill="#595959" transform="translate(888 394)"><tspan x="0" y="10" dx="0">«</tspan><tspan x="5" y="10" dx="0">R</tspan><tspan x="10.3333" y="10" dx="0">e</tspan><tspan x="15.3333" y="10" dx="0">l</tspan><tspan x="17.6667" y="10" dx="0">a</tspan><tspan x="22.3333" y="10" dx="0 0">ti</tspan><tspan x="28" y="10" dx="0">e</tspan><tspan x="33" y="10" dx="0">r</tspan><tspan x="36.3333" y="10" dx="0">o</tspan><tspan x="41.6667" y="10" dx="0">l</tspan><tspan x="44" y="10" dx="0">»</tspan></text><g transform="matrix(1 0 0 -1 889 412)"><rect x="0" y="-13" width="17" height="13" stroke="none" fill="#FFFFFF"/></g><text stroke="none" fill="#595959" transform="translate(889 412)"><tspan x="0" y="10" dx="0">1..*</tspan></text><g transform="matrix(1 0 0 -1 495 394)"><rect x="0" y="-13" width="81" height="13" stroke="none" fill="#FFFFFF"/></g><text stroke="none" fill="#595959" transform="translate(495 394)"><tspan x="0" y="10" dx="0">+gebiedsaanwijzing</tspan></text><g transform="matrix(1 0 0 -1 495 407)"><rect x="0" y="-13" width="49" height="13" stroke="none" fill="#FFFFFF"/></g><text stroke="none" fill="#595959" transform="translate(495 407)"><tspan x="0" y="10" dx="0">«</tspan><tspan x="5" y="10" dx="0">R</tspan><tspan x="10.3333" y="10" dx="0">e</tspan><tspan x="15.3333" y="10" dx="0">l</tspan><tspan x="17.6667" y="10" dx="0">a</tspan><tspan x="22.3333" y="10" dx="0 0">ti</tspan><tspan x="28" y="10" dx="0">e</tspan><tspan x="33" y="10" dx="0">r</tspan><tspan x="36.3333" y="10" dx="0">o</tspan><tspan x="41.6667" y="10" dx="0">l</tspan><tspan x="44" y="10" dx="0">»</tspan></text><g transform="matrix(1 0 0 -1 494 426)"><rect x="0" y="-13" width="17" height="13" stroke="none" fill="#FFFFFF"/></g><text stroke="none" fill="#595959" transform="translate(494 426)"><tspan x="0" y="10" dx="0">0..*</tspan></text><g transform="matrix(1 0 0 -1 726 400)"><rect x="0" y="-13" width="78" height="13" stroke="none" fill="#FFFFFF"/></g><text stroke="none" fill="#595959" transform="translate(726 400)"><tspan x="0" y="10" dx="0">+</tspan><tspan x="5.33333" y="10" dx="0">l</tspan><tspan x="7.66667" y="10" dx="0">o</tspan><tspan x="13" y="10" dx="0">c</tspan><tspan x="17.3333" y="10" dx="0">a</tspan><tspan x="22" y="10" dx="0 0">ti</tspan><tspan x="27.6667" y="10" dx="0">e</tspan><tspan x="32.6667" y="10" dx="0">a</tspan><tspan x="37.3333" y="10" dx="0">a</tspan><tspan x="42" y="10" dx="0">n</tspan><tspan x="47.3333" y="10" dx="0">d</tspan><tspan x="52.6667" y="10" dx="0">u</tspan><tspan x="58" y="10" dx="0">i</tspan><tspan x="60.3333" y="10" dx="0">d</tspan><tspan x="65.6667" y="10" dx="0">i</tspan><tspan x="68" y="10" dx="0">n</tspan><tspan x="73.3333" y="10" dx="0">g</tspan></text><g transform="matrix(1 0 0 -1 755 413)"><rect x="0" y="-13" width="49" height="13" stroke="none" fill="#FFFFFF"/></g><text stroke="none" fill="#595959" transform="translate(755 413)"><tspan x="0" y="10" dx="0">«</tspan><tspan x="5" y="10" dx="0">R</tspan><tspan x="10.3333" y="10" dx="0">e</tspan><tspan x="15.3333" y="10" dx="0">l</tspan><tspan x="17.6667" y="10" dx="0">a</tspan><tspan x="22.3333" y="10" dx="0 0">ti</tspan><tspan x="28" y="10" dx="0">e</tspan><tspan x="33" y="10" dx="0">r</tspan><tspan x="36.3333" y="10" dx="0">o</tspan><tspan x="41.6667" y="10" dx="0">l</tspan><tspan x="44" y="10" dx="0">»</tspan></text><g transform="matrix(1 0 0 -1 831 425)"><rect x="0" y="-13" width="17" height="13" stroke="none" fill="#FFFFFF"/></g><text stroke="none" fill="#595959" transform="translate(831 425)"><tspan x="0" y="10" dx="0">0..*</tspan></text><g transform="matrix(1 0 0 -1 341 391)"><rect x="0" y="-13" width="81" height="13" stroke="none" fill="#FFFFFF"/></g><text stroke="none" fill="#595959" transform="translate(341 391)"><tspan x="0" y="10" dx="0">+gebiedsaanwijzing</tspan></text><g transform="matrix(1 0 0 -1 373 404)"><rect x="0" y="-13" width="49" height="13" stroke="none" fill="#FFFFFF"/></g><text stroke="none" fill="#595959" transform="translate(373 404)"><tspan x="0" y="10" dx="0">«</tspan><tspan x="5" y="10" dx="0">R</tspan><tspan x="10.3333" y="10" dx="0">e</tspan><tspan x="15.3333" y="10" dx="0">l</tspan><tspan x="17.6667" y="10" dx="0">a</tspan><tspan x="22.3333" y="10" dx="0 0">ti</tspan><tspan x="28" y="10" dx="0">e</tspan><tspan x="33" y="10" dx="0">r</tspan><tspan x="36.3333" y="10" dx="0">o</tspan><tspan x="41.6667" y="10" dx="0">l</tspan><tspan x="44" y="10" dx="0">»</tspan></text><g transform="matrix(1 0 0 -1 399 418)"><rect x="0" y="-13" width="17" height="13" stroke="none" fill="#FFFFFF"/></g><text stroke="none" fill="#595959" transform="translate(399 418)"><tspan x="0" y="10" dx="0">0..*</tspan></text><g transform="matrix(1 0 0 -1 626 520)"><rect x="0" y="-13" width="78" height="13" stroke="none" fill="#FFFFFF"/></g><text stroke="none" fill="#595959" transform="translate(626 520)"><tspan x="0" y="10" dx="0">+</tspan><tspan x="5.33333" y="10" dx="0">l</tspan><tspan x="7.66667" y="10" dx="0">o</tspan><tspan x="13" y="10" dx="0">c</tspan><tspan x="17.3333" y="10" dx="0">a</tspan><tspan x="22" y="10" dx="0 0">ti</tspan><tspan x="27.6667" y="10" dx="0">e</tspan><tspan x="32.6667" y="10" dx="0">a</tspan><tspan x="37.3333" y="10" dx="0">a</tspan><tspan x="42" y="10" dx="0">n</tspan><tspan x="47.3333" y="10" dx="0">d</tspan><tspan x="52.6667" y="10" dx="0">u</tspan><tspan x="58" y="10" dx="0">i</tspan><tspan x="60.3333" y="10" dx="0">d</tspan><tspan x="65.6667" y="10" dx="0">i</tspan><tspan x="68" y="10" dx="0">n</tspan><tspan x="73.3333" y="10" dx="0">g</tspan></text><g transform="matrix(1 0 0 -1 655 533)"><rect x="0" y="-13" width="49" height="13" stroke="none" fill="#FFFFFF"/></g><text stroke="none" fill="#595959" transform="translate(655 533)"><tspan x="0" y="10" dx="0">«</tspan><tspan x="5" y="10" dx="0">R</tspan><tspan x="10.3333" y="10" dx="0">e</tspan><tspan x="15.3333" y="10" dx="0">l</tspan><tspan x="17.6667" y="10" dx="0">a</tspan><tspan x="22.3333" y="10" dx="0 0">ti</tspan><tspan x="28" y="10" dx="0">e</tspan><tspan x="33" y="10" dx="0">r</tspan><tspan x="36.3333" y="10" dx="0">o</tspan><tspan x="41.6667" y="10" dx="0">l</tspan><tspan x="44" y="10" dx="0">»</tspan></text><g transform="matrix(1 0 0 -1 715 516)"><rect x="0" y="-13" width="17" height="13" stroke="none" fill="#FFFFFF"/></g><text stroke="none" fill="#595959" transform="translate(715 516)"><tspan x="0" y="10" dx="0">1..*</tspan></text></g></g></g></g></svg>