<svg width="957.399" height="699.3" viewBox="80.6453 360.013 718.049 524.475" xmlns="http://www.w3.org/2000/svg" xmlns:xlink="http://www.w3.org/1999/xlink" xml:space="preserve" overflow="hidden"><g transform="matrix(1 0 0 -1 0 1168)"><g stroke="#000000" stroke-linecap="round" stroke-linejoin="round" stroke-miterlimit="3" fill="none" fill-rule="evenodd" font-weight="400" baseline-shift="0"><g transform="matrix(0.6 0 0 0.6 0 1168.55)"><g font-family="CalibriUnicode" font-size="13" transform="scale(0.911989 -0.907343)"><rect x="165" y="680" width="283" height="193" stroke="none" fill="#D0D0D0"/><rect x="162" y="677" width="282" height="192" stroke="none" stroke-width="2" fill="#99CCFF"/><rect x="162" y="677" width="282" height="193" stroke="#9A8484" stroke-width="2"/><text stroke="none" fill="#000000" font-style="italic" font-size="14" transform="translate(389 680)"><tspan x="0" y="13" dx="0">OPobj</tspan></text><text stroke="none" fill="#000000" font-style="italic" font-size="14" transform="translate(424 680)"><tspan x="0" y="13" dx="0">ect</tspan></text><text stroke="none" fill="#000000" font-size="14" transform="translate(265 703)"><tspan x="0" y="13" dx="0">«</tspan><tspan x="8" y="13" dx="0">O</tspan><tspan x="17" y="13" dx="0">b</tspan><tspan x="24" y="13" dx="0">j</tspan><tspan x="28" y="13" dx="0">e</tspan><tspan x="34" y="13" dx="0">c</tspan><tspan x="40" y="13" dx="0 0">tt</tspan><tspan x="50" y="13" dx="0">y</tspan><tspan x="57" y="13" dx="0">p</tspan><tspan x="64" y="13" dx="0">e</tspan><tspan x="71" y="13" dx="0">»</tspan></text><text stroke="none" fill="#000000" font-weight="700" font-size="14" transform="translate(272 720)"><tspan x="0" y="13" dx="0">Regeltekst</tspan></text><path d="M162 742 444 742" stroke="#9A8484" stroke-width="2"/><text stroke="none" fill="#000000" font-size="14" transform="translate(176 750)"><tspan x="0" y="13" dx="0">«</tspan><tspan x="8" y="13" dx="0">A</tspan><tspan x="16" y="13" dx="0 0">tt</tspan><tspan x="26" y="13" dx="0">r</tspan><tspan x="31" y="13" dx="0">i</tspan><tspan x="34" y="13" dx="0">b</tspan><tspan x="42" y="13" dx="0">u</tspan><tspan x="49" y="13" dx="0">u</tspan><tspan x="57" y="13" dx="0">t</tspan><tspan x="62" y="13" dx="0">s</tspan><tspan x="68" y="13" dx="0">o</tspan><tspan x="75" y="13" dx="0">o</tspan><tspan x="83" y="13" dx="0">r</tspan><tspan x="88" y="13" dx="0">t</tspan><tspan x="93" y="13" dx="0">»</tspan></text><text stroke="none" fill="#66413F" font-size="14" transform="translate(167 767)"><tspan x="0" y="13" dx="0">+ </tspan></text><text stroke="none" fill="#66413F" font-size="14" transform="translate(191 767)"><tspan x="0" y="13" dx="0">i</tspan><tspan x="3" y="13" dx="0">d</tspan><tspan x="11" y="13" dx="0">e</tspan><tspan x="18" y="13" dx="0">n</tspan><tspan x="25" y="13" dx="0 0">ti</tspan><tspan x="33" y="13" dx="0 0">fi</tspan><tspan x="41" y="13" dx="0">c</tspan><tspan x="47" y="13" dx="0">a</tspan><tspan x="53" y="13" dx="0 0">ti</tspan><tspan x="62" y="13" dx="0">e</tspan><tspan x="68" y="13" dx="0">:</tspan><tspan x="73" y="13" dx="0"> </tspan><tspan x="76" y="13" dx="0">N</tspan><tspan x="85" y="13" dx="0">E</tspan><tspan x="92" y="13" dx="0">N</tspan><tspan x="101" y="13" dx="0">3</tspan><tspan x="108" y="13" dx="0">6</tspan><tspan x="116" y="13" dx="0">1</tspan><tspan x="123" y="13" dx="0">0</tspan><tspan x="131" y="13" dx="0">I</tspan><tspan x="134" y="13" dx="0">D</tspan><tspan x="143" y="13" dx="0"> </tspan><tspan x="146" y="13" dx="0">{</tspan><tspan x="150" y="13" dx="0">i</tspan><tspan x="153" y="13" dx="0">d</tspan><tspan x="161" y="13" dx="0">}</tspan></text><path d="M162 788 444 788" stroke="#9A8484" stroke-width="2"/><text stroke="none" fill="#000000" font-style="italic" font-size="14" transform="translate(272 792)"><tspan x="0" y="13" dx="0">constraints</tspan></text><text stroke="none" fill="#000000" font-size="14" transform="translate(167 809)"><tspan x="0" y="13" dx="0">{één type Juridische regel per Regeltekst}</tspan></text><text stroke="none" fill="#000000" font-size="14" transform="translate(167 826)"><tspan x="0" y="13" dx="0">{</tspan><tspan x="4" y="13" dx="0">i</tspan><tspan x="8" y="13" dx="0">n</tspan><tspan x="15" y="13" dx="0">d</tspan><tspan x="23" y="13" dx="0">i</tspan><tspan x="26" y="13" dx="0">e</tspan><tspan x="33" y="13" dx="0">n</tspan><tspan x="40" y="13" dx="0"> </tspan><tspan x="43" y="13" dx="0">A</tspan><tspan x="52" y="13" dx="0">r</tspan><tspan x="57" y="13" dx="0 0">ti</tspan><tspan x="65" y="13" dx="0">k</tspan><tspan x="72" y="13" dx="0">e</tspan><tspan x="78" y="13" dx="0">l</tspan><tspan x="82" y="13" dx="0"> </tspan><tspan x="85" y="13" dx="0">i</tspan><tspan x="88" y="13" dx="0">s</tspan><tspan x="94" y="13" dx="0"> </tspan><tspan x="98" y="13" dx="0">o</tspan><tspan x="105" y="13" dx="0">n</tspan><tspan x="113" y="13" dx="0">d</tspan><tspan x="120" y="13" dx="0">e</tspan><tspan x="127" y="13" dx="0">r</tspan><tspan x="132" y="13" dx="0">v</tspan><tspan x="138" y="13" dx="0">e</tspan><tspan x="145" y="13" dx="0">r</tspan><tspan x="150" y="13" dx="0">d</tspan><tspan x="158" y="13" dx="0">e</tspan><tspan x="164" y="13" dx="0">e</tspan><tspan x="171" y="13" dx="0">l</tspan><tspan x="174" y="13" dx="0">d</tspan><tspan x="182" y="13" dx="0"> </tspan><tspan x="185" y="13" dx="0">i</tspan><tspan x="188" y="13" dx="0">n</tspan><tspan x="196" y="13" dx="0"> </tspan><tspan x="199" y="13" dx="0">L</tspan><tspan x="205" y="13" dx="0">e</tspan><tspan x="212" y="13" dx="0">d</tspan><tspan x="219" y="13" dx="0">e</tspan><tspan x="226" y="13" dx="0">n</tspan><tspan x="233" y="13" dx="0">,</tspan></text><text stroke="none" fill="#000000" font-size="14" transform="translate(167 843)"><tspan x="0" y="13" dx="0">a</tspan><tspan x="7" y="13" dx="0">n</tspan><tspan x="14" y="13" dx="0">n</tspan><tspan x="22" y="13" dx="0">o</tspan><tspan x="29" y="13" dx="0">t</tspan><tspan x="34" y="13" dx="0">a</tspan><tspan x="41" y="13" dx="0 0">ti</tspan><tspan x="49" y="13" dx="0">e</tspan><tspan x="56" y="13" dx="0">s</tspan><tspan x="62" y="13" dx="0"> </tspan><tspan x="65" y="13" dx="0">a</tspan><tspan x="72" y="13" dx="0">l</tspan><tspan x="75" y="13" dx="0">l</tspan><tspan x="78" y="13" dx="0">e</tspan><tspan x="85" y="13" dx="0">e</tspan><tspan x="92" y="13" dx="0">n</tspan><tspan x="99" y="13" dx="0"> </tspan><tspan x="103" y="13" dx="0">o</tspan><tspan x="110" y="13" dx="0">p</tspan><tspan x="118" y="13" dx="0"> </tspan><tspan x="121" y="13" dx="0">L</tspan><tspan x="127" y="13" dx="0">e</tspan><tspan x="133" y="13" dx="0">d</tspan><tspan x="141" y="13" dx="0">e</tspan><tspan x="148" y="13" dx="0">n</tspan><tspan x="155" y="13" dx="0">}</tspan></text><rect x="641" y="704" width="218" height="146" stroke="none" fill="#D0D0D0"/><rect x="638" y="701" width="217" height="145" stroke="none" stroke-width="2" fill="#CCFFFF"/><rect x="638" y="701" width="217" height="146" stroke="#9A8484" stroke-width="2"/><text stroke="none" fill="#000000" font-style="italic" font-size="14" transform="translate(795 704)"><tspan x="0" y="13" dx="0">OWobj</tspan></text><text stroke="none" fill="#000000" font-style="italic" font-size="14" transform="translate(835 704)"><tspan x="0" y="13" dx="0">ect</tspan></text><text stroke="none" fill="#000000" font-size="14" transform="translate(709 727)"><tspan x="0" y="13" dx="0">«</tspan><tspan x="8" y="13" dx="0">O</tspan><tspan x="17" y="13" dx="0">b</tspan><tspan x="24" y="13" dx="0">j</tspan><tspan x="28" y="13" dx="0">e</tspan><tspan x="34" y="13" dx="0">c</tspan><tspan x="40" y="13" dx="0 0">tt</tspan><tspan x="50" y="13" dx="0">y</tspan><tspan x="57" y="13" dx="0">p</tspan><tspan x="64" y="13" dx="0">e</tspan><tspan x="71" y="13" dx="0">»</tspan></text><text stroke="none" fill="#000000" font-style="italic" font-weight="700" font-size="14" transform="translate(702 744)"><tspan x="0" y="13" dx="0">JuridischeRegel</tspan></text><path d="M638 766 855 766" stroke="#9A8484" stroke-width="2"/><text stroke="none" fill="#000000" font-size="14" transform="translate(652 774)"><tspan x="0" y="13" dx="0">«</tspan><tspan x="8" y="13" dx="0">A</tspan><tspan x="16" y="13" dx="0 0">tt</tspan><tspan x="26" y="13" dx="0">r</tspan><tspan x="31" y="13" dx="0">i</tspan><tspan x="34" y="13" dx="0">b</tspan><tspan x="42" y="13" dx="0">u</tspan><tspan x="49" y="13" dx="0">u</tspan><tspan x="57" y="13" dx="0">t</tspan><tspan x="62" y="13" dx="0">s</tspan><tspan x="68" y="13" dx="0">o</tspan><tspan x="75" y="13" dx="0">o</tspan><tspan x="83" y="13" dx="0">r</tspan><tspan x="88" y="13" dx="0">t</tspan><tspan x="93" y="13" dx="0">»</tspan></text><text stroke="none" fill="#66413F" font-size="14" transform="translate(643 791)"><tspan x="0" y="13" dx="0">+ </tspan></text><text stroke="none" fill="#66413F" font-size="14" transform="translate(667 791)"><tspan x="0" y="13" dx="0">i</tspan><tspan x="3" y="13" dx="0">d</tspan><tspan x="11" y="13" dx="0">e</tspan><tspan x="18" y="13" dx="0">n</tspan><tspan x="25" y="13" dx="0 0">ti</tspan><tspan x="33" y="13" dx="0 0">fi</tspan><tspan x="41" y="13" dx="0">c</tspan><tspan x="47" y="13" dx="0">a</tspan><tspan x="53" y="13" dx="0 0">ti</tspan><tspan x="62" y="13" dx="0">e</tspan><tspan x="68" y="13" dx="0">:</tspan><tspan x="73" y="13" dx="0"> </tspan><tspan x="76" y="13" dx="0">N</tspan><tspan x="85" y="13" dx="0">E</tspan><tspan x="92" y="13" dx="0">N</tspan><tspan x="101" y="13" dx="0">3</tspan><tspan x="108" y="13" dx="0">6</tspan><tspan x="116" y="13" dx="0">1</tspan><tspan x="123" y="13" dx="0">0</tspan><tspan x="131" y="13" dx="0">I</tspan><tspan x="134" y="13" dx="0">D</tspan><tspan x="143" y="13" dx="0"> </tspan><tspan x="146" y="13" dx="0">{</tspan><tspan x="150" y="13" dx="0">i</tspan><tspan x="153" y="13" dx="0">d</tspan><tspan x="161" y="13" dx="0">}</tspan></text><text stroke="none" fill="#66413F" font-size="14" transform="translate(643 808)"><tspan x="0" y="13" dx="0">+ </tspan></text><text stroke="none" fill="#66413F" font-size="14" transform="translate(667 808)"><tspan x="0" y="13" dx="0">i</tspan><tspan x="3" y="13" dx="0">d</tspan><tspan x="11" y="13" dx="0">e</tspan><tspan x="18" y="13" dx="0">a</tspan><tspan x="24" y="13" dx="0">l</tspan><tspan x="28" y="13" dx="0">i</tspan><tspan x="31" y="13" dx="0">s</tspan><tspan x="37" y="13" dx="0">a</tspan><tspan x="43" y="13" dx="0 0">ti</tspan><tspan x="52" y="13" dx="0">e</tspan><tspan x="58" y="13" dx="0">:</tspan><tspan x="63" y="13" dx="0"> </tspan><tspan x="66" y="13" dx="0">I</tspan><tspan x="69" y="13" dx="0">d</tspan><tspan x="77" y="13" dx="0">e</tspan><tspan x="83" y="13" dx="0">a</tspan><tspan x="90" y="13" dx="0">l</tspan><tspan x="93" y="13" dx="0">i</tspan><tspan x="97" y="13" dx="0">s</tspan><tspan x="103" y="13" dx="0">a</tspan><tspan x="109" y="13" dx="0 0">ti</tspan><tspan x="118" y="13" dx="0">e</tspan></text><text stroke="none" fill="#66413F" font-size="14" transform="translate(643 825)"><tspan x="0" y="13" dx="0">+ </tspan></text><text stroke="none" fill="#66413F" font-size="14" transform="translate(667 825)"><tspan x="0" y="13" dx="0">thema: Thema [0..*]</tspan></text><rect x="436" y="914" width="154" height="68" stroke="none" fill="#D0D0D0"/><rect x="433" y="911" width="153" height="67" stroke="none" stroke-width="2" fill="#CCFFFF"/><rect x="433" y="911" width="153" height="68" stroke="#9A8484" stroke-width="2"/><text stroke="none" fill="#000000" font-size="14" transform="translate(472 917)"><tspan x="0" y="13" dx="0">«</tspan><tspan x="8" y="13" dx="0">O</tspan><tspan x="17" y="13" dx="0">b</tspan><tspan x="24" y="13" dx="0">j</tspan><tspan x="28" y="13" dx="0">e</tspan><tspan x="34" y="13" dx="0">c</tspan><tspan x="40" y="13" dx="0 0">tt</tspan><tspan x="50" y="13" dx="0">y</tspan><tspan x="57" y="13" dx="0">p</tspan><tspan x="64" y="13" dx="0">e</tspan><tspan x="71" y="13" dx="0">»</tspan></text><text stroke="none" fill="#000000" font-weight="700" font-size="14" transform="translate(452 934)"><tspan x="0" y="13" dx="0">RegelVoorIedereen</tspan></text><rect x="648" y="978" width="211" height="117" stroke="none" fill="#D0D0D0"/><rect x="645" y="975" width="210" height="116" stroke="none" stroke-width="2" fill="#FFE4E1"/><rect x="645" y="975" width="210" height="117" stroke="#9A8484" stroke-width="2"/><text stroke="none" fill="#000000" font-style="italic" transform="translate(800 978)"><tspan x="0" y="12" dx="0">OWobject</tspan></text><text stroke="none" fill="#000000" transform="translate(714 999)"><tspan x="0" y="12" dx="0">«</tspan><tspan x="7" y="12" dx="0">O</tspan><tspan x="16" y="12" dx="0">b</tspan><tspan x="23" y="12" dx="0">j</tspan><tspan x="26" y="12" dx="0">e</tspan><tspan x="33" y="12" dx="0">c</tspan><tspan x="38" y="12" dx="0 0">tt</tspan><tspan x="47" y="12" dx="0">y</tspan><tspan x="53" y="12" dx="0">p</tspan><tspan x="59" y="12" dx="0">e</tspan><tspan x="66" y="12" dx="0">»</tspan></text><text stroke="none" fill="#000000" font-style="italic" font-weight="700" transform="translate(730 1014)"><tspan x="0" y="12" dx="0">L</tspan><tspan x="6" y="12" dx="0">o</tspan><tspan x="13" y="12" dx="0">c</tspan><tspan x="18" y="12" dx="0">a</tspan><tspan x="25" y="12" dx="0 0">ti</tspan><tspan x="33" y="12" dx="0">e</tspan></text><path d="M645 1034 855 1034" stroke="#9A8484" stroke-width="2"/><text stroke="none" fill="#000000" transform="translate(658 1042)"><tspan x="0" y="12" dx="0">«</tspan><tspan x="7" y="12" dx="0">A</tspan><tspan x="14" y="12" dx="0 0">tt</tspan><tspan x="23" y="12" dx="0">r</tspan><tspan x="27" y="12" dx="0">i</tspan><tspan x="30" y="12" dx="0">b</tspan><tspan x="37" y="12" dx="0">u</tspan><tspan x="43" y="12" dx="0">u</tspan><tspan x="50" y="12" dx="0">t</tspan><tspan x="54" y="12" dx="0">s</tspan><tspan x="60" y="12" dx="0">o</tspan><tspan x="67" y="12" dx="0">o</tspan><tspan x="73" y="12" dx="0">r</tspan><tspan x="78" y="12" dx="0">t</tspan><tspan x="82" y="12" dx="0">»</tspan></text><text stroke="none" fill="#66413F" transform="translate(650 1057)"><tspan x="0" y="12" dx="0">+ </tspan></text><text stroke="none" fill="#66413F" transform="translate(671 1057)"><tspan x="0" y="12" dx="0">i</tspan><tspan x="3" y="12" dx="0">d</tspan><tspan x="10" y="12" dx="0">e</tspan><tspan x="17" y="12" dx="0">n</tspan><tspan x="23" y="12" dx="0 0">ti</tspan><tspan x="31" y="12" dx="0 0">fi</tspan><tspan x="38" y="12" dx="0">c</tspan><tspan x="44" y="12" dx="0">a</tspan><tspan x="51" y="12" dx="0 0">ti</tspan><tspan x="58" y="12" dx="0">e</tspan><tspan x="65" y="12" dx="0">:</tspan><tspan x="68" y="12" dx="0"> </tspan><tspan x="72" y="12" dx="0">N</tspan><tspan x="80" y="12" dx="0">E</tspan><tspan x="87" y="12" dx="0">N</tspan><tspan x="95" y="12" dx="0">3</tspan><tspan x="102" y="12" dx="0">6</tspan><tspan x="108" y="12" dx="0">1</tspan><tspan x="115" y="12" dx="0">0</tspan><tspan x="122" y="12" dx="0">I</tspan><tspan x="125" y="12" dx="0">D</tspan></text><text stroke="none" fill="#66413F" transform="translate(650 1072)"><tspan x="0" y="12" dx="0">+ </tspan></text><text stroke="none" fill="#66413F" transform="translate(671 1072)"><tspan x="0" y="12" dx="0">noemer: CharacterString [0..1]</tspan></text><rect x="953" y="1293" width="266" height="127" stroke="none" fill="#D0D0D0"/><rect x="950" y="1290" width="265" height="126" stroke="none" stroke-width="2" fill="#FFE4E1"/><rect x="950" y="1290" width="265" height="127" stroke="#9A8484" stroke-width="2"/><text stroke="none" fill="#000000" transform="translate(1046 1296)"><tspan x="0" y="12" dx="0">«</tspan><tspan x="7" y="12" dx="0">O</tspan><tspan x="16" y="12" dx="0">b</tspan><tspan x="23" y="12" dx="0">j</tspan><tspan x="26" y="12" dx="0">e</tspan><tspan x="33" y="12" dx="0">c</tspan><tspan x="38" y="12" dx="0 0">tt</tspan><tspan x="47" y="12" dx="0">y</tspan><tspan x="53" y="12" dx="0">p</tspan><tspan x="59" y="12" dx="0">e</tspan><tspan x="66" y="12" dx="0">»</tspan></text><text stroke="none" fill="#000000" font-weight="700" transform="translate(1063 1311)"><tspan x="0" y="12" dx="0">Gebied</tspan></text><path d="M950 1331 1215 1331" stroke="#9A8484" stroke-width="2"/><text stroke="none" fill="#000000" transform="translate(963 1339)"><tspan x="0" y="12" dx="0">«</tspan><tspan x="7" y="12" dx="0">A</tspan><tspan x="14" y="12" dx="0 0">tt</tspan><tspan x="23" y="12" dx="0">r</tspan><tspan x="27" y="12" dx="0">i</tspan><tspan x="30" y="12" dx="0">b</tspan><tspan x="37" y="12" dx="0">u</tspan><tspan x="43" y="12" dx="0">u</tspan><tspan x="50" y="12" dx="0">t</tspan><tspan x="54" y="12" dx="0">s</tspan><tspan x="60" y="12" dx="0">o</tspan><tspan x="67" y="12" dx="0">o</tspan><tspan x="73" y="12" dx="0">r</tspan><tspan x="78" y="12" dx="0">t</tspan><tspan x="82" y="12" dx="0">»</tspan></text><text stroke="none" fill="#66413F" transform="translate(955 1354)"><tspan x="0" y="12" dx="0">+ </tspan></text><text stroke="none" fill="#66413F" transform="translate(976 1354)"><tspan x="0" y="12" dx="0">hoogte: WaardeEenheid [0..1]</tspan></text><path d="M950 1373 1215 1373" stroke="#9A8484" stroke-width="2"/><text stroke="none" fill="#000000" font-style="italic" transform="translate(1054 1377)"><tspan x="0" y="12" dx="0">constraints</tspan></text><text stroke="none" fill="#000000" transform="translate(955 1392)"><tspan x="0" y="12" dx="0">{</tspan><tspan x="4" y="12" dx="0">g</tspan><tspan x="11" y="12" dx="0">e</tspan><tspan x="18" y="12" dx="0">o</tspan><tspan x="24" y="12" dx="0">m</tspan><tspan x="34" y="12" dx="0">e</tspan><tspan x="41" y="12" dx="0">t</tspan><tspan x="45" y="12" dx="0">r</tspan><tspan x="49" y="12" dx="0">i</tspan><tspan x="53" y="12" dx="0">e</tspan><tspan x="59" y="12" dx="0"> </tspan><tspan x="63" y="12" dx="0">i</tspan><tspan x="66" y="12" dx="0">s</tspan><tspan x="72" y="12" dx="0"> </tspan><tspan x="75" y="12" dx="0">v</tspan><tspan x="81" y="12" dx="0">a</tspan><tspan x="88" y="12" dx="0">n</tspan><tspan x="94" y="12" dx="0"> </tspan><tspan x="98" y="12" dx="0">t</tspan><tspan x="102" y="12" dx="0">y</tspan><tspan x="108" y="12" dx="0">p</tspan><tspan x="114" y="12" dx="0">e</tspan><tspan x="121" y="12" dx="0"> </tspan><tspan x="124" y="12" dx="0">S</tspan><tspan x="130" y="12" dx="0">u</tspan><tspan x="137" y="12" dx="0">r</tspan><tspan x="141" y="12" dx="0">f</tspan><tspan x="145" y="12" dx="0">a</tspan><tspan x="152" y="12" dx="0">c</tspan><tspan x="158" y="12" dx="0">e</tspan><tspan x="164" y="12" dx="0"> </tspan><tspan x="168" y="12" dx="0">o</tspan><tspan x="174" y="12" dx="0">f</tspan><tspan x="178" y="12" dx="0"> </tspan><tspan x="182" y="12" dx="0">M</tspan><tspan x="193" y="12" dx="0">u</tspan><tspan x="199" y="12" dx="0">l</tspan><tspan x="203" y="12" dx="0 0">ti</tspan><tspan x="210" y="12" dx="0">S</tspan><tspan x="216" y="12" dx="0">u</tspan><tspan x="223" y="12" dx="0">r</tspan><tspan x="227" y="12" dx="0">f</tspan><tspan x="231" y="12" dx="0">a</tspan><tspan x="238" y="12" dx="0">c</tspan><tspan x="243" y="12" dx="0">e</tspan><tspan x="250" y="12" dx="0">}</tspan></text><rect x="1068" y="1154" width="174" height="54" stroke="none" fill="#D0D0D0"/><rect x="1065" y="1151" width="173" height="53" stroke="none" stroke-width="2" fill="#FFE4E1"/><rect x="1065" y="1151" width="173" height="54" stroke="#9A8484" stroke-width="2"/><text stroke="none" fill="#000000" transform="translate(1115 1157)"><tspan x="0" y="12" dx="0">«</tspan><tspan x="7" y="12" dx="0">O</tspan><tspan x="16" y="12" dx="0">b</tspan><tspan x="23" y="12" dx="0">j</tspan><tspan x="26" y="12" dx="0">e</tspan><tspan x="33" y="12" dx="0">c</tspan><tspan x="38" y="12" dx="0 0">tt</tspan><tspan x="47" y="12" dx="0">y</tspan><tspan x="53" y="12" dx="0">p</tspan><tspan x="59" y="12" dx="0">e</tspan><tspan x="66" y="12" dx="0">»</tspan></text><text stroke="none" fill="#000000" font-weight="700" transform="translate(1108 1172)"><tspan x="0" y="12" dx="0">Gebiedengroep</tspan></text><rect x="431" y="1293" width="242" height="127" stroke="none" fill="#D0D0D0"/><rect x="428" y="1290" width="241" height="126" stroke="none" stroke-width="2" fill="#FFE4E1"/><rect x="428" y="1290" width="241" height="127" stroke="#9A8484" stroke-width="2"/><text stroke="none" fill="#000000" transform="translate(512 1296)"><tspan x="0" y="12" dx="0">«</tspan><tspan x="7" y="12" dx="0">O</tspan><tspan x="16" y="12" dx="0">b</tspan><tspan x="23" y="12" dx="0">j</tspan><tspan x="26" y="12" dx="0">e</tspan><tspan x="33" y="12" dx="0">c</tspan><tspan x="38" y="12" dx="0 0">tt</tspan><tspan x="47" y="12" dx="0">y</tspan><tspan x="53" y="12" dx="0">p</tspan><tspan x="59" y="12" dx="0">e</tspan><tspan x="66" y="12" dx="0">»</tspan></text><text stroke="none" fill="#000000" font-weight="700" transform="translate(535 1311)"><tspan x="0" y="12" dx="0">Punt</tspan></text><path d="M428 1331 669 1331" stroke="#9A8484" stroke-width="2"/><text stroke="none" fill="#000000" transform="translate(441 1339)"><tspan x="0" y="12" dx="0">«</tspan><tspan x="7" y="12" dx="0">A</tspan><tspan x="14" y="12" dx="0 0">tt</tspan><tspan x="23" y="12" dx="0">r</tspan><tspan x="27" y="12" dx="0">i</tspan><tspan x="30" y="12" dx="0">b</tspan><tspan x="37" y="12" dx="0">u</tspan><tspan x="43" y="12" dx="0">u</tspan><tspan x="50" y="12" dx="0">t</tspan><tspan x="54" y="12" dx="0">s</tspan><tspan x="60" y="12" dx="0">o</tspan><tspan x="67" y="12" dx="0">o</tspan><tspan x="73" y="12" dx="0">r</tspan><tspan x="78" y="12" dx="0">t</tspan><tspan x="82" y="12" dx="0">»</tspan></text><text stroke="none" fill="#66413F" transform="translate(433 1354)"><tspan x="0" y="12" dx="0">+ </tspan></text><text stroke="none" fill="#66413F" transform="translate(454 1354)"><tspan x="0" y="12" dx="0">hoogte: WaardeEenheid [0..1]</tspan></text><path d="M428 1373 669 1373" stroke="#9A8484" stroke-width="2"/><text stroke="none" fill="#000000" font-style="italic" transform="translate(520 1377)"><tspan x="0" y="12" dx="0">constraints</tspan></text><text stroke="none" fill="#000000" transform="translate(433 1392)"><tspan x="0" y="12" dx="0">{</tspan><tspan x="4" y="12" dx="0">g</tspan><tspan x="11" y="12" dx="0">e</tspan><tspan x="18" y="12" dx="0">o</tspan><tspan x="24" y="12" dx="0">m</tspan><tspan x="34" y="12" dx="0">e</tspan><tspan x="41" y="12" dx="0">t</tspan><tspan x="45" y="12" dx="0">r</tspan><tspan x="49" y="12" dx="0">i</tspan><tspan x="53" y="12" dx="0">e</tspan><tspan x="59" y="12" dx="0"> </tspan><tspan x="63" y="12" dx="0">i</tspan><tspan x="66" y="12" dx="0">s</tspan><tspan x="72" y="12" dx="0"> </tspan><tspan x="75" y="12" dx="0">v</tspan><tspan x="81" y="12" dx="0">a</tspan><tspan x="88" y="12" dx="0">n</tspan><tspan x="94" y="12" dx="0"> </tspan><tspan x="98" y="12" dx="0">t</tspan><tspan x="102" y="12" dx="0">y</tspan><tspan x="108" y="12" dx="0">p</tspan><tspan x="114" y="12" dx="0">e</tspan><tspan x="121" y="12" dx="0"> </tspan><tspan x="124" y="12" dx="0">P</tspan><tspan x="131" y="12" dx="0">o</tspan><tspan x="138" y="12" dx="0">i</tspan><tspan x="141" y="12" dx="0">n</tspan><tspan x="148" y="12" dx="0">t</tspan><tspan x="152" y="12" dx="0"> </tspan><tspan x="155" y="12" dx="0">o</tspan><tspan x="162" y="12" dx="0">f</tspan><tspan x="166" y="12" dx="0"> </tspan><tspan x="169" y="12" dx="0">M</tspan><tspan x="180" y="12" dx="0">u</tspan><tspan x="187" y="12" dx="0">l</tspan><tspan x="190" y="12" dx="0 0">ti</tspan><tspan x="198" y="12" dx="0">P</tspan><tspan x="204" y="12" dx="0">o</tspan><tspan x="211" y="12" dx="0">i</tspan><tspan x="214" y="12" dx="0">n</tspan><tspan x="221" y="12" dx="0">t</tspan><tspan x="225" y="12" dx="0">}</tspan></text><rect x="689" y="1293" width="246" height="127" stroke="none" fill="#D0D0D0"/><rect x="686" y="1290" width="245" height="126" stroke="none" stroke-width="2" fill="#FFE4E1"/><rect x="686" y="1290" width="245" height="127" stroke="#9A8484" stroke-width="2"/><text stroke="none" fill="#000000" transform="translate(772 1296)"><tspan x="0" y="12" dx="0">«</tspan><tspan x="7" y="12" dx="0">O</tspan><tspan x="16" y="12" dx="0">b</tspan><tspan x="23" y="12" dx="0">j</tspan><tspan x="26" y="12" dx="0">e</tspan><tspan x="33" y="12" dx="0">c</tspan><tspan x="38" y="12" dx="0 0">tt</tspan><tspan x="47" y="12" dx="0">y</tspan><tspan x="53" y="12" dx="0">p</tspan><tspan x="59" y="12" dx="0">e</tspan><tspan x="66" y="12" dx="0">»</tspan></text><text stroke="none" fill="#000000" font-weight="700" transform="translate(799 1311)"><tspan x="0" y="12" dx="0">Lijn</tspan></text><path d="M686 1331 931 1331" stroke="#9A8484" stroke-width="2"/><text stroke="none" fill="#000000" transform="translate(699 1339)"><tspan x="0" y="12" dx="0">«</tspan><tspan x="7" y="12" dx="0">A</tspan><tspan x="14" y="12" dx="0 0">tt</tspan><tspan x="23" y="12" dx="0">r</tspan><tspan x="27" y="12" dx="0">i</tspan><tspan x="30" y="12" dx="0">b</tspan><tspan x="37" y="12" dx="0">u</tspan><tspan x="43" y="12" dx="0">u</tspan><tspan x="50" y="12" dx="0">t</tspan><tspan x="54" y="12" dx="0">s</tspan><tspan x="60" y="12" dx="0">o</tspan><tspan x="67" y="12" dx="0">o</tspan><tspan x="73" y="12" dx="0">r</tspan><tspan x="78" y="12" dx="0">t</tspan><tspan x="82" y="12" dx="0">»</tspan></text><text stroke="none" fill="#66413F" transform="translate(691 1354)"><tspan x="0" y="12" dx="0">+ </tspan></text><text stroke="none" fill="#66413F" transform="translate(712 1354)"><tspan x="0" y="12" dx="0">hoogte: WaardeEenheid [0..1]</tspan></text><path d="M686 1373 931 1373" stroke="#9A8484" stroke-width="2"/><text stroke="none" fill="#000000" font-style="italic" transform="translate(780 1377)"><tspan x="0" y="12" dx="0">constraints</tspan></text><text stroke="none" fill="#000000" transform="translate(691 1392)"><tspan x="0" y="12" dx="0">{</tspan><tspan x="4" y="12" dx="0">g</tspan><tspan x="11" y="12" dx="0">e</tspan><tspan x="18" y="12" dx="0">o</tspan><tspan x="24" y="12" dx="0">m</tspan><tspan x="34" y="12" dx="0">e</tspan><tspan x="41" y="12" dx="0">t</tspan><tspan x="45" y="12" dx="0">r</tspan><tspan x="49" y="12" dx="0">i</tspan><tspan x="53" y="12" dx="0">e</tspan><tspan x="59" y="12" dx="0"> </tspan><tspan x="63" y="12" dx="0">i</tspan><tspan x="66" y="12" dx="0">s</tspan><tspan x="72" y="12" dx="0"> </tspan><tspan x="75" y="12" dx="0">v</tspan><tspan x="81" y="12" dx="0">a</tspan><tspan x="88" y="12" dx="0">n</tspan><tspan x="94" y="12" dx="0"> </tspan><tspan x="98" y="12" dx="0">t</tspan><tspan x="102" y="12" dx="0">y</tspan><tspan x="108" y="12" dx="0">p</tspan><tspan x="114" y="12" dx="0">e</tspan><tspan x="121" y="12" dx="0"> </tspan><tspan x="124" y="12" dx="0">C</tspan><tspan x="132" y="12" dx="0">u</tspan><tspan x="138" y="12" dx="0">r</tspan><tspan x="143" y="12" dx="0">v</tspan><tspan x="148" y="12" dx="0">e</tspan><tspan x="155" y="12" dx="0"> </tspan><tspan x="158" y="12" dx="0">o</tspan><tspan x="165" y="12" dx="0">f</tspan><tspan x="169" y="12" dx="0"> </tspan><tspan x="173" y="12" dx="0">M</tspan><tspan x="183" y="12" dx="0">u</tspan><tspan x="190" y="12" dx="0">l</tspan><tspan x="193" y="12" dx="0 0">ti</tspan><tspan x="201" y="12" dx="0">C</tspan><tspan x="208" y="12" dx="0">u</tspan><tspan x="215" y="12" dx="0">r</tspan><tspan x="219" y="12" dx="0">v</tspan><tspan x="225" y="12" dx="0">e</tspan><tspan x="232" y="12" dx="0">}</tspan></text><rect x="536" y="1154" width="174" height="54" stroke="none" fill="#D0D0D0"/><rect x="533" y="1151" width="173" height="53" stroke="none" stroke-width="2" fill="#FFE4E1"/><rect x="533" y="1151" width="173" height="54" stroke="#9A8484" stroke-width="2"/><text stroke="none" fill="#000000" transform="translate(583 1157)"><tspan x="0" y="12" dx="0">«</tspan><tspan x="7" y="12" dx="0">O</tspan><tspan x="16" y="12" dx="0">b</tspan><tspan x="23" y="12" dx="0">j</tspan><tspan x="26" y="12" dx="0">e</tspan><tspan x="33" y="12" dx="0">c</tspan><tspan x="38" y="12" dx="0 0">tt</tspan><tspan x="47" y="12" dx="0">y</tspan><tspan x="53" y="12" dx="0">p</tspan><tspan x="59" y="12" dx="0">e</tspan><tspan x="66" y="12" dx="0">»</tspan></text><text stroke="none" fill="#000000" font-weight="700" transform="translate(582 1172)"><tspan x="0" y="12" dx="0">Puntengroep</tspan></text><rect x="792" y="1154" width="174" height="54" stroke="none" fill="#D0D0D0"/><rect x="789" y="1151" width="173" height="53" stroke="none" stroke-width="2" fill="#FFE4E1"/><rect x="789" y="1151" width="173" height="54" stroke="#9A8484" stroke-width="2"/><text stroke="none" fill="#000000" transform="translate(839 1157)"><tspan x="0" y="12" dx="0">«</tspan><tspan x="7" y="12" dx="0">O</tspan><tspan x="16" y="12" dx="0">b</tspan><tspan x="23" y="12" dx="0">j</tspan><tspan x="26" y="12" dx="0">e</tspan><tspan x="33" y="12" dx="0">c</tspan><tspan x="38" y="12" dx="0 0">tt</tspan><tspan x="47" y="12" dx="0">y</tspan><tspan x="53" y="12" dx="0">p</tspan><tspan x="59" y="12" dx="0">e</tspan><tspan x="66" y="12" dx="0">»</tspan></text><text stroke="none" fill="#000000" font-weight="700" transform="translate(842 1172)"><tspan x="0" y="12" dx="0">Lijnengroep</tspan></text><rect x="748" y="1504" width="173" height="107" stroke="none" fill="#D0D0D0"/><rect x="745" y="1501" width="172" height="106" stroke="none" stroke-width="2" fill="#D8BFD8"/><rect x="745" y="1501" width="172" height="107" stroke="#9A8484" stroke-width="2"/><text stroke="none" fill="#000000" transform="translate(795 1507)"><tspan x="0" y="12" dx="0">«</tspan><tspan x="7" y="12" dx="0">O</tspan><tspan x="16" y="12" dx="0">b</tspan><tspan x="23" y="12" dx="0">j</tspan><tspan x="26" y="12" dx="0">e</tspan><tspan x="33" y="12" dx="0">c</tspan><tspan x="38" y="12" dx="0 0">tt</tspan><tspan x="47" y="12" dx="0">y</tspan><tspan x="53" y="12" dx="0">p</tspan><tspan x="59" y="12" dx="0">e</tspan><tspan x="66" y="12" dx="0">»</tspan></text><text stroke="none" fill="#000000" font-weight="700" transform="translate(801 1522)"><tspan x="0" y="12" dx="0">Geometrie</tspan></text><path d="M745 1542 917 1542" stroke="#9A8484" stroke-width="2"/><text stroke="none" fill="#000000" transform="translate(758 1550)"><tspan x="0" y="12" dx="0">«</tspan><tspan x="7" y="12" dx="0">A</tspan><tspan x="14" y="12" dx="0 0">tt</tspan><tspan x="23" y="12" dx="0">r</tspan><tspan x="27" y="12" dx="0">i</tspan><tspan x="30" y="12" dx="0">b</tspan><tspan x="37" y="12" dx="0">u</tspan><tspan x="43" y="12" dx="0">u</tspan><tspan x="50" y="12" dx="0">t</tspan><tspan x="54" y="12" dx="0">s</tspan><tspan x="60" y="12" dx="0">o</tspan><tspan x="67" y="12" dx="0">o</tspan><tspan x="73" y="12" dx="0">r</tspan><tspan x="78" y="12" dx="0">t</tspan><tspan x="82" y="12" dx="0">»</tspan></text><text stroke="none" fill="#66413F" transform="translate(750 1565)"><tspan x="0" y="12" dx="0">+ </tspan></text><text stroke="none" fill="#66413F" transform="translate(771 1565)"><tspan x="0" y="12" dx="0">id: CharacterString {id}</tspan></text><text stroke="none" fill="#66413F" transform="translate(750 1580)"><tspan x="0" y="12" dx="0">+ </tspan></text><text stroke="none" fill="#66413F" transform="translate(771 1580)"><tspan x="0" y="12" dx="0">geometrie: GM_Object</tspan></text><rect x="1145" y="972" width="166" height="129" stroke="none" fill="#D0D0D0"/><rect x="1142" y="969" width="165" height="128" stroke="none" fill="#FFFFFF"/><rect x="1142" y="969" width="165" height="129" stroke="#9A8484"/><text stroke="none" fill="#000000" font-style="italic" transform="translate(1252 972)"><tspan x="0" y="12" dx="0">OWobject</tspan></text><text stroke="none" fill="#000000" transform="translate(1188 993)"><tspan x="0" y="12" dx="0">«</tspan><tspan x="7" y="12" dx="0">O</tspan><tspan x="16" y="12" dx="0">b</tspan><tspan x="23" y="12" dx="0">j</tspan><tspan x="26" y="12" dx="0">e</tspan><tspan x="33" y="12" dx="0">c</tspan><tspan x="38" y="12" dx="0 0">tt</tspan><tspan x="47" y="12" dx="0">y</tspan><tspan x="53" y="12" dx="0">p</tspan><tspan x="59" y="12" dx="0">e</tspan><tspan x="66" y="12" dx="0">»</tspan></text><text stroke="none" fill="#000000" font-weight="700" transform="translate(1179 1008)"><tspan x="0" y="12" dx="0">Regelingsgebied</tspan></text><path d="M1142 1028 1307 1028" stroke="#9A8484"/><text stroke="none" fill="#000000" transform="translate(1155 1036)"><tspan x="0" y="12" dx="0">«</tspan><tspan x="7" y="12" dx="0">A</tspan><tspan x="14" y="12" dx="0 0">tt</tspan><tspan x="23" y="12" dx="0">r</tspan><tspan x="27" y="12" dx="0">i</tspan><tspan x="30" y="12" dx="0">b</tspan><tspan x="37" y="12" dx="0">u</tspan><tspan x="43" y="12" dx="0">u</tspan><tspan x="50" y="12" dx="0">t</tspan><tspan x="54" y="12" dx="0">s</tspan><tspan x="60" y="12" dx="0">o</tspan><tspan x="67" y="12" dx="0">o</tspan><tspan x="73" y="12" dx="0">r</tspan><tspan x="78" y="12" dx="0">t</tspan><tspan x="82" y="12" dx="0">»</tspan></text><text stroke="none" fill="#66413F" transform="translate(1147 1051)"><tspan x="0" y="12" dx="0">+ </tspan></text><text stroke="none" fill="#66413F" transform="translate(1168 1051)"><tspan x="0" y="12" dx="0">i</tspan><tspan x="3" y="12" dx="0">d</tspan><tspan x="10" y="12" dx="0">e</tspan><tspan x="17" y="12" dx="0">n</tspan><tspan x="23" y="12" dx="0 0">ti</tspan><tspan x="31" y="12" dx="0 0">fi</tspan><tspan x="38" y="12" dx="0">c</tspan><tspan x="44" y="12" dx="0">a</tspan><tspan x="51" y="12" dx="0 0">ti</tspan><tspan x="58" y="12" dx="0">e</tspan><tspan x="65" y="12" dx="0">:</tspan><tspan x="68" y="12" dx="0"> </tspan><tspan x="72" y="12" dx="0">N</tspan><tspan x="80" y="12" dx="0">E</tspan><tspan x="87" y="12" dx="0">N</tspan><tspan x="95" y="12" dx="0">3</tspan><tspan x="102" y="12" dx="0">6</tspan><tspan x="108" y="12" dx="0">1</tspan><tspan x="115" y="12" dx="0">0</tspan><tspan x="122" y="12" dx="0">I</tspan><tspan x="125" y="12" dx="0">D</tspan></text><rect x="1234" y="1290" width="211" height="130" stroke="none" fill="#D0D0D0"/><rect x="1231" y="1287" width="210" height="129" stroke="none" stroke-width="2" fill="#FFE4E1"/><rect x="1231" y="1287" width="210" height="130" stroke="#9A8484" stroke-width="2"/><text stroke="none" fill="#000000" transform="translate(1300 1293)"><tspan x="0" y="12" dx="0">«</tspan><tspan x="7" y="12" dx="0">O</tspan><tspan x="16" y="12" dx="0">b</tspan><tspan x="23" y="12" dx="0">j</tspan><tspan x="26" y="12" dx="0">e</tspan><tspan x="33" y="12" dx="0">c</tspan><tspan x="38" y="12" dx="0 0">tt</tspan><tspan x="47" y="12" dx="0">y</tspan><tspan x="53" y="12" dx="0">p</tspan><tspan x="59" y="12" dx="0">e</tspan><tspan x="66" y="12" dx="0">»</tspan></text><text stroke="none" fill="#000000" font-weight="700" transform="translate(1299 1308)"><tspan x="0" y="12" dx="0">Ambtsgebied</tspan></text><path d="M1231 1328 1441 1328" stroke="#9A8484" stroke-width="2"/><text stroke="none" fill="#000000" transform="translate(1244 1336)"><tspan x="0" y="12" dx="0">«Gegevensgroep»</tspan></text><text stroke="none" fill="#66413F" transform="translate(1236 1351)"><tspan x="0" y="12" dx="0">+ </tspan></text><text stroke="none" fill="#66413F" transform="translate(1257 1351)"><tspan x="0" y="12" dx="0">bestuurlijkeGrenzenVerwijzing:</tspan></text><text stroke="none" fill="#66413F" transform="translate(1257 1366)"><tspan x="0" y="12" dx="0">BestuurlijkeGrenzenVerwijzing</tspan></text><rect x="1239" y="1433" width="181" height="102" stroke="none" fill="#D0D0D0"/><rect x="1236" y="1430" width="180" height="101" stroke="none" fill="#FFE4E1"/><rect x="1236" y="1430" width="180" height="102" stroke="#9A8484"/><text stroke="none" fill="#595959" font-size="8" transform="translate(1289 1436)"><tspan x="0" y="8" dx="0">«Gegevensgroeptype»</tspan></text><text stroke="none" fill="#595959" font-weight="700" font-size="8" transform="translate(1274 1446)"><tspan x="0" y="8" dx="0">BestuurlijkeGrenzenVerwijzing</tspan></text><path d="M1236 1461 1416 1461" stroke="#9A8484"/><text stroke="none" fill="#595959" font-size="8" transform="translate(1247 1469)"><tspan x="0" y="8" dx="0">«</tspan><tspan x="3.75" y="8" dx="0">A</tspan><tspan x="8.5" y="8" dx="0 0">tt</tspan><tspan x="14" y="8" dx="0">r</tspan><tspan x="16.75" y="8" dx="0">i</tspan><tspan x="18.75" y="8" dx="0">b</tspan><tspan x="22.75" y="8" dx="0">u</tspan><tspan x="26.75" y="8" dx="0">u</tspan><tspan x="30.75" y="8" dx="0">t</tspan><tspan x="33.5" y="8" dx="0">s</tspan><tspan x="36.5" y="8" dx="0">o</tspan><tspan x="40.5" y="8" dx="0">o</tspan><tspan x="44.5" y="8" dx="0">r</tspan><tspan x="47.25" y="8" dx="0">t</tspan><tspan x="50" y="8" dx="0">»</tspan></text><text stroke="none" fill="#66413F" font-size="8" transform="translate(1241 1479)"><tspan x="0" y="8" dx="0">+ </tspan></text><text stroke="none" fill="#66413F" font-size="8" transform="translate(1255 1479)"><tspan x="0" y="8" dx="0">domein: CharacterString</tspan></text><text stroke="none" fill="#66413F" font-size="8" transform="translate(1241 1489)"><tspan x="0" y="8" dx="0">+ </tspan></text><text stroke="none" fill="#66413F" font-size="8" transform="translate(1255 1489)"><tspan x="0" y="8" dx="0">bestuurlijkeGrenzenID: CharacterString</tspan></text><text stroke="none" fill="#66413F" font-size="8" transform="translate(1241 1499)"><tspan x="0" y="8" dx="0">+ </tspan></text><text stroke="none" fill="#66413F" font-size="8" transform="translate(1255 1499)"><tspan x="0" y="8" dx="0">geldigOp: Date</tspan></text><path d="M1124 1206 1124 1290M1124 1290 1118 1275M1124 1290 1130 1275" stroke="#69738C" stroke-width="2"/><path d="M754 848 754 974M754 974 748 959M754 974 760 959" stroke="#69738C" stroke-width="2"/><path d="M1335 1286 1335 1142M1335 1142 750 1142M750 1142 750 1093" stroke="#69738C" stroke-width="2"/><path d="M756 1109 744 1109 750 1093 756 1109" stroke="#69738C" stroke-width="2" fill="#FCF2E3"/><path d="M1150 1150 1150 1142" stroke="#69738C" stroke-width="2"/><path d="M618 1150 618 1142" stroke="#69738C" stroke-width="2"/><path d="M874 1150 874 1142" stroke="#69738C" stroke-width="2"/><path d="M609 1206 609 1290M609 1290 603 1275M609 1290 615 1275" stroke="#69738C" stroke-width="2"/><path d="M871 1206 871 1290M871 1290 865 1275M871 1290 877 1275" stroke="#69738C" stroke-width="2"/><path d="M1032 1289 1032 1142" stroke="#69738C" stroke-width="2"/><path d="M1142 1038 856 1038M856 1038 871 1032M856 1038 871 1044" stroke="#69738C" stroke-width="2"/><path d="M596 1417 596 1501M596 1501 745 1501M745 1501 730 1507M745 1501 730 1495" stroke="#69738C" stroke-width="2"/><path d="M1048 1417 1048 1501M1048 1501 918 1501M918 1501 933 1495M918 1501 933 1507" stroke="#69738C" stroke-width="2"/><path d="M824 1418 824 1500M824 1500 818 1485M824 1500 830 1485" stroke="#69738C" stroke-width="2"/><path d="M637 774 446 774M446 774 461 768M446 774 461 780" stroke="#69738C" stroke-width="2"/><path d="M561 910 561 879M561 879 647 879M647 879 647 848" stroke="#69738C" stroke-width="2"/><path d="M653 864 641 864 647 848 653 864" stroke="#69738C" stroke-width="2" fill="#FCF2E3"/><path d="M766 1289 766 1142" stroke="#69738C" stroke-width="2"/><path d="M261 1056 261 873" stroke="#69738C" stroke-dasharray="7 4"/><path d="M645 1056 264 1056" stroke="#69738C" stroke-dasharray="7 4"/><path d="M645 1056 630 1061M645 1056 630 1051" stroke="#69738C"/><path d="M481 1289 481 1142M481 1142 750 1142" stroke="#69738C" stroke-width="2"/><text stroke="none" fill="#595959" font-size="8" transform="translate(928 1461)"><tspan x="0" y="8" dx="0">+geometrie</tspan></text><text stroke="none" fill="#595959" font-size="8" transform="translate(928 1471)"><tspan x="0" y="8" dx="0">«</tspan><tspan x="3.75" y="8" dx="0">R</tspan><tspan x="8" y="8" dx="0">e</tspan><tspan x="11.75" y="8" dx="0">l</tspan><tspan x="13.75" y="8" dx="0">a</tspan><tspan x="17.5" y="8" dx="0 0">ti</tspan><tspan x="22.25" y="8" dx="0">e</tspan><tspan x="26.25" y="8" dx="0">r</tspan><tspan x="29" y="8" dx="0">o</tspan><tspan x="33" y="8" dx="0">l</tspan><tspan x="35" y="8" dx="0">»</tspan></text><text stroke="none" fill="#595959" font-size="8" transform="translate(926 1479)"><tspan x="0" y="8" dx="0">1</tspan></text><text stroke="none" fill="#595959" font-size="8" transform="translate(901 1256)"><tspan x="0" y="8" dx="0">+groepselement</tspan></text><text stroke="none" fill="#595959" font-size="8" transform="translate(908 1266)"><tspan x="0" y="8" dx="0">«</tspan><tspan x="3.75" y="8" dx="0">R</tspan><tspan x="8" y="8" dx="0">e</tspan><tspan x="11.75" y="8" dx="0">l</tspan><tspan x="13.75" y="8" dx="0">a</tspan><tspan x="17.5" y="8" dx="0 0">ti</tspan><tspan x="22.25" y="8" dx="0">e</tspan><tspan x="26.25" y="8" dx="0">r</tspan><tspan x="29" y="8" dx="0">o</tspan><tspan x="33" y="8" dx="0">l</tspan><tspan x="35" y="8" dx="0">»</tspan></text><text stroke="none" fill="#595959" font-size="8" transform="translate(834 1269)"><tspan x="0" y="8" dx="0">1..*</tspan></text><text stroke="none" fill="#595959" font-size="8" transform="translate(1155 1257)"><tspan x="0" y="8" dx="0">+groepselement</tspan></text><text stroke="none" fill="#595959" font-size="8" transform="translate(1162 1267)"><tspan x="0" y="8" dx="0">«</tspan><tspan x="3.75" y="8" dx="0">R</tspan><tspan x="8" y="8" dx="0">e</tspan><tspan x="11.75" y="8" dx="0">l</tspan><tspan x="13.75" y="8" dx="0">a</tspan><tspan x="17.5" y="8" dx="0 0">ti</tspan><tspan x="22.25" y="8" dx="0">e</tspan><tspan x="26.25" y="8" dx="0">r</tspan><tspan x="29" y="8" dx="0">o</tspan><tspan x="33" y="8" dx="0">l</tspan><tspan x="35" y="8" dx="0">»</tspan></text><text stroke="none" fill="#595959" font-size="8" transform="translate(1092 1272)"><tspan x="0" y="8" dx="0">1..*</tspan></text><text stroke="none" fill="#595959" font-size="8" transform="translate(866 1002)"><tspan x="0" y="8" dx="0">+</tspan><tspan x="4.25" y="8" dx="0">l</tspan><tspan x="6.25" y="8" dx="0">o</tspan><tspan x="10.5" y="8" dx="0">c</tspan><tspan x="13.75" y="8" dx="0">a</tspan><tspan x="17.75" y="8" dx="0 0">ti</tspan><tspan x="22.5" y="8" dx="0">e</tspan><tspan x="26.75" y="8" dx="0">a</tspan><tspan x="30.75" y="8" dx="0">a</tspan><tspan x="34.75" y="8" dx="0">n</tspan><tspan x="39" y="8" dx="0">d</tspan><tspan x="43.25" y="8" dx="0">u</tspan><tspan x="47.25" y="8" dx="0">i</tspan><tspan x="49.25" y="8" dx="0">d</tspan><tspan x="53.25" y="8" dx="0">i</tspan><tspan x="55.25" y="8" dx="0">n</tspan><tspan x="59.25" y="8" dx="0">g</tspan></text><text stroke="none" fill="#595959" font-size="8" transform="translate(878 1012)"><tspan x="0" y="8" dx="0">«</tspan><tspan x="3.75" y="8" dx="0">R</tspan><tspan x="8" y="8" dx="0">e</tspan><tspan x="11.75" y="8" dx="0">l</tspan><tspan x="13.75" y="8" dx="0">a</tspan><tspan x="17.5" y="8" dx="0 0">ti</tspan><tspan x="22.25" y="8" dx="0">e</tspan><tspan x="26.25" y="8" dx="0">r</tspan><tspan x="29" y="8" dx="0">o</tspan><tspan x="33" y="8" dx="0">l</tspan><tspan x="35" y="8" dx="0">»</tspan></text><text stroke="none" fill="#595959" font-size="8" transform="translate(875 1050)"><tspan x="0" y="8" dx="0">1</tspan></text><text stroke="none" fill="#595959" font-size="8" transform="translate(618 781)"><tspan x="0" y="8" dx="0">1..*</tspan></text><text stroke="none" fill="#595959" font-size="8" transform="translate(454 740)"><tspan x="0" y="8" dx="0">+</tspan><tspan x="4.25" y="8" dx="0">a</tspan><tspan x="8.25" y="8" dx="0">r</tspan><tspan x="11" y="8" dx="0 0">ti</tspan><tspan x="15.75" y="8" dx="0">k</tspan><tspan x="19.5" y="8" dx="0">e</tspan><tspan x="23.75" y="8" dx="0">l</tspan><tspan x="25.75" y="8" dx="0">O</tspan><tspan x="31.25" y="8" dx="0">f</tspan><tspan x="33.75" y="8" dx="0">L</tspan><tspan x="37" y="8" dx="0">i</tspan><tspan x="39" y="8" dx="0">d</tspan></text><text stroke="none" fill="#595959" font-size="8" transform="translate(454 750)"><tspan x="0" y="8" dx="0">«</tspan><tspan x="3.75" y="8" dx="0">R</tspan><tspan x="8" y="8" dx="0">e</tspan><tspan x="11.75" y="8" dx="0">l</tspan><tspan x="13.75" y="8" dx="0">a</tspan><tspan x="17.5" y="8" dx="0 0">ti</tspan><tspan x="22.25" y="8" dx="0">e</tspan><tspan x="26.25" y="8" dx="0">r</tspan><tspan x="29" y="8" dx="0">o</tspan><tspan x="33" y="8" dx="0">l</tspan><tspan x="35" y="8" dx="0">»</tspan></text><text stroke="none" fill="#595959" font-size="8" transform="translate(852 1474)"><tspan x="0" y="8" dx="0">+geometrie</tspan></text><text stroke="none" fill="#595959" font-size="8" transform="translate(852 1484)"><tspan x="0" y="8" dx="0">«</tspan><tspan x="3.75" y="8" dx="0">R</tspan><tspan x="8" y="8" dx="0">e</tspan><tspan x="11.75" y="8" dx="0">l</tspan><tspan x="13.75" y="8" dx="0">a</tspan><tspan x="17.5" y="8" dx="0 0">ti</tspan><tspan x="22.25" y="8" dx="0">e</tspan><tspan x="26.25" y="8" dx="0">r</tspan><tspan x="29" y="8" dx="0">o</tspan><tspan x="33" y="8" dx="0">l</tspan><tspan x="35" y="8" dx="0">»</tspan></text><text stroke="none" fill="#595959" font-size="8" transform="translate(802 1483)"><tspan x="0" y="8" dx="0">1</tspan></text><text stroke="none" fill="#595959" font-size="8" transform="translate(269 875)"><tspan x="0" y="8" dx="0">1..*</tspan></text><text stroke="none" fill="#595959" font-size="8" transform="translate(583 1068)"><tspan x="0" y="8" dx="0">+werkingsgebied</tspan></text><text stroke="none" fill="#595959" font-size="8" transform="translate(627 1035)"><tspan x="0" y="8" dx="0">1..*</tspan></text><text stroke="none" fill="#595959" font-size="8" transform="translate(762 853)"><tspan x="0" y="8" dx="0">0..*</tspan></text><text stroke="none" fill="#595959" font-size="8" transform="translate(788 929)"><tspan x="0" y="8" dx="0">+</tspan><tspan x="4.25" y="8" dx="0">l</tspan><tspan x="6.25" y="8" dx="0">o</tspan><tspan x="10.5" y="8" dx="0">c</tspan><tspan x="13.75" y="8" dx="0">a</tspan><tspan x="17.75" y="8" dx="0 0">ti</tspan><tspan x="22.5" y="8" dx="0">e</tspan><tspan x="26.75" y="8" dx="0">a</tspan><tspan x="30.75" y="8" dx="0">a</tspan><tspan x="34.75" y="8" dx="0">n</tspan><tspan x="39" y="8" dx="0">d</tspan><tspan x="43.25" y="8" dx="0">u</tspan><tspan x="47.25" y="8" dx="0">i</tspan><tspan x="49.25" y="8" dx="0">d</tspan><tspan x="53.25" y="8" dx="0">i</tspan><tspan x="55.25" y="8" dx="0">n</tspan><tspan x="59.25" y="8" dx="0">g</tspan></text><text stroke="none" fill="#595959" font-size="8" transform="translate(788 939)"><tspan x="0" y="8" dx="0">«</tspan><tspan x="3.75" y="8" dx="0">R</tspan><tspan x="8" y="8" dx="0">e</tspan><tspan x="11.75" y="8" dx="0">l</tspan><tspan x="13.75" y="8" dx="0">a</tspan><tspan x="17.5" y="8" dx="0 0">ti</tspan><tspan x="22.25" y="8" dx="0">e</tspan><tspan x="26.25" y="8" dx="0">r</tspan><tspan x="29" y="8" dx="0">o</tspan><tspan x="33" y="8" dx="0">l</tspan><tspan x="35" y="8" dx="0">»</tspan></text><text stroke="none" fill="#595959" font-size="8" transform="translate(766 959)"><tspan x="0" y="8" dx="0">1..*</tspan></text><text stroke="none" fill="#595959" font-size="8" transform="translate(645 1256)"><tspan x="0" y="8" dx="0">+groepselement</tspan></text><text stroke="none" fill="#595959" font-size="8" transform="translate(652 1266)"><tspan x="0" y="8" dx="0">«</tspan><tspan x="3.75" y="8" dx="0">R</tspan><tspan x="8" y="8" dx="0">e</tspan><tspan x="11.75" y="8" dx="0">l</tspan><tspan x="13.75" y="8" dx="0">a</tspan><tspan x="17.5" y="8" dx="0 0">ti</tspan><tspan x="22.25" y="8" dx="0">e</tspan><tspan x="26.25" y="8" dx="0">r</tspan><tspan x="29" y="8" dx="0">o</tspan><tspan x="33" y="8" dx="0">l</tspan><tspan x="35" y="8" dx="0">»</tspan></text><text stroke="none" fill="#595959" font-size="8" transform="translate(574 1268)"><tspan x="0" y="8" dx="0">1..*</tspan></text><text stroke="none" fill="#595959" font-size="8" transform="translate(705 1513)"><tspan x="0" y="8" dx="0">+geometrie</tspan></text><text stroke="none" fill="#595959" font-size="8" transform="translate(705 1523)"><tspan x="0" y="8" dx="0">«</tspan><tspan x="3.75" y="8" dx="0">R</tspan><tspan x="8" y="8" dx="0">e</tspan><tspan x="11.75" y="8" dx="0">l</tspan><tspan x="13.75" y="8" dx="0">a</tspan><tspan x="17.5" y="8" dx="0 0">ti</tspan><tspan x="22.25" y="8" dx="0">e</tspan><tspan x="26.25" y="8" dx="0">r</tspan><tspan x="29" y="8" dx="0">o</tspan><tspan x="33" y="8" dx="0">l</tspan><tspan x="35" y="8" dx="0">»</tspan></text><text stroke="none" fill="#595959" font-size="8" transform="translate(733 1473)"><tspan x="0" y="8" dx="0">1</tspan></text></g></g></g></g></svg>