<svg width="785.169" height="656.836" viewBox="39.3638 39.9898 588.877 492.627" xmlns="http://www.w3.org/2000/svg" xmlns:xlink="http://www.w3.org/1999/xlink" overflow="hidden"><g transform="matrix(1 0 0 -1 0 768)"><g stroke="#000000" stroke-linecap="round" stroke-linejoin="round" stroke-miterlimit="3" fill="none" fill-rule="evenodd" font-weight="400" baseline-shift="0"><g transform="matrix(0.75 0 0 0.75 0 768.2)"><g font-family="CalibriUnicode" font-size="10" transform="scale(1.00241 -1.00395)"><rect x="335" y="67" width="263" height="177" stroke="none" fill="#D0D0D0"/><rect x="332" y="64" width="262" height="176" stroke="none" fill="#FFFE99"/><rect x="332" y="64" width="262" height="177" stroke="#9A8484"/><rect x="332" y="64" width="262" height="176" stroke="#9A8484"/><text stroke="none" fill="#000000" font-style="italic" font-size="13" transform="translate(541 67)"><tspan x="0" y="12" dx="0">OWobject</tspan></text><text stroke="none" fill="#000000" font-size="13" transform="translate(427 88)"><tspan x="0" y="12" dx="0">«</tspan><tspan x="6" y="12" dx="0">O</tspan><tspan x="15" y="12" dx="0">b</tspan><tspan x="22" y="12" dx="0">j</tspan><tspan x="25" y="12" dx="0">e</tspan><tspan x="32" y="12" dx="0">c</tspan><tspan x="38" y="12" dx="0 0">tt</tspan><tspan x="46" y="12" dx="0">y</tspan><tspan x="51" y="12" dx="0">p</tspan><tspan x="58" y="12" dx="0">e</tspan><tspan x="66" y="12" dx="0">»</tspan></text><text stroke="none" fill="#000000" font-weight="700" font-size="13" transform="translate(449 103)"><tspan x="0" y="12" dx="0">Kaart</tspan></text><path d="M332 123 594 123" stroke="#9A8484"/><text stroke="none" fill="#000000" font-size="13" transform="translate(345 131)"><tspan x="0" y="12" dx="0">«</tspan><tspan x="6" y="12" dx="0">A</tspan><tspan x="14" y="12" dx="0 0">tt</tspan><tspan x="22" y="12" dx="0">r</tspan><tspan x="26" y="12" dx="0">i</tspan><tspan x="30" y="12" dx="0">b</tspan><tspan x="38" y="12" dx="0">u</tspan><tspan x="45" y="12" dx="0">u</tspan><tspan x="52" y="12" dx="0">t</tspan><tspan x="56" y="12" dx="0">s</tspan><tspan x="63" y="12" dx="0">o</tspan><tspan x="70" y="12" dx="0">o</tspan><tspan x="77" y="12" dx="0">r</tspan><tspan x="81" y="12" dx="0">t</tspan><tspan x="85" y="12" dx="0">»</tspan></text><text stroke="none" fill="#66413F" font-size="13" transform="translate(337 146)"><tspan x="0" y="12" dx="0">+</tspan></text><text stroke="none" fill="#66413F" font-size="13" transform="translate(358 146)"><tspan x="0" y="12" dx="0">i</tspan><tspan x="4" y="12" dx="0">d</tspan><tspan x="11" y="12" dx="0">e</tspan><tspan x="19" y="12" dx="0">n</tspan><tspan x="26" y="12" dx="0 0">ti</tspan><tspan x="34" y="12" dx="0 0">fi</tspan><tspan x="43" y="12" dx="0">c</tspan><tspan x="48" y="12" dx="0">a</tspan><tspan x="55" y="12" dx="0 0">ti</tspan><tspan x="64" y="12" dx="0">e</tspan><tspan x="71" y="12" dx="0">:</tspan><tspan x="74" y="12" dx="0"> </tspan><tspan x="77" y="12" dx="0">N</tspan><tspan x="85" y="12" dx="0">E</tspan><tspan x="92" y="12" dx="0">N</tspan><tspan x="100" y="12" dx="0">3</tspan><tspan x="106" y="12" dx="0">6</tspan><tspan x="113" y="12" dx="0">1</tspan><tspan x="119" y="12" dx="0">0</tspan><tspan x="125" y="12" dx="0">I</tspan><tspan x="129" y="12" dx="0">D</tspan><tspan x="138" y="12" dx="0"> </tspan><tspan x="141" y="12" dx="0">{</tspan><tspan x="145" y="12" dx="0">i</tspan><tspan x="149" y="12" dx="0">d</tspan><tspan x="156" y="12" dx="0">}</tspan></text><text stroke="none" fill="#66413F" font-size="13" transform="translate(337 161)"><tspan x="0" y="12" dx="0">+</tspan></text><text stroke="none" fill="#66413F" font-size="13" transform="translate(358 161)"><tspan x="0" y="12" dx="0">naam: CharacterString</tspan></text><text stroke="none" fill="#66413F" font-size="13" transform="translate(337 176)"><tspan x="0" y="12" dx="0">+</tspan></text><text stroke="none" fill="#66413F" font-size="13" transform="translate(358 176)"><tspan x="0" y="12" dx="0">nummer: CharacterString [0..1]</tspan></text><text stroke="none" fill="#000000" font-size="13" transform="translate(345 195)"><tspan x="0" y="12" dx="0">«Gegevensgroep»</tspan></text><text stroke="none" fill="#66413F" font-size="13" transform="translate(337 210)"><tspan x="0" y="12" dx="0">+</tspan></text><text stroke="none" fill="#66413F" font-size="13" transform="translate(358 210)"><tspan x="0" y="12" dx="0">uitsnede: Kaartextent</tspan></text><rect x="335" y="308" width="263" height="166" stroke="none" fill="#D0D0D0"/><rect x="332" y="305" width="262" height="165" stroke="none" fill="#FFFE99"/><rect x="332" y="305" width="262" height="166" stroke="#9A8484"/><rect x="332" y="305" width="262" height="165" stroke="#9A8484"/><text stroke="none" fill="#000000" font-style="italic" font-size="13" transform="translate(541 308)"><tspan x="0" y="12" dx="0">OWobject</tspan></text><text stroke="none" fill="#000000" font-size="13" transform="translate(427 329)"><tspan x="0" y="12" dx="0">«</tspan><tspan x="6" y="12" dx="0">O</tspan><tspan x="15" y="12" dx="0">b</tspan><tspan x="22" y="12" dx="0">j</tspan><tspan x="25" y="12" dx="0">e</tspan><tspan x="32" y="12" dx="0">c</tspan><tspan x="38" y="12" dx="0 0">tt</tspan><tspan x="46" y="12" dx="0">y</tspan><tspan x="51" y="12" dx="0">p</tspan><tspan x="58" y="12" dx="0">e</tspan><tspan x="66" y="12" dx="0">»</tspan></text><text stroke="none" fill="#000000" font-weight="700" font-size="13" transform="translate(438 344)"><tspan x="0" y="12" dx="0">Kaartlaag</tspan></text><path d="M332 364 594 364" stroke="#9A8484"/><text stroke="none" fill="#000000" font-size="13" transform="translate(345 372)"><tspan x="0" y="12" dx="0">«</tspan><tspan x="6" y="12" dx="0">A</tspan><tspan x="14" y="12" dx="0 0">tt</tspan><tspan x="22" y="12" dx="0">r</tspan><tspan x="26" y="12" dx="0">i</tspan><tspan x="30" y="12" dx="0">b</tspan><tspan x="38" y="12" dx="0">u</tspan><tspan x="45" y="12" dx="0">u</tspan><tspan x="52" y="12" dx="0">t</tspan><tspan x="56" y="12" dx="0">s</tspan><tspan x="63" y="12" dx="0">o</tspan><tspan x="70" y="12" dx="0">o</tspan><tspan x="77" y="12" dx="0">r</tspan><tspan x="81" y="12" dx="0">t</tspan><tspan x="85" y="12" dx="0">»</tspan></text><text stroke="none" fill="#66413F" font-size="13" transform="translate(337 387)"><tspan x="0" y="12" dx="0">+</tspan></text><text stroke="none" fill="#66413F" font-size="13" transform="translate(358 387)"><tspan x="0" y="12" dx="0">i</tspan><tspan x="4" y="12" dx="0">d</tspan><tspan x="11" y="12" dx="0">e</tspan><tspan x="19" y="12" dx="0">n</tspan><tspan x="26" y="12" dx="0 0">ti</tspan><tspan x="34" y="12" dx="0 0">fi</tspan><tspan x="43" y="12" dx="0">c</tspan><tspan x="48" y="12" dx="0">a</tspan><tspan x="55" y="12" dx="0 0">ti</tspan><tspan x="64" y="12" dx="0">e</tspan><tspan x="71" y="12" dx="0">:</tspan><tspan x="74" y="12" dx="0"> </tspan><tspan x="77" y="12" dx="0">N</tspan><tspan x="85" y="12" dx="0">E</tspan><tspan x="92" y="12" dx="0">N</tspan><tspan x="100" y="12" dx="0">3</tspan><tspan x="106" y="12" dx="0">6</tspan><tspan x="113" y="12" dx="0">1</tspan><tspan x="119" y="12" dx="0">0</tspan><tspan x="125" y="12" dx="0">I</tspan><tspan x="129" y="12" dx="0">D</tspan></text><text stroke="none" fill="#66413F" font-size="13" transform="translate(337 402)"><tspan x="0" y="12" dx="0">+</tspan></text><text stroke="none" fill="#66413F" font-size="13" transform="translate(358 402)"><tspan x="0" y="12" dx="0">naam: CharacterString [0..1]</tspan></text><text stroke="none" fill="#66413F" font-size="13" transform="translate(337 417)"><tspan x="0" y="12" dx="0">+</tspan></text><text stroke="none" fill="#66413F" font-size="13" transform="translate(358 417)"><tspan x="0" y="12" dx="0">niveau: Integer</tspan></text><rect x="95" y="544" width="208" height="144" stroke="none" fill="#D0D0D0"/><rect x="92" y="541" width="207" height="143" stroke="none" fill="#CCFFCC"/><rect x="92" y="541" width="207" height="144" stroke="#9A8484"/><rect x="92" y="541" width="207" height="143" stroke="#9A8484"/><text stroke="none" fill="#595959" font-style="italic" transform="translate(255 544)"><tspan x="0" y="10" dx="0">OWobject</tspan></text><text stroke="none" fill="#595959" transform="translate(169 563)"><tspan x="0" y="10" dx="0">«</tspan><tspan x="5.33333" y="10" dx="0">O</tspan><tspan x="12.3333" y="10" dx="0">b</tspan><tspan x="17.6667" y="10" dx="0">j</tspan><tspan x="20" y="10" dx="0">e</tspan><tspan x="25" y="10" dx="0">c</tspan><tspan x="29.3333" y="10" dx="0 0">tt</tspan><tspan x="36" y="10" dx="0">y</tspan><tspan x="40.6667" y="10" dx="0">p</tspan><tspan x="46" y="10" dx="0">e</tspan><tspan x="51" y="10" dx="0">»</tspan></text><text stroke="none" fill="#595959" font-weight="700" transform="translate(114 576)"><tspan x="0" y="10" dx="0">GebiedsAanwijzing::Gebiedsaanwijzing</tspan></text><path d="M92 594 299 594" stroke="#9A8484"/><text stroke="none" fill="#595959" transform="translate(104 602)"><tspan x="0" y="10" dx="0">«</tspan><tspan x="4.66667" y="10" dx="0">A</tspan><tspan x="10" y="10" dx="0 0">tt</tspan><tspan x="16.6667" y="10" dx="0">r</tspan><tspan x="20" y="10" dx="0">i</tspan><tspan x="22.3333" y="10" dx="0">b</tspan><tspan x="27.6667" y="10" dx="0">u</tspan><tspan x="33" y="10" dx="0">u</tspan><tspan x="38.3333" y="10" dx="0">t</tspan><tspan x="41.6667" y="10" dx="0">s</tspan><tspan x="45.6667" y="10" dx="0">o</tspan><tspan x="51" y="10" dx="0">o</tspan><tspan x="56.3333" y="10" dx="0">r</tspan><tspan x="59.6667" y="10" dx="0">t</tspan><tspan x="63" y="10" dx="0">»</tspan></text><text stroke="none" fill="#66413F" transform="translate(97 615)"><tspan x="0" y="10" dx="0">+</tspan></text><text stroke="none" fill="#66413F" transform="translate(114 615)"><tspan x="0" y="10" dx="0">i</tspan><tspan x="2.33333" y="10" dx="0">d</tspan><tspan x="8" y="10" dx="0">e</tspan><tspan x="13.3333" y="10" dx="0">n</tspan><tspan x="19" y="10" dx="0 0">ti</tspan><tspan x="24.6667" y="10" dx="0 0">fi</tspan><tspan x="30" y="10" dx="0">c</tspan><tspan x="34.3333" y="10" dx="0">a</tspan><tspan x="39" y="10" dx="0 0">ti</tspan><tspan x="44.6667" y="10" dx="0">e</tspan><tspan x="49.6667" y="10" dx="0">:</tspan><tspan x="52.3333" y="10" dx="0"> </tspan><tspan x="54.6667" y="10" dx="0">N</tspan><tspan x="61" y="10" dx="0">E</tspan><tspan x="66" y="10" dx="0">N</tspan><tspan x="72.3333" y="10" dx="0">3</tspan><tspan x="77.3333" y="10" dx="0">6</tspan><tspan x="82.3333" y="10" dx="0">1</tspan><tspan x="87.3333" y="10" dx="0">0</tspan><tspan x="92.3333" y="10" dx="0">I</tspan><tspan x="95" y="10" dx="0">D</tspan><tspan x="101" y="10" dx="0"> </tspan><tspan x="103.333" y="10" dx="0">{</tspan><tspan x="106.333" y="10" dx="0">i</tspan><tspan x="108.667" y="10" dx="0">d</tspan><tspan x="114" y="10" dx="0">}</tspan></text><text stroke="none" fill="#66413F" transform="translate(97 628)"><tspan x="0" y="10" dx="0">+</tspan></text><text stroke="none" fill="#66413F" transform="translate(114 628)"><tspan x="0" y="10" dx="0">type: TypeGebiedsaanwijzing</tspan></text><text stroke="none" fill="#66413F" transform="translate(97 641)"><tspan x="0" y="10" dx="0">+</tspan></text><text stroke="none" fill="#66413F" transform="translate(114 641)"><tspan x="0" y="10" dx="0">naam: CharacterString</tspan></text><text stroke="none" fill="#66413F" transform="translate(97 654)"><tspan x="0" y="10" dx="0">+</tspan></text><text stroke="none" fill="#66413F" transform="translate(114 654)"><tspan x="0" y="10" dx="0">groep: Gebiedsaanwijzinggroep</tspan></text><rect x="350" y="536" width="159" height="161" stroke="none" fill="#D0D0D0"/><rect x="347" y="533" width="158" height="160" stroke="none" fill="#CCFFCC"/><rect x="347" y="533" width="158" height="161" stroke="#9A8484"/><rect x="347" y="533" width="158" height="160" stroke="#9A8484"/><text stroke="none" fill="#000000" font-style="italic" transform="translate(461 536)"><tspan x="0" y="10" dx="0">OWobject</tspan></text><text stroke="none" fill="#000000" transform="translate(399 555)"><tspan x="0" y="10" dx="0">«</tspan><tspan x="5.33333" y="10" dx="0">O</tspan><tspan x="12.3333" y="10" dx="0">b</tspan><tspan x="17.6667" y="10" dx="0">j</tspan><tspan x="20" y="10" dx="0">e</tspan><tspan x="25" y="10" dx="0">c</tspan><tspan x="29.3333" y="10" dx="0 0">tt</tspan><tspan x="36" y="10" dx="0">y</tspan><tspan x="40.6667" y="10" dx="0">p</tspan><tspan x="46" y="10" dx="0">e</tspan><tspan x="51" y="10" dx="0">»</tspan></text><text stroke="none" fill="#000000" font-style="italic" font-weight="700" transform="translate(376 568)"><tspan x="0" y="10" dx="0">R</tspan><tspan x="6" y="10" dx="0">e</tspan><tspan x="11.3333" y="10" dx="0">g</tspan><tspan x="17" y="10" dx="0">e</tspan><tspan x="22.3333" y="10" dx="0">l</tspan><tspan x="24.6667" y="10" dx="0">s</tspan><tspan x="28.6667" y="10" dx="0">O</tspan><tspan x="35.6667" y="10" dx="0">p</tspan><tspan x="41.3333" y="10" dx="0">L</tspan><tspan x="45.6667" y="10" dx="0">o</tspan><tspan x="51.3333" y="10" dx="0">c</tspan><tspan x="55.3333" y="10" dx="0">a</tspan><tspan x="61" y="10" dx="0 0">ti</tspan><tspan x="66.6667" y="10" dx="0">e</tspan><tspan x="72" y="10" dx="0">:</tspan><tspan x="74.6667" y="10" dx="0">:</tspan><tspan x="77.3333" y="10" dx="0">N</tspan><tspan x="84" y="10" dx="0">o</tspan><tspan x="89.3333" y="10" dx="0">r</tspan><tspan x="93" y="10" dx="0">m</tspan></text><path d="M347 586 505 586" stroke="#9A8484"/><text stroke="none" fill="#000000" transform="translate(359 594)"><tspan x="0" y="10" dx="0">«</tspan><tspan x="4.66667" y="10" dx="0">A</tspan><tspan x="10" y="10" dx="0 0">tt</tspan><tspan x="16.6667" y="10" dx="0">r</tspan><tspan x="20" y="10" dx="0">i</tspan><tspan x="22.3333" y="10" dx="0">b</tspan><tspan x="27.6667" y="10" dx="0">u</tspan><tspan x="33" y="10" dx="0">u</tspan><tspan x="38.3333" y="10" dx="0">t</tspan><tspan x="41.6667" y="10" dx="0">s</tspan><tspan x="45.6667" y="10" dx="0">o</tspan><tspan x="51" y="10" dx="0">o</tspan><tspan x="56.3333" y="10" dx="0">r</tspan><tspan x="59.6667" y="10" dx="0">t</tspan><tspan x="63" y="10" dx="0">»</tspan></text><text stroke="none" fill="#66413F" transform="translate(352 607)"><tspan x="0" y="10" dx="0">+</tspan></text><text stroke="none" fill="#66413F" transform="translate(369 607)"><tspan x="0" y="10" dx="0">i</tspan><tspan x="2.33333" y="10" dx="0">d</tspan><tspan x="8" y="10" dx="0">e</tspan><tspan x="13.3333" y="10" dx="0">n</tspan><tspan x="19" y="10" dx="0 0">ti</tspan><tspan x="24.6667" y="10" dx="0 0">fi</tspan><tspan x="30" y="10" dx="0">c</tspan><tspan x="34.3333" y="10" dx="0">a</tspan><tspan x="39" y="10" dx="0 0">ti</tspan><tspan x="44.6667" y="10" dx="0">e</tspan><tspan x="49.6667" y="10" dx="0">:</tspan><tspan x="52.3333" y="10" dx="0"> </tspan><tspan x="54.6667" y="10" dx="0">N</tspan><tspan x="61" y="10" dx="0">E</tspan><tspan x="66" y="10" dx="0">N</tspan><tspan x="72.3333" y="10" dx="0">3</tspan><tspan x="77.3333" y="10" dx="0">6</tspan><tspan x="82.3333" y="10" dx="0">1</tspan><tspan x="87.3333" y="10" dx="0">0</tspan><tspan x="92.3333" y="10" dx="0">I</tspan><tspan x="95" y="10" dx="0">D</tspan><tspan x="101" y="10" dx="0"> </tspan><tspan x="103.333" y="10" dx="0">{</tspan><tspan x="106.333" y="10" dx="0">i</tspan><tspan x="108.667" y="10" dx="0">d</tspan><tspan x="114" y="10" dx="0">}</tspan></text><text stroke="none" fill="#66413F" transform="translate(352 620)"><tspan x="0" y="10" dx="0">+</tspan></text><text stroke="none" fill="#66413F" transform="translate(369 620)"><tspan x="0" y="10" dx="0">naam: CharacterString</tspan></text><text stroke="none" fill="#66413F" transform="translate(352 633)"><tspan x="0" y="10" dx="0">+</tspan></text><text stroke="none" fill="#66413F" transform="translate(369 633)"><tspan x="0" y="10" dx="0">type: Typenorm</tspan></text><text stroke="none" fill="#66413F" transform="translate(352 646)"><tspan x="0" y="10" dx="0">+</tspan></text><text stroke="none" fill="#66413F" transform="translate(369 646)"><tspan x="0" y="10" dx="0">eenheid: Eenheid [0..1]</tspan></text><text stroke="none" fill="#000000" transform="translate(359 663)"><tspan x="0" y="10" dx="0">«Gegevensgroep»</tspan></text><text stroke="none" fill="#66413F" transform="translate(352 676)"><tspan x="0" y="10" dx="0">+</tspan></text><text stroke="none" fill="#66413F" transform="translate(369 676)"><tspan x="0" y="10" dx="0">normwaarde: Norm</tspan></text><text stroke="none" fill="#66413F" transform="translate(450 676)"><tspan x="0" y="10" dx="0">waarde [1..*]</tspan></text><rect x="66" y="67" width="139" height="118" stroke="none" fill="#D0D0D0"/><rect x="63" y="64" width="138" height="117" stroke="none" fill="#CCFFFF"/><rect x="63" y="64" width="138" height="118" stroke="#9A8484"/><rect x="63" y="64" width="138" height="117" stroke="#9A8484"/><text stroke="none" fill="#595959" font-style="italic" transform="translate(157 67)"><tspan x="0" y="10" dx="0">OWobject</tspan></text><text stroke="none" fill="#595959" transform="translate(105 86)"><tspan x="0" y="10" dx="0">«</tspan><tspan x="5.33333" y="10" dx="0">O</tspan><tspan x="12.3333" y="10" dx="0">b</tspan><tspan x="17.6667" y="10" dx="0">j</tspan><tspan x="20" y="10" dx="0">e</tspan><tspan x="25" y="10" dx="0">c</tspan><tspan x="29.3333" y="10" dx="0 0">tt</tspan><tspan x="36" y="10" dx="0">y</tspan><tspan x="40.6667" y="10" dx="0">p</tspan><tspan x="46" y="10" dx="0">e</tspan><tspan x="51" y="10" dx="0">»</tspan></text><text stroke="none" fill="#595959" font-weight="700" transform="translate(87 99)"><tspan x="0" y="10" dx="0">VrijeTekst::Tekstdeel</tspan></text><path d="M63 117 201 117" stroke="#9A8484"/><text stroke="none" fill="#595959" transform="translate(75 125)"><tspan x="0" y="10" dx="0">«</tspan><tspan x="4.66667" y="10" dx="0">A</tspan><tspan x="10" y="10" dx="0 0">tt</tspan><tspan x="16.6667" y="10" dx="0">r</tspan><tspan x="20" y="10" dx="0">i</tspan><tspan x="22.3333" y="10" dx="0">b</tspan><tspan x="27.6667" y="10" dx="0">u</tspan><tspan x="33" y="10" dx="0">u</tspan><tspan x="38.3333" y="10" dx="0">t</tspan><tspan x="41.6667" y="10" dx="0">s</tspan><tspan x="45.6667" y="10" dx="0">o</tspan><tspan x="51" y="10" dx="0">o</tspan><tspan x="56.3333" y="10" dx="0">r</tspan><tspan x="59.6667" y="10" dx="0">t</tspan><tspan x="63" y="10" dx="0">»</tspan></text><text stroke="none" fill="#66413F" transform="translate(68 138)"><tspan x="0" y="10" dx="0">+</tspan></text><text stroke="none" fill="#66413F" transform="translate(85 138)"><tspan x="0" y="10" dx="0">i</tspan><tspan x="2.33333" y="10" dx="0">d</tspan><tspan x="7.33333" y="10" dx="0">e</tspan><tspan x="12.3333" y="10" dx="0">n</tspan><tspan x="17.6667" y="10" dx="0 0">ti</tspan><tspan x="23.3333" y="10" dx="0 0">fi</tspan><tspan x="28.6667" y="10" dx="0">c</tspan><tspan x="33" y="10" dx="0">a</tspan><tspan x="37.6667" y="10" dx="0 0">ti</tspan><tspan x="43.3333" y="10" dx="0">e</tspan><tspan x="48.3333" y="10" dx="0">:</tspan></text><text stroke="none" fill="#66413F" transform="translate(136 138)"><tspan x="0" y="10" dx="0">NEN3610ID {id}</tspan></text><text stroke="none" fill="#66413F" transform="translate(68 151)"><tspan x="0" y="10" dx="0">+</tspan></text><text stroke="none" fill="#66413F" transform="translate(85 151)"><tspan x="0" y="10" dx="0">i</tspan><tspan x="2.33333" y="10" dx="0">d</tspan><tspan x="8" y="10" dx="0">e</tspan><tspan x="13.3333" y="10" dx="0">a</tspan><tspan x="18.3333" y="10" dx="0">l</tspan><tspan x="20.6667" y="10" dx="0">i</tspan><tspan x="23" y="10" dx="0">s</tspan><tspan x="27.3333" y="10" dx="0">a</tspan><tspan x="32" y="10" dx="0 0">ti</tspan><tspan x="37.6667" y="10" dx="0">e</tspan><tspan x="42.6667" y="10" dx="0">:</tspan><tspan x="45.3333" y="10" dx="0"> </tspan><tspan x="47.6667" y="10" dx="0">I</tspan><tspan x="50.3333" y="10" dx="0">d</tspan><tspan x="55.6667" y="10" dx="0">e</tspan><tspan x="60.6667" y="10" dx="0">a</tspan><tspan x="65.3333" y="10" dx="0">l</tspan><tspan x="67.6667" y="10" dx="0">i</tspan></text><text stroke="none" fill="#66413F" transform="translate(155 151)"><tspan x="0" y="10" dx="0">s</tspan><tspan x="3.66667" y="10" dx="0">a</tspan><tspan x="8" y="10" dx="0 0">ti</tspan><tspan x="13.6667" y="10" dx="0">e</tspan><tspan x="18.3333" y="10" dx="0"> </tspan><tspan x="20.6667" y="10" dx="0">[</tspan><tspan x="23.6667" y="10" dx="0">0</tspan><tspan x="28.6667" y="10" dx="0">.</tspan><tspan x="31.3333" y="10" dx="0">.</tspan><tspan x="34" y="10" dx="0">1</tspan><tspan x="39" y="10" dx="0">]</tspan></text><text stroke="none" fill="#66413F" transform="translate(68 164)"><tspan x="0" y="10" dx="0">+</tspan></text><text stroke="none" fill="#66413F" transform="translate(85 164)"><tspan x="0" y="10" dx="0">thema: Thema [0..*]</tspan></text><rect x="650" y="111" width="114" height="122" stroke="none" fill="#D0D0D0"/><rect x="647" y="108" width="113" height="121" stroke="none" fill="#FBF9C6"/><rect x="647" y="108" width="113" height="122" stroke="#9A8484"/><rect x="647" y="108" width="113" height="121" stroke="#9A8484"/><text stroke="none" fill="#595959" transform="translate(661 114)"><tspan x="0" y="10" dx="0">«Gegevensgroepty...</tspan></text><text stroke="none" fill="#595959" font-weight="700" transform="translate(679 127)"><tspan x="0" y="10" dx="0">Kaartextent</tspan></text><path d="M647 145 760 145" stroke="#9A8484"/><text stroke="none" fill="#595959" transform="translate(659 153)"><tspan x="0" y="10" dx="0">«</tspan><tspan x="4.66667" y="10" dx="0">A</tspan><tspan x="10" y="10" dx="0 0">tt</tspan><tspan x="16.6667" y="10" dx="0">r</tspan><tspan x="20" y="10" dx="0">i</tspan><tspan x="22.3333" y="10" dx="0">b</tspan><tspan x="27.6667" y="10" dx="0">u</tspan><tspan x="33" y="10" dx="0">u</tspan><tspan x="38.3333" y="10" dx="0">t</tspan><tspan x="41.6667" y="10" dx="0">s</tspan><tspan x="45.6667" y="10" dx="0">o</tspan><tspan x="51" y="10" dx="0">o</tspan><tspan x="56.3333" y="10" dx="0">r</tspan><tspan x="59.6667" y="10" dx="0">t</tspan><tspan x="63" y="10" dx="0">»</tspan></text><text stroke="none" fill="#66413F" transform="translate(652 166)"><tspan x="0" y="10" dx="0">+</tspan></text><text stroke="none" fill="#66413F" transform="translate(669 166)"><tspan x="0" y="10" dx="0">minX: Real</tspan></text><text stroke="none" fill="#66413F" transform="translate(652 179)"><tspan x="0" y="10" dx="0">+</tspan></text><text stroke="none" fill="#66413F" transform="translate(669 179)"><tspan x="0" y="10" dx="0">minY: Real</tspan></text><text stroke="none" fill="#66413F" transform="translate(652 192)"><tspan x="0" y="10" dx="0">+</tspan></text><text stroke="none" fill="#66413F" transform="translate(669 192)"><tspan x="0" y="10" dx="0">maxX: Real</tspan></text><text stroke="none" fill="#66413F" transform="translate(652 205)"><tspan x="0" y="10" dx="0">+</tspan></text><text stroke="none" fill="#66413F" transform="translate(669 205)"><tspan x="0" y="10" dx="0">maxY: Real</tspan></text><rect x="66" y="214" width="139" height="118" stroke="none" fill="#D0D0D0"/><rect x="63" y="211" width="138" height="117" stroke="none" fill="#CCFFFF"/><rect x="63" y="211" width="138" height="118" stroke="#9A8484"/><rect x="63" y="211" width="138" height="117" stroke="#9A8484"/><text stroke="none" fill="#595959" font-style="italic" transform="translate(157 214)"><tspan x="0" y="10" dx="0">OWobject</tspan></text><text stroke="none" fill="#595959" transform="translate(105 233)"><tspan x="0" y="10" dx="0">«</tspan><tspan x="5.33333" y="10" dx="0">O</tspan><tspan x="12.3333" y="10" dx="0">b</tspan><tspan x="17.6667" y="10" dx="0">j</tspan><tspan x="20" y="10" dx="0">e</tspan><tspan x="25" y="10" dx="0">c</tspan><tspan x="29.3333" y="10" dx="0 0">tt</tspan><tspan x="36" y="10" dx="0">y</tspan><tspan x="40.6667" y="10" dx="0">p</tspan><tspan x="46" y="10" dx="0">e</tspan><tspan x="51" y="10" dx="0">»</tspan></text><text stroke="none" fill="#595959" font-style="italic" font-weight="700" transform="translate(85 246)"><tspan x="0" y="10" dx="0">Regel::JuridischeRegel</tspan></text><path d="M63 264 201 264" stroke="#9A8484"/><text stroke="none" fill="#595959" transform="translate(75 272)"><tspan x="0" y="10" dx="0">«</tspan><tspan x="4.66667" y="10" dx="0">A</tspan><tspan x="10" y="10" dx="0 0">tt</tspan><tspan x="16.6667" y="10" dx="0">r</tspan><tspan x="20" y="10" dx="0">i</tspan><tspan x="22.3333" y="10" dx="0">b</tspan><tspan x="27.6667" y="10" dx="0">u</tspan><tspan x="33" y="10" dx="0">u</tspan><tspan x="38.3333" y="10" dx="0">t</tspan><tspan x="41.6667" y="10" dx="0">s</tspan><tspan x="45.6667" y="10" dx="0">o</tspan><tspan x="51" y="10" dx="0">o</tspan><tspan x="56.3333" y="10" dx="0">r</tspan><tspan x="59.6667" y="10" dx="0">t</tspan><tspan x="63" y="10" dx="0">»</tspan></text><text stroke="none" fill="#66413F" transform="translate(68 285)"><tspan x="0" y="10" dx="0">+</tspan></text><text stroke="none" fill="#66413F" transform="translate(85 285)"><tspan x="0" y="10" dx="0">i</tspan><tspan x="2.33333" y="10" dx="0">d</tspan><tspan x="7.33333" y="10" dx="0">e</tspan><tspan x="12.3333" y="10" dx="0">n</tspan><tspan x="17.6667" y="10" dx="0 0">ti</tspan><tspan x="23.3333" y="10" dx="0 0">fi</tspan><tspan x="28.6667" y="10" dx="0">c</tspan><tspan x="33" y="10" dx="0">a</tspan><tspan x="37.6667" y="10" dx="0 0">ti</tspan><tspan x="43.3333" y="10" dx="0">e</tspan><tspan x="48.3333" y="10" dx="0">:</tspan></text><text stroke="none" fill="#66413F" transform="translate(136 285)"><tspan x="0" y="10" dx="0">NEN3610ID {id}</tspan></text><text stroke="none" fill="#66413F" transform="translate(68 298)"><tspan x="0" y="10" dx="0">+</tspan></text><text stroke="none" fill="#66413F" transform="translate(85 298)"><tspan x="0" y="10" dx="0">i</tspan><tspan x="2.33333" y="10" dx="0">d</tspan><tspan x="8" y="10" dx="0">e</tspan><tspan x="13.3333" y="10" dx="0">a</tspan><tspan x="18.3333" y="10" dx="0">l</tspan><tspan x="20.6667" y="10" dx="0">i</tspan><tspan x="23" y="10" dx="0">s</tspan><tspan x="27.3333" y="10" dx="0">a</tspan><tspan x="32.3333" y="10" dx="0 0">ti</tspan><tspan x="38" y="10" dx="0">e</tspan><tspan x="43.3333" y="10" dx="0">:</tspan><tspan x="46" y="10" dx="0"> </tspan><tspan x="48.3333" y="10" dx="0">I</tspan><tspan x="51" y="10" dx="0">d</tspan><tspan x="56.3333" y="10" dx="0">e</tspan><tspan x="61.3333" y="10" dx="0">a</tspan><tspan x="66" y="10" dx="0">l</tspan><tspan x="68.3333" y="10" dx="0">i</tspan><tspan x="70.6667" y="10" dx="0">s</tspan><tspan x="74.6667" y="10" dx="0">a</tspan><tspan x="79.3333" y="10" dx="0 0">ti</tspan><tspan x="85" y="10" dx="0">e</tspan></text><text stroke="none" fill="#66413F" transform="translate(68 311)"><tspan x="0" y="10" dx="0">+</tspan></text><text stroke="none" fill="#66413F" transform="translate(85 311)"><tspan x="0" y="10" dx="0">thema: Thema [0..*]</tspan></text><rect x="591" y="536" width="231" height="89" stroke="none" fill="#D0D0D0"/><rect x="588" y="533" width="230" height="88" stroke="none" fill="#CCFFCC"/><rect x="588" y="533" width="230" height="89" stroke="#9A8484"/><rect x="588" y="533" width="230" height="88" stroke="#9A8484"/><text stroke="none" fill="#000000" transform="translate(676 539)"><tspan x="0" y="10" dx="0">«</tspan><tspan x="5.33333" y="10" dx="0">O</tspan><tspan x="12.3333" y="10" dx="0">b</tspan><tspan x="17.6667" y="10" dx="0">j</tspan><tspan x="20" y="10" dx="0">e</tspan><tspan x="25" y="10" dx="0">c</tspan><tspan x="29.3333" y="10" dx="0 0">tt</tspan><tspan x="36" y="10" dx="0">y</tspan><tspan x="40.6667" y="10" dx="0">p</tspan><tspan x="46" y="10" dx="0">e</tspan><tspan x="51" y="10" dx="0">»</tspan></text><text stroke="none" fill="#000000" font-weight="700" transform="translate(632 552)"><tspan x="0" y="10" dx="0">R</tspan><tspan x="6" y="10" dx="0">e</tspan><tspan x="11.3333" y="10" dx="0">g</tspan><tspan x="16.3333" y="10" dx="0">e</tspan><tspan x="21.6667" y="10" dx="0">l</tspan><tspan x="24" y="10" dx="0">:</tspan><tspan x="26.6667" y="10" dx="0">:</tspan><tspan x="29.3333" y="10" dx="0">A</tspan><tspan x="35.3333" y="10" dx="0">c</tspan><tspan x="39.6667" y="10" dx="0 0">ti</tspan><tspan x="45.3333" y="10" dx="0">v</tspan><tspan x="50" y="10" dx="0">i</tspan><tspan x="52.3333" y="10" dx="0">t</tspan><tspan x="55.6667" y="10" dx="0">e</tspan><tspan x="60.6667" y="10" dx="0">i</tspan><tspan x="63" y="10" dx="0">t</tspan><tspan x="66.3333" y="10" dx="0">L</tspan><tspan x="70.6667" y="10" dx="0">o</tspan><tspan x="76" y="10" dx="0">c</tspan><tspan x="80.3333" y="10" dx="0">a</tspan><tspan x="85.3333" y="10" dx="0 0">ti</tspan><tspan x="91" y="10" dx="0">e</tspan><tspan x="96" y="10" dx="0">a</tspan><tspan x="101" y="10" dx="0">a</tspan><tspan x="106" y="10" dx="0">n</tspan><tspan x="111.333" y="10" dx="0">d</tspan><tspan x="116.667" y="10" dx="0">u</tspan><tspan x="122" y="10" dx="0">i</tspan><tspan x="124.333" y="10" dx="0">d</tspan><tspan x="129.667" y="10" dx="0">i</tspan><tspan x="132" y="10" dx="0">n</tspan><tspan x="137.333" y="10" dx="0">g</tspan></text><path d="M588 570 818 570" stroke="#9A8484"/><text stroke="none" fill="#000000" transform="translate(600 578)"><tspan x="0" y="10" dx="0">«</tspan><tspan x="4.66667" y="10" dx="0">A</tspan><tspan x="10" y="10" dx="0 0">tt</tspan><tspan x="16.6667" y="10" dx="0">r</tspan><tspan x="20" y="10" dx="0">i</tspan><tspan x="22.3333" y="10" dx="0">b</tspan><tspan x="27.6667" y="10" dx="0">u</tspan><tspan x="33" y="10" dx="0">u</tspan><tspan x="38.3333" y="10" dx="0">t</tspan><tspan x="41.6667" y="10" dx="0">s</tspan><tspan x="45.6667" y="10" dx="0">o</tspan><tspan x="51" y="10" dx="0">o</tspan><tspan x="56.3333" y="10" dx="0">r</tspan><tspan x="59.6667" y="10" dx="0">t</tspan><tspan x="63" y="10" dx="0">»</tspan></text><text stroke="none" fill="#66413F" transform="translate(593 591)"><tspan x="0" y="10" dx="0">+</tspan></text><text stroke="none" fill="#66413F" transform="translate(610 591)"><tspan x="0" y="10" dx="0">i</tspan><tspan x="2.33333" y="10" dx="0">d</tspan><tspan x="8" y="10" dx="0">e</tspan><tspan x="13.3333" y="10" dx="0">n</tspan><tspan x="19" y="10" dx="0 0">ti</tspan><tspan x="24.6667" y="10" dx="0 0">fi</tspan><tspan x="30" y="10" dx="0">c</tspan><tspan x="34.3333" y="10" dx="0">a</tspan><tspan x="39" y="10" dx="0 0">ti</tspan><tspan x="44.6667" y="10" dx="0">e</tspan><tspan x="49.6667" y="10" dx="0">:</tspan><tspan x="52.3333" y="10" dx="0"> </tspan><tspan x="54.6667" y="10" dx="0">N</tspan><tspan x="61" y="10" dx="0">E</tspan><tspan x="66" y="10" dx="0">N</tspan><tspan x="72.3333" y="10" dx="0">3</tspan><tspan x="77.3333" y="10" dx="0">6</tspan><tspan x="82.3333" y="10" dx="0">1</tspan><tspan x="87.3333" y="10" dx="0">0</tspan><tspan x="92.3333" y="10" dx="0">I</tspan><tspan x="95" y="10" dx="0">D</tspan></text><text stroke="none" fill="#66413F" transform="translate(593 604)"><tspan x="0" y="10" dx="0">+</tspan></text><text stroke="none" fill="#66413F" transform="translate(610 604)"><tspan x="0" y="10" dx="0">a</tspan><tspan x="5" y="10" dx="0">c</tspan><tspan x="9.66667" y="10" dx="0 0">ti</tspan><tspan x="15.3333" y="10" dx="0">v</tspan><tspan x="20.3333" y="10" dx="0">i</tspan><tspan x="22.6667" y="10" dx="0">t</tspan><tspan x="26" y="10" dx="0">e</tspan><tspan x="31" y="10" dx="0">i</tspan><tspan x="33.3333" y="10" dx="0">t</tspan><tspan x="36.6667" y="10" dx="0">r</tspan><tspan x="40" y="10" dx="0">e</tspan><tspan x="45" y="10" dx="0">g</tspan><tspan x="49.6667" y="10" dx="0">e</tspan><tspan x="54.6667" y="10" dx="0">l</tspan><tspan x="57" y="10" dx="0">k</tspan><tspan x="61.6667" y="10" dx="0">w</tspan><tspan x="68.6667" y="10" dx="0">a</tspan><tspan x="73.3333" y="10" dx="0">l</tspan><tspan x="75.6667" y="10" dx="0">i</tspan><tspan x="78" y="10" dx="0 0">fi</tspan><tspan x="83.3333" y="10" dx="0">c</tspan><tspan x="87.6667" y="10" dx="0">a</tspan><tspan x="92.3333" y="10" dx="0 0">ti</tspan><tspan x="98" y="10" dx="0">e</tspan><tspan x="103" y="10" dx="0">:</tspan><tspan x="105.667" y="10" dx="0"> </tspan><tspan x="108" y="10" dx="0">A</tspan><tspan x="113.667" y="10" dx="0">c</tspan><tspan x="118" y="10" dx="0 0">ti</tspan><tspan x="123.667" y="10" dx="0">v</tspan><tspan x="128.333" y="10" dx="0">i</tspan><tspan x="130.667" y="10" dx="0">t</tspan><tspan x="134" y="10" dx="0">e</tspan><tspan x="139" y="10" dx="0">i</tspan><tspan x="141.333" y="10" dx="0">t</tspan><tspan x="144.667" y="10" dx="0">r</tspan><tspan x="148" y="10" dx="0">e</tspan></text><text stroke="none" fill="#66413F" transform="translate(763 604)"><tspan x="0" y="10" dx="0">g</tspan><tspan x="3.66667" y="10" dx="0">e</tspan><tspan x="8" y="10" dx="0">l</tspan><tspan x="10" y="10" dx="0">k</tspan><tspan x="14" y="10" dx="0">w</tspan><tspan x="20.3333" y="10" dx="0">a</tspan><tspan x="24.3333" y="10" dx="0">l</tspan><tspan x="26.3333" y="10" dx="0">i</tspan><tspan x="28.3333" y="10" dx="0 0">fi</tspan><tspan x="33" y="10" dx="0">c</tspan><tspan x="36.6667" y="10" dx="0">a</tspan><tspan x="40.6667" y="10" dx="0 0">ti</tspan><tspan x="45.6667" y="10" dx="0">e</tspan></text><path d="M461 241 461 305M461 305 455 290M461 305 467 290" stroke="#69738C" stroke-width="2"/><path d="M202 123 332 123M332 123 317 129M332 123 317 117" stroke="#69738C" stroke-width="2"/><path d="M379 471 379 493M379 493 214 493M214 493 214 541M214 541 208 526M214 541 220 526" stroke="#69738C" stroke-width="2"/><path d="M202 270 254 270M254 270 254 203M254 203 332 203M332 203 317 209M332 203 317 197" stroke="#69738C" stroke-width="2"/><path d="M428 471 428 533M428 533 422 518M428 533 434 518" stroke="#69738C" stroke-width="2"/><path d="M536 471 536 491M536 491 648 491M648 491 648 533M648 533 642 518M648 533 654 518" stroke="#69738C" stroke-width="2"/><g transform="matrix(1 0 0 -1 249 86)"><rect x="0" y="-13" width="73" height="13" stroke="none" fill="#FFFFFF"/></g><text stroke="none" fill="#595959" transform="translate(249 86)"><tspan x="0" y="10" dx="0">+kaartaanduiding</tspan></text><g transform="matrix(1 0 0 -1 260 99)"><rect x="0" y="-13" width="49" height="13" stroke="none" fill="#FFFFFF"/></g><text stroke="none" fill="#595959" transform="translate(260 99)"><tspan x="0" y="10" dx="0">«</tspan><tspan x="5" y="10" dx="0">R</tspan><tspan x="10.3333" y="10" dx="0">e</tspan><tspan x="15.3333" y="10" dx="0">l</tspan><tspan x="17.6667" y="10" dx="0">a</tspan><tspan x="22.3333" y="10" dx="0 0">ti</tspan><tspan x="28" y="10" dx="0">e</tspan><tspan x="33" y="10" dx="0">r</tspan><tspan x="36.3333" y="10" dx="0">o</tspan><tspan x="41.6667" y="10" dx="0">l</tspan><tspan x="44" y="10" dx="0">»</tspan></text><g transform="matrix(1 0 0 -1 298 130)"><rect x="0" y="-13" width="17" height="13" stroke="none" fill="#FFFFFF"/></g><text stroke="none" fill="#595959" transform="translate(298 130)"><tspan x="0" y="10" dx="0">0..*</tspan></text><g transform="matrix(1 0 0 -1 78 498)"><rect x="0" y="-13" width="123" height="13" stroke="none" fill="#FFFFFF"/></g><text stroke="none" fill="#595959" transform="translate(78 498)"><tspan x="0" y="10" dx="0">+gebiedsaanwijzingweergave</tspan></text><g transform="matrix(1 0 0 -1 152 511)"><rect x="0" y="-13" width="49" height="13" stroke="none" fill="#FFFFFF"/></g><text stroke="none" fill="#595959" transform="translate(152 511)"><tspan x="0" y="10" dx="0">«</tspan><tspan x="5" y="10" dx="0">R</tspan><tspan x="10.3333" y="10" dx="0">e</tspan><tspan x="15.3333" y="10" dx="0">l</tspan><tspan x="17.6667" y="10" dx="0">a</tspan><tspan x="22.3333" y="10" dx="0 0">ti</tspan><tspan x="28" y="10" dx="0">e</tspan><tspan x="33" y="10" dx="0">r</tspan><tspan x="36.3333" y="10" dx="0">o</tspan><tspan x="41.6667" y="10" dx="0">l</tspan><tspan x="44" y="10" dx="0">»</tspan></text><g transform="matrix(1 0 0 -1 239 522)"><rect x="0" y="-13" width="17" height="13" stroke="none" fill="#FFFFFF"/></g><text stroke="none" fill="#595959" transform="translate(239 522)"><tspan x="0" y="10" dx="0">0..*</tspan></text><g transform="matrix(1 0 0 -1 246 171)"><rect x="0" y="-13" width="73" height="13" stroke="none" fill="#FFFFFF"/></g><text stroke="none" fill="#595959" transform="translate(246 171)"><tspan x="0" y="10" dx="0">+kaartaanduiding</tspan></text><g transform="matrix(1 0 0 -1 257 184)"><rect x="0" y="-13" width="49" height="13" stroke="none" fill="#FFFFFF"/></g><text stroke="none" fill="#595959" transform="translate(257 184)"><tspan x="0" y="10" dx="0">«</tspan><tspan x="5" y="10" dx="0">R</tspan><tspan x="10.3333" y="10" dx="0">e</tspan><tspan x="15.3333" y="10" dx="0">l</tspan><tspan x="17.6667" y="10" dx="0">a</tspan><tspan x="22.3333" y="10" dx="0 0">ti</tspan><tspan x="28" y="10" dx="0">e</tspan><tspan x="33" y="10" dx="0">r</tspan><tspan x="36.3333" y="10" dx="0">o</tspan><tspan x="41.6667" y="10" dx="0">l</tspan><tspan x="44" y="10" dx="0">»</tspan></text><g transform="matrix(1 0 0 -1 313 208)"><rect x="0" y="-13" width="17" height="13" stroke="none" fill="#FFFFFF"/></g><text stroke="none" fill="#595959" transform="translate(313 208)"><tspan x="0" y="10" dx="0">0..*</tspan></text><g transform="matrix(1 0 0 -1 397 263)"><rect x="0" y="-13" width="50" height="13" stroke="none" fill="#FFFFFF"/></g><text stroke="none" fill="#595959" transform="translate(397 263)"><tspan x="0" y="10" dx="0">+kaartlagen</tspan></text><g transform="matrix(1 0 0 -1 397 276)"><rect x="0" y="-13" width="49" height="13" stroke="none" fill="#FFFFFF"/></g><text stroke="none" fill="#595959" transform="translate(397 276)"><tspan x="0" y="10" dx="0">«</tspan><tspan x="5" y="10" dx="0">R</tspan><tspan x="10.3333" y="10" dx="0">e</tspan><tspan x="15.3333" y="10" dx="0">l</tspan><tspan x="17.6667" y="10" dx="0">a</tspan><tspan x="22.3333" y="10" dx="0 0">ti</tspan><tspan x="28" y="10" dx="0">e</tspan><tspan x="33" y="10" dx="0">r</tspan><tspan x="36.3333" y="10" dx="0">o</tspan><tspan x="41.6667" y="10" dx="0">l</tspan><tspan x="44" y="10" dx="0">»</tspan></text><g transform="matrix(1 0 0 -1 426 287)"><rect x="0" y="-13" width="17" height="13" stroke="none" fill="#FFFFFF"/></g><text stroke="none" fill="#595959" transform="translate(426 287)"><tspan x="0" y="10" dx="0">1..*</tspan></text><g transform="matrix(1 0 0 -1 438 497)"><rect x="0" y="-13" width="69" height="13" stroke="none" fill="#FFFFFF"/></g><text stroke="none" fill="#595959" transform="translate(438 497)"><tspan x="0" y="10" dx="0">+normweergave</tspan></text><g transform="matrix(1 0 0 -1 458 510)"><rect x="0" y="-13" width="49" height="13" stroke="none" fill="#FFFFFF"/></g><text stroke="none" fill="#595959" transform="translate(458 510)"><tspan x="0" y="10" dx="0">«</tspan><tspan x="5" y="10" dx="0">R</tspan><tspan x="10.3333" y="10" dx="0">e</tspan><tspan x="15.3333" y="10" dx="0">l</tspan><tspan x="17.6667" y="10" dx="0">a</tspan><tspan x="22.3333" y="10" dx="0 0">ti</tspan><tspan x="28" y="10" dx="0">e</tspan><tspan x="33" y="10" dx="0">r</tspan><tspan x="36.3333" y="10" dx="0">o</tspan><tspan x="41.6667" y="10" dx="0">l</tspan><tspan x="44" y="10" dx="0">»</tspan></text><g transform="matrix(1 0 0 -1 395 512)"><rect x="0" y="-13" width="17" height="13" stroke="none" fill="#FFFFFF"/></g><text stroke="none" fill="#595959" transform="translate(395 512)"><tspan x="0" y="10" dx="0">0..*</tspan></text><g transform="matrix(1 0 0 -1 670 487)"><rect x="0" y="-13" width="155" height="13" stroke="none" fill="#FFFFFF"/></g><text stroke="none" fill="#595959" transform="translate(670 487)"><tspan x="0" y="10" dx="0">+</tspan><tspan x="5.33333" y="10" dx="0">a</tspan><tspan x="10.3333" y="10" dx="0">c</tspan><tspan x="15" y="10" dx="0 0">ti</tspan><tspan x="20.6667" y="10" dx="0">v</tspan><tspan x="25.6667" y="10" dx="0">i</tspan><tspan x="28" y="10" dx="0">t</tspan><tspan x="31.3333" y="10" dx="0">e</tspan><tspan x="36.6667" y="10" dx="0">i</tspan><tspan x="39" y="10" dx="0">t</tspan><tspan x="42.3333" y="10" dx="0">l</tspan><tspan x="44.6667" y="10" dx="0">o</tspan><tspan x="50.3333" y="10" dx="0">c</tspan><tspan x="55" y="10" dx="0">a</tspan><tspan x="59.6667" y="10" dx="0 0">ti</tspan><tspan x="65.3333" y="10" dx="0">e</tspan><tspan x="70.3333" y="10" dx="0">a</tspan><tspan x="75" y="10" dx="0">a</tspan><tspan x="79.6667" y="10" dx="0">n</tspan><tspan x="85" y="10" dx="0">d</tspan><tspan x="90.3333" y="10" dx="0">u</tspan><tspan x="95.6667" y="10" dx="0">i</tspan><tspan x="98" y="10" dx="0">d</tspan><tspan x="103.333" y="10" dx="0">i</tspan><tspan x="105.667" y="10" dx="0">n</tspan><tspan x="111" y="10" dx="0">g</tspan><tspan x="115.667" y="10" dx="0">w</tspan><tspan x="122.667" y="10" dx="0">e</tspan><tspan x="127.667" y="10" dx="0">e</tspan><tspan x="132.667" y="10" dx="0">r</tspan><tspan x="136" y="10" dx="0">g</tspan><tspan x="140.667" y="10" dx="0">a</tspan><tspan x="145.333" y="10" dx="0">v</tspan><tspan x="150" y="10" dx="0">e</tspan></text><g transform="matrix(1 0 0 -1 670 500)"><rect x="0" y="-13" width="49" height="13" stroke="none" fill="#FFFFFF"/></g><text stroke="none" fill="#595959" transform="translate(670 500)"><tspan x="0" y="10" dx="0">«</tspan><tspan x="5" y="10" dx="0">R</tspan><tspan x="10.3333" y="10" dx="0">e</tspan><tspan x="15.3333" y="10" dx="0">l</tspan><tspan x="17.6667" y="10" dx="0">a</tspan><tspan x="22.3333" y="10" dx="0 0">ti</tspan><tspan x="28" y="10" dx="0">e</tspan><tspan x="33" y="10" dx="0">r</tspan><tspan x="36.3333" y="10" dx="0">o</tspan><tspan x="41.6667" y="10" dx="0">l</tspan><tspan x="44" y="10" dx="0">»</tspan></text><g transform="matrix(1 0 0 -1 656 515)"><rect x="0" y="-13" width="17" height="13" stroke="none" fill="#FFFFFF"/></g><text stroke="none" fill="#595959" transform="translate(656 515)"><tspan x="0" y="10" dx="0">0..*</tspan></text></g></g></g></g></svg>